<!-- Generated by IcoMoon.io -->
<svg version="1.1" xmlns="http://www.w3.org/2000/svg" width="29" height="32" viewBox="0 0 29 32">
<title>i</title>
<path d="M0.372 16.031q0-5.333 3.736-9.054t9.039-3.721q5.333 0 9.054 3.721t3.721 9.054q0 5.302-3.721 9.039t-9.054 3.736q-5.302 0-9.039-3.736t-3.736-9.039zM6.481 7.783q-0.093-0.031-0.124 0.031t0 0.248 0.31 0.589q0.403 0.527 0.403 1.178 0 0.186-0.31 0.589-0.403 0.465-0.682 0.961-0.744 1.488-0.806 3.38-0.124 3.814 3.876 5.674 0.682 0.217 2.14 0.744-0.031 0.217-0.372 0.713-0.155 0.124-0.868 0.651-0.558 0.403-0.279 0.868 0.217 0.31 0.93 0 0.496-0.217 0.992-0.868 0.217-0.341 0.434-0.992h0.372q1.364 0 2.946-0.899 0.837-0.558 0.93-0.558 0.279 0 0.589 0.186-0.155 0.372-0.651 1.085-0.279 0.341-0.434 0.806-0.062 0.31 0.046 0.45t0.388 0.109q0.186-0.031 0.403-0.248 0.341-0.372 0.558-0.558 0.93-0.62 2.078-2.047 0.341-0.403 0.589-1.24 1.426 0.279 2.109 0.062 0.527-0.186 0.899-1.209 0.093-0.341 0.186-0.93-0.217 0.093-0.465 0.217-0.93 0.62-1.24 0.651-0.403 0.062-0.961-0.465-0.248-0.279-0.248-0.775t-0.698-0.977-1.271-0.419-0.977-0.589l-0.434-0.806q-0.248-0.248-0.837-0.651-0.186-0.093-0.434-0.093-0.403 0-0.744 0.248 0.155 0.062 0.496 0.372 0.217 0.155 0.682 1.116 0.217 0.403-0.093 0.713l-1.085 0.248q-0.403 0.062-1.178 0.775l-0.992 0.93q-1.457 0.992-2.543 0.992-1.457 0-2.326-1.24-0.775-1.085-0.775-2.605 0-2.14 1.023-3.225 0.744-0.775 1.426-0.713 0.434 0.031 1.643 0.868l0.496 0.062q0-0.217-0.186-0.899-0.341-0.682-1.023-1.023-0.496-0.217-1.705-0.217-0.465 0-1.054 0.217l-0.155-0.62q-0.186-0.279-0.992-0.868zM17.054 24.31q0 0.496 0.341 0.837t0.837 0.341q0.465 0 0.806-0.341t0.341-0.837-0.341-0.837-0.806-0.341q-0.496 0-0.837 0.341t-0.341 0.837zM13.767 26.264q0 0.527 0.341 0.868t0.837 0.341 0.853-0.341 0.357-0.868q0-0.465-0.357-0.806t-0.853-0.341-0.837 0.341-0.341 0.806zM9.643 26.326q0 0.496 0.341 0.837t0.806 0.341q0.496 0 0.837-0.341t0.341-0.837q0-0.465-0.341-0.822t-0.837-0.357q-0.465 0-0.806 0.357t-0.341 0.822zM5.643 24.775q0 0.465 0.357 0.822t0.822 0.357q0.496 0 0.837-0.357t0.341-0.822-0.341-0.822-0.837-0.357q-0.465 0-0.822 0.341t-0.357 0.837zM17.86 8.248q0 0.496 0.341 0.853t0.806 0.357q0.527 0 0.868-0.357t0.341-0.853-0.341-0.822-0.868-0.326q-0.465 0-0.806 0.326t-0.341 0.822zM20.527 11.225q0 0.496 0.341 0.822t0.837 0.326q0.465 0 0.806-0.326t0.341-0.822q0-0.465-0.341-0.837t-0.806-0.372q-0.496 0-0.837 0.372t-0.341 0.837zM14.884 6.171q0 0.496 0.357 0.837t0.853 0.341q0.465 0 0.806-0.341t0.341-0.837-0.341-0.837-0.806-0.341q-0.496 0-0.853 0.341t-0.357 0.837zM22.574 14.109q0 0.496 0.341 0.837t0.806 0.341 0.822-0.341 0.357-0.837-0.357-0.822-0.822-0.326-0.806 0.326-0.341 0.822zM20.527 21.426q0 0.465 0.341 0.806t0.837 0.341q0.465 0 0.806-0.341t0.341-0.806-0.341-0.837-0.806-0.372q-0.496 0-0.837 0.372t-0.341 0.837zM11.194 5.488q0 0.496 0.357 0.837t0.853 0.341q0.465 0 0.806-0.341t0.341-0.837-0.341-0.837-0.806-0.341q-0.496 0-0.853 0.341t-0.357 0.837zM7.69 5.86q0 0.496 0.341 0.837t0.806 0.341q0.527 0 0.884-0.341t0.357-0.837-0.357-0.837-0.884-0.341q-0.465 0-0.806 0.341t-0.341 0.837zM3.411 21.922q0 0.527 0.341 0.868t0.837 0.341 0.837-0.341 0.341-0.868q0-0.465-0.341-0.806t-0.837-0.341-0.837 0.341-0.341 0.806zM1.736 18.76q0 0.496 0.341 0.853t0.868 0.357q0.465 0 0.806-0.357t0.341-0.853-0.341-0.837-0.806-0.341q-0.527 0-0.868 0.341t-0.341 0.837zM1.24 15.101q0 0.527 0.341 0.884t0.806 0.357q0.527 0 0.884-0.357t0.357-0.884q0-0.465-0.357-0.806t-0.884-0.341q-0.465 0-0.806 0.341t-0.341 0.806zM2.264 10.264q0 0.527 0.341 0.853t0.806 0.326q0.527 0 0.868-0.326t0.341-0.853q0-0.465-0.341-0.822t-0.868-0.357q-0.465 0-0.806 0.357t-0.341 0.822z"></path>
</svg>
