<!-- Generated by IcoMoon.io -->
<svg version="1.1" xmlns="http://www.w3.org/2000/svg" width="26" height="32" viewBox="0 0 26 32">
<title>c</title>
<path d="M4.031 13.612q-0.868 0.031-1.643 0.093-1.302 0.093-1.674 0.062-0.62-0.031-0.713-0.279-0.496-1.023 1.519-5.767 0.341-0.837 1.612-2.015 1.147-1.054 1.984-1.55 0.62-0.372 2.465-0.961t2.558-0.62q0.744-0.031 0.744 0.527v3.969q-0.279 5.829-0.279 5.954 0.031 0.31-0.078 0.481t-0.419 0.171q-0.682-0.031-1.767-0.031-0.899-0.093-4.31-0.031zM1.767 15.752q0.682-0.031 3.132-0.031 0.434 0 1.488 0.031t1.705 0.031q0.713 0.093 1.891 0.155 0.806-0.031 0.806 0.558 0.186 0.992 0.341 2.419-0.093 1.209-0.062 2.264 0.155 2.791 0.155 2.76 0 0.496-0.124 1.302-0.155 0.62-0.961 0.62-0.217 0-0.465-0.062-3.194-0.713-4.434-1.674-0.899-0.713-1.86-1.767-0.899-0.961-1.395-1.891-0.062-0.124-0.992-2.078-0.403-0.899-0.465-1.395-0.124-1.271 0.093-1.271 0.465-0.031 1.147 0.031zM20.341 13.612q-3.442-0.062-4.31 0.031-1.116 0-1.798 0.031-0.279 0-0.403-0.186t-0.062-0.465q0-0.124-0.279-5.954-0.031-0.682-0.031-2.45 0-0.217 0-0.713 0.031-0.527 0.031-0.806 0-0.558 0.713-0.527t2.574 0.62 2.481 0.961q0.837 0.496 1.985 1.55 1.24 1.178 1.612 2.016 1.953 4.589 1.519 5.767-0.093 0.248-0.775 0.279-0.341 0.031-1.612-0.062-0.775-0.062-1.643-0.093zM22.605 15.752q0.651-0.062 1.147-0.031 0.217 0 0.062 1.271-0.062 0.496-0.465 1.395-0.837 1.798-0.961 2.078-0.496 0.899-1.426 1.891-0.992 1.116-1.829 1.767-1.209 0.93-4.465 1.674-0.279 0.062-0.434 0.062-0.837 0-0.992-0.62-0.062-0.62-0.124-1.302 0.031 0.31 0.155-2.76 0.062-1.054-0.031-2.264 0.155-1.426 0.31-2.419 0-0.589 0.837-0.558 1.147-0.062 1.891-0.155 0.62 0 1.69-0.031t1.473-0.031q2.481 0 3.163 0.031zM5.085 9.147q0 0.806 0.558 1.364t1.364 0.558 1.364-0.558 0.558-1.364-0.558-1.364-1.364-0.558-1.364 0.558-0.558 1.364zM5.736 19.225q0 0.961 0.667 1.628t1.628 0.667q0.992 0 1.659-0.667t0.667-1.628q0-0.992-0.667-1.659t-1.659-0.667q-0.93 0-1.612 0.682t-0.682 1.643zM15.473 9.054q0 0.868 0.589 1.473t1.457 0.605 1.488-0.605 0.62-1.473-0.62-1.473-1.488-0.605-1.457 0.605-0.589 1.473zM14.915 19.225q0 0.837 0.589 1.457t1.457 0.62 1.488-0.62 0.62-1.457q0-0.868-0.62-1.473t-1.488-0.605-1.457 0.605-0.589 1.473z"></path>
</svg>
