<!-- Generated by IcoMoon.io -->
<svg version="1.1" xmlns="http://www.w3.org/2000/svg" width="39" height="32" viewBox="0 0 39 32">
<title>odieresis2</title>
<path d="M0.868 19.225q-0.031-1.395-0.031-1.985-0.155-4.124-0.186-4.992-0.093-1.705 0.434-4.837 0.155-0.744 0.589-1.488l0.899-1.209q0.403-0.558 1.705-0.744t3.132-0.279q7.473-0.155 10.574-0.155l15.814-0.186q1.054 0 1.054 0.713 0 0.155-0.078 0.589t-0.047 0.62q0.682 4.589 0.775 6.279t0.403 5.907q0.372 4.651 0.372 5.24 0 0.806-0.217 1.116-0.124 0.155-0.465 0.341-0.403 0.279-0.558 0.31t-0.961 0.124q-6.202 0.775-7.969 0.806-7.721 0.093-10.543 0.124-3.628 0.062-7.287 0-1.767 0-3.597 0-2.977-0.155-3.256-0.899-0.434-1.271-0.496-2.977-0.031-1.116-0.062-2.419zM5.519 15.38q-1.023 1.612-1.395 1.985-0.899 1.023-1.333 2.109-0.124 0.279-0.124 0.496 0 0.558 0.496 0.62 0.217 0 0.977 0.202t1.132 0.233q0.775 0.062 1.116-0.171t0.806-0.853q0.93-1.271 1.395-2.202 1.767-2.853 2.481-4.031 0.961-1.426 1.24-1.798 0.403 1.643 0.558 2.078 1.705 5.147 1.798 5.55 0.279 0.992 0.806 1.985 0.682 1.364 1.271 1.55 0.713 0.279 1.209 0.279 1.519 0 2.574-1.86 0.713-1.767 1.023-2.822 0.93-0.093 1.426-0.124h1.829q1.612 0 2.233-0.031 1.023-0.062 1.209 0.341 0.713 1.178 1.24 1.767 0.372 0.434 1.209 0.434 0.155 0 0.589-0.031 0.403 0 0.62 0 0.558 0.031 2.481-0.248 0.775-0.124 1.705-0.093l-0.279-3.752-1.519 0.062q-0.248 0-0.341 0.062 0 0.031-0.124 0.031-1.178 0.062-1.891-0.031-0.527-0.155-0.775-0.403-0.031-0.062-0.434-0.837-1.705-3.194-2.946-5.922-0.961-2.171-1.116-2.481-1.333-2.512-2.419-2.512-0.341 0-0.729 0.341t-0.791 0.713q-0.31 0.341-0.651 0.961-0.651 1.302-0.806 1.612-0.465 0.744-1.147 2.899t-0.992 3.24q-0.837 2.233-1.178 2.512-0.403-1.054-1.302-4.217-0.558-2.046-1.705-4.558-0.744-1.55-0.837-1.736-0.682-1.178-1.302-1.178-0.651 0-1.395 1.054-1.426 2.046-2.667 3.969-2.698 4-3.225 4.806zM24.806 10.729q0.279 0.589 1.023 2.078 0.155 0.341 0.868 1.922 0.093 0.155 0.806 1.426-0.558 0.279-2.326 0.372-1.054 0.062-2.76-0.093-0.186-0.279-0.186-0.589 0-0.682 0.434-1.829 0.62-1.612 1.333-3.318 0.062-0.093 0.403-0.837l0.403 0.868z"></path>
</svg>
