<svg xmlns="http://www.w3.org/2000/svg" viewBox="0 0 440.99 331.39"><defs><style>.cls-1{fill:gray;}</style></defs><g id="Layer_2" data-name="Layer 2"><g id="Layer_1-2" data-name="Layer 1"><path class="cls-1" d="M262.28,66.14c1.4,2.64,5.58,6.63,10.41,7.08s17-5.2,17-5.2a57.28,57.28,0,0,0,10.53,5.27,90.36,90.36,0,0,0,12.06,3.32s2.07,4.49,6.71,5.18c5.46.81,5.66-2.64,10.49-2.2s11.38-4.88,12-6.66S340,65.5,340,65.5s3.32-7.21,2-9.09-4,1.11-5.79,4.35,1.31,9-.66,11.06-12.85,4.71-15.17,2.57-20.66-7-24-8.56a51.63,51.63,0,0,1-6.1-4.44s-19.89,5.06-23.53,1-9.62-14.8-9.62-14.8S260,61.84,262.28,66.14Z"/><path class="cls-1" d="M212,33.59s-6.55,8.09-6.59,10.18,12,6.72,12,6.72S202,48.88,201.63,44.77s8-12.51,8-12.51S210.23,32.64,212,33.59Z"/><path class="cls-1" d="M214,30.06s8,2.29,9.1,5.33c-1.28.93-1.34,1.66-1.34,1.66l-10.91-6.41S211.14,29.41,214,30.06Z"/><path class="cls-1" d="M204.45,56.51s-2.06,9.75-1.08,11.64,14.19,1.43,14.19,1.43-14.84,4.46-17.15.91,1.22-14.26,1.22-14.26S202.38,56.33,204.45,56.51Z"/><path class="cls-1" d="M204.6,52.56s8.39-1,10.85,1.31c-.72,1.32-.43,2-.43,2l-13-1.58S201.65,53.09,204.6,52.56Z"/><path class="cls-1" d="M198.68,79.68s-.66,9.88.58,11.65,14.31-.18,14.31-.18S199.45,97.23,196.65,94s-.81-14.25-.81-14.25S196.6,79.74,198.68,79.68Z"/><path class="cls-1" d="M198.27,75.76s8.2-1.94,11,.07c-.53,1.39-.14,2-.14,2l-13.16-.09S195.41,76.61,198.27,75.76Z"/><path class="cls-1" d="M202.74,102.36s1.71,9.75,3.34,11.23,14-2.88,14-2.88-12.39,8.6-15.91,6-4.2-13.72-4.2-13.72S200.72,102.8,202.74,102.36Z"/><path class="cls-1" d="M201.4,98.61s7.58-3.43,10.77-2a2.48,2.48,0,0,0,.35,2L199.59,101S198.81,100,201.4,98.61Z"/><path class="cls-1" d="M223.62,32.63s-.78-10.76-3.35-17.23-.83-11.17,1.32-11.11-3.81-6.69-11-3.37S223.62,32.63,223.62,32.63Z"/><path class="cls-1" d="M428.79,132.25c-4.27-3.59-12-4.61-12-4.61s-19.8-12-24.15-12.33-21.63,6.2-23.75,7.19-19,3.59-22.82,4.08c-3.34.43-19.85,15.49-23.82,18a13.47,13.47,0,0,1-2.8-2c-5.86-5.22-12.19-14.27-13.94-17-15.06-23.85-21.12-51.49-21.12-51.49l-6.37,2.08s14.48,60.46,44.13,74.8l24.67-20L370.08,127s17.47-6.49,21.74-7.38,9.59,3.48,9.59,3.48,11.23,4.57,10.8,5.12-.83,5-.83,5a31.24,31.24,0,0,1,4.78-2.45c2.8-1.15,5.57,1,7.13,1.85,13.11,7.46,15.3,15.88,15.84,12.89C439.65,142.78,432,135,428.79,132.25Z"/><path class="cls-1" d="M351.47,151.89c5.39-6.39,1.08-8.4,6.52-10.9s11.88-3.2,15.78-4.5,10.41-4.15,11.2-3.76,15.6,9.29,17.17,9.43a16.58,16.58,0,0,0,4.48-.76s2.41,7.44,4.35,9.44,13.34.81,15.27.37,10.86-3.31,10.86-3.31l-1.84-2.11s-6.72,2.05-9.7,2.58a88.73,88.73,0,0,1-9.37.65s-6.57-9.83-6.06-10.87.93-2,0-2.52c-1.15-.67-1.45.46-2.89,1-3.49,1.37-5.19.78-5.19.78l-12.52-6.93s-3-2.45-4.7-2.15-11.65,5.34-24.7,7.76c-9.2,2.72-9,6.26-13.21,16.67Z"/><path class="cls-1" d="M436,171.67s-5.28,4.37-7.63,5.43c-3,1.34-12.84,3.58-14.4.18s-3-6-2.5-8.14-21.31-9.1-28.38-9.4c-15.58-.67-25.88,3.56-31.05,10.48-4.08,5.45-23.46,32.72-23.46,32.72s-7.59,7.6-19.47.62c-5-10.05-16.64-21.19-16.64-21.19s-20.89-13.83-25.72-14,0,3.48.75,3.82,19.74,10.71,23,13,12.73,18.22,12,21.35,17.69,13,26.35,3,18.18-27.82,24.71-37c4.13-5.78,15.95-12.87,28.82-9.07a252.41,252.41,0,0,1,24.1,8.41s-.9,9,1.7,10.43,16.84,1.41,22-1.05a21.05,21.05,0,0,0,8.13-7.36Z"/><path class="cls-1" d="M303,198.92s-35.19,22.34-93.54,23c-62.31.66-81.17-8.12-82.21-8.15a9.34,9.34,0,0,1-1.25,5.54s44.93,14.19,86.77,11.2,89.81-23.91,89.81-23.91Z"/><path class="cls-1" d="M118.51,227.41s-8.85,11-6.87,13,5.81,3,5.81,3L112.36,245s-7,7.62-2.84,9,2.71,2.66,2.71,2.66l-4.87,1.49s-4,15.86-4.21,19.2-4.16,6.08-2,10,5.07,4.34,5.07,4.34S103.61,292.9,104,295s4.22,11.37,4.22,11.37l-6.68,9s-1.56,3.1,2,5.49,10.14,9.34,13,6.94a46.2,46.2,0,0,0,5.19-5.3s-2.91,8.1-4.39,8.77-9.31-1.95-12.5-3.81-12.23-7.6-10.37-10.57S102,308,102,308s-6.56-19.61-6.62-21.78,2.21-9.3,2.21-9.3,5.06-17.61,4.54-18.32-3.36-5.74-1.58-8.91,6.34-12.61,6.34-12.61Z"/><path class="cls-1" d="M136.26,224.4s-5,10.25-7.29,12.71-7.32,7.67-7.32,7.67-1.43,8.08-4.47,9.88,1.32,3.53,1.32,3.53l-2.88,18.14-.27,11.22s-.9,2.89-2.67,3.44-3.85,2.93-1.49,2.64,3.6,4.36,3.6,4.36L122,318.05s-4.62-23-4.61-24.36,1.19-2.76.68-4.79,6-34.37,5.32-36.79,11.66-11.36,17.59-26.5A25.6,25.6,0,0,1,136.26,224.4Z"/><path class="cls-1" d="M91.84,144.53c-1.9,1.16-27.21,13.67-30.89,31.14s-.42,38.82,27.56,45.87l-1.92,8.33s-2.89,7-2.64,9.5S73.59,242.18,72.6,248s2.72,6.57,2.72,6.57-5.92,3.66-7.24,6.62S52.72,276,52.72,276s-2.19,3.32,4.43,2,.59,10.22.59,10.22l.37,6.67-8.23,6.45S58.61,316.74,62.75,316A9.7,9.7,0,0,0,69,311.61S67.91,323,64.54,324s-11.8-8.11-11.8-8.11-8.81-10.93-8.29-13.12,10.2-8.47,10.2-8.47l.19-8.69s.42-5.1-2.57-4.6a11.57,11.57,0,0,1-6.15-1.06l1.69-4.71s14.84-12.62,16.54-14.81a60.79,60.79,0,0,1,6-5.85s-4.52-8.5,2.62-12,7.55-8.65,7.55-8.65l-.11-7.77s-33.32-12.47-27.32-49.49c3.53-11.34-10.69-7.25-10.69-7.25s-.34-7.73,9.7-8.59,11.19-1.06,17.39-6.95S91.84,144.53,91.84,144.53Z"/><path class="cls-1" d="M107,233.28c-3.83,3.51-15.07,12.56-16.09,13.37,1.16,6.66-7.72,11.2-7.72,11.2L80,284.94a30.56,30.56,0,0,0-8.41,24.8c-3.39,2.05-3.08-10-2.24-13.35s4.82-10.93,7.07-12.76,4.55-27.48,4.55-27.48,7.54-2.4,7.09-10.49c-.22-4.06,22.07-18.77,28.48-32,4-8.37,2.76-22.13-1.46-35.66,2.86,1.24,11.83,28.44,8.81,37.87C122.44,220.24,110.63,230,107,233.28Z"/><path class="cls-1" d="M39.67,178.8s-3.09,11.43-8.58,15.2-10,14.48-10,14.48,4.92-6.67,9.55-9.36S41.71,188.25,39.67,178.8Z"/><path class="cls-1" d="M22.15,213.68s2.39,18.6-3,26.56C13.06,249.38,2,251.53,2,251.53s15.38-.56,21.13-9C28.42,234.7,22.15,213.68,22.15,213.68Z"/><path class="cls-1" d="M0,248.55c.49-.24,3.33-6.57,10.41-9.5s-4.15-1.2-4.15-1.2-1.77-5.38-.64-6.84,6.23-8.16,6.16-9.41S5,212.33,4.88,209.18s1.13-8.72,4-10.31,13.3-10.47,12.51-12.55S9.87,170.64,9.34,165c-.79-8.55,4.82-20.45,19.34-21.13,12.88-.6,3.55,1.77,3.55,1.77s-20-.09-18.14,19c.87,9.22,11.79,16.48,10.54,21s-14.9,15.63-14.9,15.63a8.72,8.72,0,0,0-1.17,7.63c1.28,4.68,6.36,13.29,6.36,13.29s-6.82,8.74-7.13,9.9.72,3.66.72,3.66,5.08-1.33,5.7,0a3.64,3.64,0,0,1-1.71,4.87C10.2,241.61,0,248.55,0,248.55Z"/><path class="cls-1" d="M36,146.58s19.84,3.9,24.38,9.77C58.21,150.55,38.38,141.19,36,146.58Z"/><path class="cls-1" d="M101.38,23.37s-1.22,11.89,6.05,14.45,8.74,6.39,8.74,6.39,3.21,19.87,6.1,20.09,13.79-4.1,13.79-4.1,5.28,6.93,5,9.19S143,78.55,143,78.55s-10.08,1.7-11.66,4.5S119,107.25,119,107.25s-.53,4.54,4.91,5,32.71,12.37,32.71,12.37,1.21,7.93,6.15,7.73,12.19-6.79,12.19-6.79-.74,7.06-4.41,8.31-12,6.14-17.72-6.79c-10.18-2.89-39-10.84-39-10.84s-5.53-3.51-1.83-9.3,15.92-27.72,15.92-27.72,10.8-2.12,10.84-3.74S135,67.34,135,67.34s-11.34,3.9-14.12,2.4-9.49-21-9.39-24.15-9.61-5.38-9.61-5.38S94.37,31.19,101.38,23.37Z"/><path class="cls-1" d="M162.75,132.37s-4.92,9.6-7,11.64-6.47,6.37-4.1,10,4.49,8.29,4.27,9.59,12.59,9.66,23.5,8.44,15.92,0,16.31.82,20,10.9,36.77,8.27c4.81,1.52,4,4.81,4,4.81l2.06,28.51s9.44.92,16.09-1.47-9.78-.25-10.64-2.2-3.58-26.56-3.58-26.56-1.34-6.82-5.57-6.58-38.16-8.11-39-9.87-2.83-3.52-6.4-2.39-24.67,1.34-27.47-3.24-5.08-12-5.08-12Z"/><path class="cls-1" d="M264.14,209.24s-6.78-34.86-8.92-37S223.64,156.3,217,156s-2.94-5.19-2.94-5.19-8.37-12.24-10.08-15.62c-5-9.92,5.28,5.9,8.71,9.75s4.33,7.26,7.45,8,36.91,12,38.82,16.84S264.14,209.24,264.14,209.24Z"/><path class="cls-1" d="M111.43,17.46c.91-.16,12.93-3,17.52-.23,7.54-2.7,23.29,3.73,23.29,3.73s7.25-1.75,7.58,1.14-1,8,1.49,7.54,11.14,4.48,11.06,7.73c-3.52-2.59-14.08-5-14.29-6.06s0-7.23-1.27-7.65-5.17.3-6.17,0S140,20.2,138.1,20.31a29,29,0,0,0-11.36,2.56C125.26,16.16,111.43,17.46,111.43,17.46Z"/><path class="cls-1" d="M168.74,61.31s-4.06,1.08-2,5.59,3.86,6.31,4.36,6.43,11.32-.33,13.2,4.35,5.52,12.48,6.36,14.76-.41,4.6-2.54,2.22-5-15.68-6.58-16.51-13.87-1.71-15.44-1.23.42-2.7.36-4.22-3.85-5.51-3.3-7.92S168.74,61.31,168.74,61.31Z"/><path class="cls-1" d="M96,143.83a83.35,83.35,0,0,1,29.89,1.11c15.21,3.66,22.71,2.81,22.71,2.81s-2.08,3.09-1,4.81-24.61-3.41-24.61-3.41S107,143.22,96,143.83Z"/><path class="cls-1" d="M113.36,98.34s-13.62-9.88-19-10.68c.15,5.29-18.4,17-18.4,17s-12.15,7.82-26,8.23a99.42,99.42,0,0,0,24-10S90,94.3,93.34,84.68C99.72,87,114.5,93.81,116,95.8,114.56,97.19,113.36,98.34,113.36,98.34Z"/><path class="cls-1" d="M50.32,111.68s1.1-11.32,31.76-27.76a3.6,3.6,0,0,1,1.66.49S53.92,103.62,50.32,111.68Z"/><path class="cls-1" d="M86.24,80.6S77.42,76.53,77.35,76,62.67,89.88,32.67,100.77c7.45-.65,34.36-11.63,44.41-20.55,4.9.66,6.26,2.15,6.26,2.15Z"/><path class="cls-1" d="M32.6,100.44S33.36,89.52,60,74.12a3.62,3.62,0,0,1,1.47.49S35.61,92.71,32.6,100.44Z"/><path class="cls-1" d="M56.43,75.35s-6,.3-8.07.74c-2.89,3.54-12,12.54-22.5,14.31,7-3.05,19.37-11.94,20.85-16.45,2.3.24,11.37.49,11.37.49Z"/><path class="cls-1" d="M24.66,87.94s1.74-8,13.89-12.61C33.47,79.67,24.66,87.94,24.66,87.94Z"/><path class="cls-1" d="M37.63,74.84s-9-1.48-13.87-12.25C28.52,67.07,37.63,74.84,37.63,74.84Z"/><path class="cls-1" d="M25.37,60.93s12-2,23.13,11.14C40.15,66,25.37,60.93,25.37,60.93Z"/><path class="cls-1" d="M34.67,47.73s.23,10.93,26.1,26.6a3.65,3.65,0,0,0,1.49-.48S37.31,55.5,34.67,47.73Z"/><path class="cls-1" d="M35,47S48.49,45.64,71.8,68.12l.74-1.82S56.45,46.68,35,47Z"/><path class="cls-1" d="M85.05,38.2S77,46.54,84,73.79a3.6,3.6,0,0,0,1.45.53S81.1,45.61,85.05,38.2Z"/><path class="cls-1" d="M86,38.31s10.86,7.1,10.85,37.91l1.92-.92S101.82,51,86,38.31Z"/><path class="cls-1" d="M96.61,77.94s23.47,8.49,24.38,9a6.49,6.49,0,0,0,1.4-2.37S100.32,76.91,99,77.05A6.12,6.12,0,0,0,96.61,77.94Z"/><path class="cls-1" d="M171.32,40.09s-2.71,3.45-4.48,4.38,2.53,12.84,2.53,12.84a21.73,21.73,0,0,0-3.27.55c-1,.33-3.55-12.59-2.77-14S171.32,40.09,171.32,40.09Z"/><path class="cls-1" d="M339.41,52.78c-1.82-4.16-42.64-18.86-45.88-20.47-1.68-.84-18.82-14-26.16-17.08-20.2-8.55-40.33-2.3-40.33-2.3,18.73-1.6,30.11,2,38.58,6.34C272.85,23,286.7,32.75,292.9,36.36c6.62,3.85,27.26,12.22,28.74,13a14.44,14.44,0,0,1,4.21,4.22c.76,1.16,8.54,3.55,8.54,3.55S335.6,55.17,339.41,52.78Z"/><path class="cls-1" d="M425,160.6a38.11,38.11,0,0,0-12.68-.91l-17.48-9.2s-1.81-2.85-7.66-.91-47.74.44-65.48,15.3C315.89,146.45,294.17,141,282,139.59c-1-.12-6,2.26.09,3.73,29.19,6.23,38.25,26,40,29.65,0,0,8.09-10.48,16-13.23,14.34-5,48.39-7,49.56-7.29a7.2,7.2,0,0,1,5.68.74c3.07,1.75,18.66,9.71,18.66,9.71s7.55-1.4,13.37.45c4,1.28,11.81,6.68,14.63,9.17a7.7,7.7,0,0,0,1-1.44S431.58,162.22,425,160.6Z"/></g></g></svg>