<?xml version="1.0" encoding="utf-8"?>
<!-- Generator: Adobe Illustrator 23.1.1, SVG Export Plug-In . SVG Version: 6.00 Build 0)  -->
<svg version="1.1" id="Layer_1" xmlns="http://www.w3.org/2000/svg" xmlns:xlink="http://www.w3.org/1999/xlink" x="0px" y="0px"
	 viewBox="0 0 1024 1024" style="enable-background:new 0 0 1024 1024;" xml:space="preserve">
<style type="text/css">
	.st0{fill:#7F7F7F;}
</style>
<path class="st0" d="M512,47.5C255.5,47.5,47.5,255.6,47.5,512c0,256.6,208,464.5,464.5,464.5S976.5,768.6,976.5,512
	C976.5,255.6,768.5,47.5,512,47.5z M512,886.6c-207,0-374.6-167.5-374.6-374.6c0-207,167.6-374.6,374.6-374.6
	c206.9,0,374.6,167.6,374.6,374.6C886.6,719,719.1,886.6,512,886.6z M712.9,408.6c0,125.6-135.6,127.5-135.6,173.9v11.9
	c0,12.4-10.1,22.5-22.5,22.5h-85.5c-12.4,0-22.5-10.1-22.5-22.5v-16.2c0-66.9,50.8-93.7,89.1-115.2c32.9-18.4,53.1-31,53.1-55.4
	c0-32.3-41.2-53.7-74.5-53.7c-43.4,0-63.5,20.6-91.7,56.1c-7.6,9.6-21.5,11.4-31.2,4l-52.1-39.5c-9.6-7.3-11.7-20.7-5-30.6
	c44.3-65,100.6-101.5,188.4-101.5C614.8,242.3,712.9,314,712.9,408.6z M590.7,721.8c0,43.4-35.3,78.7-78.7,78.7
	s-78.7-35.3-78.7-78.7c0-43.4,35.3-78.7,78.7-78.7S590.7,678.4,590.7,721.8z"/>
</svg>
