<?xml version="1.0" encoding="utf-8"?>
<!-- Generator: Adobe Illustrator 23.1.1, SVG Export Plug-In . SVG Version: 6.00 Build 0)  -->
<svg version="1.1" id="Layer_1" xmlns="http://www.w3.org/2000/svg" xmlns:xlink="http://www.w3.org/1999/xlink" x="0px" y="0px"
	 viewBox="0 0 1024 1024" style="enable-background:new 0 0 1024 1024;" xml:space="preserve">
<path d="M956.5,879.3L758.6,684.5c-7.9-7.9-18.5-12.3-29.8-12.3h-28.5c48.3-61.8,83.2-162.1,83.2-246.8
	c0-201.2-163-364.1-364.1-364.1S55.3,224.3,55.3,425.5s163,364.2,364.1,364.2c84.5,0,184.9-42.1,246.8-90.4v28.5
	c0,11.2,4.4,21.9,12.3,29.8l192.7,192.7c16.5,16.5,43,16.5,59.4,0l25.8-19.7C972.8,914.1,972.8,895.6,956.5,879.3z M419.4,719.2
	c-162.2,0-293.7-131.3-293.7-293.7c0-162.2,131.3-293.7,293.7-293.7c162.2,0,293.7,131.3,293.7,293.7
	C713.1,587.8,581.9,719.2,419.4,719.2z"/>
</svg>
