<?xml version="1.0" encoding="utf-8"?>
<!-- Generator: Adobe Illustrator 23.1.1, SVG Export Plug-In . SVG Version: 6.00 Build 0)  -->
<svg version="1.1" id="Layer_1" xmlns="http://www.w3.org/2000/svg" xmlns:xlink="http://www.w3.org/1999/xlink" x="0px" y="0px"
	 viewBox="0 0 1024 1024" style="enable-background:new 0 0 1024 1024;" xml:space="preserve">
<style type="text/css">
	.st0{fill:none;stroke:#be875a;stroke-width:30;stroke-miterlimit:10;}
</style>
<path class="st0" d="M446.6,91h131.7c21.9,0,39.5,17.6,39.5,39.5v276.6h144.4c29.3,0,44,35.4,23.2,56.1L535.1,713.9
	c-12.3,12.3-32.6,12.3-44.9,0L239.3,463.3c-20.7-20.7-6.1-56.1,23.2-56.1h144.6V130.5C407.1,108.6,424.7,91,446.6,91z M934,710.1
	v184.4c0,21.9-17.6,39.5-39.5,39.5h-764c-21.9,0-39.5-17.6-39.5-39.5V710.1c0-21.9,17.6-39.5,39.5-39.5H372l80.7,80.7
	c33.1,33.1,86.4,33.1,119.5,0l80.7-80.7h241.5C916.4,670.6,934,688.2,934,710.1z M729.8,855c0-18.1-14.8-32.9-32.9-32.9
	S664,836.9,664,855s14.8,32.9,32.9,32.9S729.8,873.1,729.8,855z M835.2,855c0-18.1-14.8-32.9-32.9-32.9s-32.9,14.8-32.9,32.9
	s14.8,32.9,32.9,32.9S835.2,873.1,835.2,855z"/>
</svg>
