<?xml version="1.0" encoding="utf-8"?>
<!-- Generator: Adobe Illustrator 23.1.1, SVG Export Plug-In . SVG Version: 6.00 Build 0)  -->
<svg version="1.1" id="Layer_1" xmlns="http://www.w3.org/2000/svg" xmlns:xlink="http://www.w3.org/1999/xlink" x="0px" y="0px"
	 viewBox="0 0 1024 1024" style="enable-background:new 0 0 1024 1024;" xml:space="preserve">
<style type="text/css">
	.st0{fill:#BE875A;}
</style>
<path class="st0" d="M646.4,377.6c113.7,113.8,112.1,296.3,0.7,408.3c-0.2,0.2-0.5,0.5-0.7,0.7l-127.9,128
	c-112.8,112.8-296.3,112.8-409.1,0s-112.8-296.3,0-409.1l70.6-70.6c18.7-18.7,51-6.3,51.9,20.2c1.2,33.7,7.3,67.6,18.4,100.3
	c3.8,11.1,1.1,23.3-7.2,31.6l-24.9,24.9c-53.3,53.3-55,140.2-2.2,194c53.3,54.4,141,54.7,194.7,1L538.6,679
	c53.6-53.6,53.4-140.4,0-193.8c-7-7-14.1-12.5-19.7-16.3c-7.9-5.5-12.9-14.4-13.2-24c-0.8-20.1,6.4-40.8,22.3-56.7l40.1-40.1
	c10.5-10.5,27-11.8,39.2-3.3C621.3,354.7,634.3,365.6,646.4,377.6L646.4,377.6z M914.6,109.4C801.8-3.3,618.3-3.4,505.5,109.4
	L377.6,237.3c-0.2,0.2-0.5,0.5-0.7,0.7c-111.4,112.1-113,294.5,0.7,408.3c12,12,25.1,23,39,32.7c12.2,8.5,28.7,7.2,39.2-3.3
	l40.1-40.1c15.9-15.9,23-36.6,22.3-56.7c-0.4-9.6-5.3-18.5-13.2-24c-5.5-3.8-12.6-9.3-19.7-16.3c-53.4-53.4-53.6-140.1,0-193.8
	l127.9-127.9c53.7-53.7,141.4-53.4,194.7,1c52.8,53.9,51.1,140.7-2.2,194L780.8,437c-8.3,8.3-11,20.5-7.2,31.6
	c11.2,32.7,17.2,66.6,18.4,100.3c1,26.5,33.2,38.9,51.9,20.2l70.6-70.6C1027.3,405.7,1027.3,222.2,914.6,109.4L914.6,109.4z"/>
</svg>
