<?xml version="1.0" encoding="utf-8"?>
<!-- Generator: Adobe Illustrator 23.1.1, SVG Export Plug-In . SVG Version: 6.00 Build 0)  -->
<svg version="1.1" id="Layer_1" xmlns="http://www.w3.org/2000/svg" xmlns:xlink="http://www.w3.org/1999/xlink" x="0px" y="0px"
	 viewBox="0 0 807 270" style="enable-background:new 0 0 807 270;" xml:space="preserve">
<style type="text/css">
	.st0{fill:#B7996D;}
	.st1{fill:#FFFFFF;}
</style>
<g>
	<g>
		<path class="st0" d="M260.3,65.1c0,24.4-20.6,44.5-45,44.5s-45-20.1-45-44.5c0-24.4,20.5-44.5,45-44.5
			C239.7,20.6,260.3,40.8,260.3,65.1z M175.9,65.1c0,21.4,17.8,39.3,39.4,39.3c21.5,0,39.4-18.1,39.4-39.3
			c0-21.4-17.9-39.3-39.4-39.3C193.7,25.8,175.9,43.7,175.9,65.1z"/>
		<path class="st1" d="M356.6,111.4L283.8,34v74.5h-5.5V20.6l72.8,76.8V21.8h5.5V111.4z"/>
		<path class="st1" d="M385.4,103.3h22.1v5.2h-27.6V21.8h5.5V103.3z"/>
		<path class="st1" d="M427.6,108.5h-5.5V21.8h5.5V108.5z"/>
		<path class="st1" d="M529.1,111.4L456.3,34v74.5h-5.5V20.6l72.8,76.8V21.8h5.5V111.4z"/>
		<path class="st1" d="M557.9,27v31.5h35v5.2h-35v39.7h35.9v5.2h-41.4V21.8h41.4V27H557.9z"/>
		<path class="st0" d="M86.4,177.5c-6.7-8.2-18.4-13.7-29.1-13.7c-21.6,0-39.4,18.6-39.4,39.9c0,10.1,4.4,19.7,11.6,26.8
			c7.2,6.9,17.6,12,27.8,12c10,0,22.7-5.4,29.1-13.2v7.6c-8.2,6.8-18.2,10.8-28.9,10.8c-24.2,0-45.2-20.1-45.2-44.4
			c0-24.6,20.7-44.6,45.3-44.6c10.5,0,21,4.1,28.8,11.3V177.5z"/>
		<path class="st1" d="M112.6,165v31.5h35v5.2h-35v39.7h35.9v5.2h-41.4v-86.7h41.4v5.2H112.6z"/>
		<path class="st1" d="M175.5,241.3h22.1v5.2H170v-86.7h5.5V241.3z"/>
		<path class="st1" d="M228.1,246.5h-5.5V165h-22.4v-5.2h50.4v5.2h-22.4V246.5z"/>
		<path class="st1" d="M270.6,246.5h-5.5v-86.7h5.5V246.5z"/>
		<path class="st1" d="M362.7,177.5c-6.7-8.2-18.4-13.7-29.1-13.7c-21.6,0-39.4,18.6-39.4,39.9c0,10.1,4.4,19.7,11.6,26.8
			c7.2,6.9,17.6,12,27.8,12c10,0,22.7-5.4,29.1-13.2v7.6c-8.2,6.8-18.2,10.8-28.9,10.8c-24.2,0-45.2-20.1-45.2-44.4
			c0-24.6,20.7-44.6,45.3-44.6c10.5,0,21,4.1,28.8,11.3V177.5z"/>
		<path class="st0" d="M492.6,177.5c-6.7-8.2-18.4-13.7-29.1-13.7c-21.6,0-39.4,18.6-39.4,39.9c0,10.1,4.4,19.7,11.6,26.8
			c7.2,6.9,17.6,12,27.8,12c10,0,22.7-5.4,29.1-13.2v7.6c-8.2,6.8-18.2,10.8-28.9,10.8c-24.2,0-45.2-20.1-45.2-44.4
			c0-24.6,20.7-44.6,45.3-44.6c10.5,0,21,4.1,28.8,11.3V177.5z"/>
		<path class="st1" d="M598,203.1c0,24.4-20.6,44.5-45,44.5s-45-20.1-45-44.5c0-24.4,20.5-44.5,45-44.5
			C577.4,158.6,598,178.8,598,203.1z M513.6,203.1c0,21.4,17.8,39.3,39.4,39.3c21.5,0,39.4-18.1,39.4-39.3
			c0-21.4-17.9-39.3-39.4-39.3C531.4,163.8,513.6,181.7,513.6,203.1z"/>
		<path class="st1" d="M621.6,246.5h-5.5v-86.7h5.5V246.5z"/>
		<path class="st1" d="M723.1,249.4L650.3,172v74.5h-5.5v-87.9l72.8,76.8v-75.7h5.5V249.4z"/>
		<path class="st1" d="M786.5,174c-3.9-6.2-9.4-10.2-17.6-10.2c-9.3,0-16.3,7.5-16.3,16.6c0,9.1,8.6,12.9,15.6,16.2l16.6,8.6
			c6.6,4.1,9.9,9.4,9.9,17.3c0,14.4-13.1,25.2-27.1,25.2c-12.1,0-21.5-7.5-25.5-18.6l4.8-2.2c3.7,9.2,10.5,15.6,20.9,15.6
			c11.4,0,21.4-9,21.4-20.5c0-9.8-10-13.9-17.5-17.6l-15.6-8.3c-5.8-3.6-9-8.6-9-15.5c0-12.9,9.2-22,22.2-22c8.7,0,17,4.7,21.2,12.2
			L786.5,174z"/>
	</g>
</g>
</svg>
