<svg xmlns="http://www.w3.org/2000/svg" viewBox="0 0 148.33 143.66"><defs><style>.cls-1{fill:#5c4d37;}.cls-2{fill:#b7996d;}.cls-3{fill:#d5c7c1;}.cls-4{fill:#fff;}</style></defs><g id="Layer_2" data-name="Layer 2"><g id="Layer_1-2" data-name="Layer 1"><path class="cls-1" d="M129.59,24.44c-4.83-5.27-11.27-12.73-24-18C90.23.15,79.55-.88,66.08.59c-25.9,2.63-41.85,17-49.75,29.7C.67,55.61-8.11,83.12,10.48,112.39c18.44,29.12,49.31,34,73.46,30.14s44-24,52.68-40.09c7.75-14.64,8.63-34.83,7.31-44.2C142.47,47,137.05,34.83,129.59,24.44Z"/><path class="cls-2" d="M133.49,24.44c-4.83-5.27-11.27-12.73-24-18C94.12.15,83.44-.88,70,.59c-25.9,2.63-41.85,17-49.75,29.7C4.57,55.61-4.21,83.12,14.37,112.39c18.44,29.12,49.32,34,73.46,30.14s44.05-24,52.68-40.09c7.76-14.64,8.64-34.83,7.32-44.2C146.37,47,141,34.83,133.49,24.44Z"/><path class="cls-1" d="M98,36a4.14,4.14,0,0,0,2.5,2.64c1.31.38,5-.69,5-.69A15.67,15.67,0,0,0,108.13,40a23.58,23.58,0,0,0,3.16,1.6,2.79,2.79,0,0,0,1.58,1.89c1.47.52,1.71-.5,3-.13s3.42-.88,3.68-1.38a6.41,6.41,0,0,0,0-2.3s1.32-2,1.06-2.61-1.19.12-1.85,1-.13,2.77-.79,3.27-3.81.76-4.34,0-5.35-3.14-6.19-3.78A14.86,14.86,0,0,1,106,36s-5.8.5-6.59-.89a34.54,34.54,0,0,1-1.85-4.91A36.32,36.32,0,0,0,98,36Z"/><path class="cls-1" d="M85.84,23.69s-2.26,2.08-2.39,2.71,3,2.62,3,2.62-4.19-1.27-4.07-2.52,2.9-3.33,2.9-3.33Z"/><path class="cls-3" d="M86.6,22.73s2.09,1.1,2.23,2.06c-.41.21-.47.43-.47.43l-2.67-2.47S85.83,22.4,86.6,22.73Z"/><path class="cls-1" d="M82.49,30.16s-1.1,2.81-.93,3.42,3.85,1.15,3.85,1.15-4.36.58-4.8-.6,1.11-4.2,1.11-4.2Z"/><path class="cls-3" d="M82.75,29s2.38.13,2.94.94c-.28.36-.23.58-.23.58l-3.52-1.13S81.9,29,82.75,29Z"/><path class="cls-1" d="M79.63,36.79s-.73,2.92-.48,3.51,4,.67,4,.67-4.25,1.11-4.85,0,.56-4.3.56-4.3Z"/><path class="cls-3" d="M79.73,35.6s2.38-.17,3,.57a.77.77,0,0,0-.14.6L79,36.08S78.89,35.71,79.73,35.6Z"/><path class="cls-1" d="M79.51,43.77s-.06,3,.32,3.53,4-.15,4-.15-3.9,1.94-4.74,1-.41-4.31-.41-4.31Z"/><path class="cls-3" d="M79.35,42.59s2.28-.64,3.09-.06a.8.8,0,0,0,0,.62l-3.72.06S78.55,42.87,79.35,42.59Z"/><path class="cls-1" d="M89.11,24a23.82,23.82,0,0,0,0-5.32c-.35-2.07.39-3.38,1-3.26s-.69-2.19-2.86-1.56S89.11,24,89.11,24Z"/><path class="cls-3" d="M140.54,64.17a7.38,7.38,0,0,0-3.06-2s-4.83-4.58-6-4.92-6.33.76-7,.95a58.54,58.54,0,0,1-6.55.06c-1,0-6.35,3.63-7.59,4.18a4,4,0,0,1-.67-.74,28.9,28.9,0,0,1-2.93-5.8,58.31,58.31,0,0,1-3-16.46l-1.88.3s.71,18.81,8.14,24.6l7.93-4.72h6.65s5.2-1.06,6.43-1.11,2.47,1.53,2.47,1.53,2.87,1.93,2.72,2.08a8.24,8.24,0,0,0-.51,1.45,8.41,8.41,0,0,1,1.46-.49c.84-.2,1.49.57,1.88.91,3.22,2.9,3.37,5.52,3.68,4.66S141.29,65.14,140.54,64.17Z"/><path class="cls-1" d="M118,66.12c1.84-1.64.75-2.46,2.4-2.93a32.41,32.41,0,0,1,4.62-.54,19.17,19.17,0,0,1,3.31-.56c.2.16,3.82,3.57,4.24,3.69a4.36,4.36,0,0,0,1.29,0,11.88,11.88,0,0,0,.69,3c.43.7,3.65.92,4.21.89s3.19-.44,3.19-.44l-.39-.73s-2,.28-2.83.28a21.76,21.76,0,0,1-2.63-.28s-1.29-3.27-1.09-3.55.37-.54.13-.76-.43.06-.85.16a2.21,2.21,0,0,1-1.49,0l-3.09-2.71s-.69-.88-1.18-.88a38.89,38.89,0,0,1-7.28,1.07c-2.69.35-2.83,1.42-4.57,4.31Z"/><path class="cls-1" d="M140.39,76.32A15.3,15.3,0,0,1,138,77.55c-.9.26-3.75.42-4-.67a5,5,0,0,1-.25-2.56c.25-.61-5.41-3.8-7.35-4.25-4.28-1-7.37-.25-9.18,1.56-1.43,1.42-8.3,8.59-8.3,8.59s-3.16,2.48-5.42-.8A23.57,23.57,0,0,0,100,72.24s-5-5.19-6.37-5.48-.19,1,0,1.19,4.89,4.2,5.68,5,2.24,6,2.5,6.89c.39,1.45,4.21,4.54,7.16,2s6.2-7.07,8.51-9.47A7.48,7.48,0,0,1,126,71.16a66,66,0,0,1,6.22,3.73s-.74,2.64-.1,3.21,4.59,1.27,6.17.8a6.14,6.14,0,0,0,2.66-1.79Z"/><path class="cls-1" d="M102,77.72s-11,4.89-27.19,2.12c-17.31-3-22.06-6.54-22.34-6.6a3,3,0,0,1-.65,1.59s11.68,6.52,23.44,7.75,26.86-2.65,26.86-2.65Z"/><path class="cls-1" d="M49.33,76.89s-3.06,2.84-2.62,3.54a4.18,4.18,0,0,0,1.45,1.2l-1.5.2s-2.37,1.93-1.28,2.54.61.93.61.93l-1.43.2S42.59,90,42.34,91s-1.48,1.6-1.09,2.88a2.29,2.29,0,0,0,1.17,1.56s-.8.24-.82.88.55,3.61.55,3.61l-2.34,2.36a1.36,1.36,0,0,0,.26,1.75c.87.89,2.3,3.3,3.21,2.73A13.82,13.82,0,0,0,45,105.48s-1.25,2.27-1.7,2.4-2.47-1.06-3.25-1.78-3-2.89-2.3-3.68a24.69,24.69,0,0,1,2.58-2.27S39.6,94,39.7,93.3a17.1,17.1,0,0,1,1.12-2.67s2.36-5,2.26-5.24-.62-1.89.05-2.74,2.44-3.45,2.44-3.45Z"/><path class="cls-3" d="M54.41,76.89a28.23,28.23,0,0,1-2.71,3.43l-2.45,1.92s-.84,2.34-1.78,2.73.17,1.12.17,1.12l-1.79,5.27-.69,3.34s-.4.82-.92.9-1.23.68-.56.71.76,1.48.76,1.48l.9,6.37s0-7.12,0-7.52.48-.76.45-1.4,3.54-10,3.49-10.72,3.85-2.81,6.33-7A6.93,6.93,0,0,1,54.41,76.89Z"/><path class="cls-1" d="M46.46,50.76c-.59.25-8.29,2.71-10.26,7.74S34,70.09,41.33,73.61l-1,2.39a11.32,11.32,0,0,0-1.25,2.71c-.06.76-3,.31-3.62,2s.4,2.1.4,2.1a7,7,0,0,0-2.37,1.62c-.53.82-5.07,3.65-5.07,3.65s-.79.88,1.12.82S29.16,92,29.16,92l-.27,2-2.63,1.51s1.58,5,2.76,5a2.79,2.79,0,0,0,2-1s-.92,3.33-1.91,3.46-2.83-3-2.83-3-1.84-3.72-1.58-4.35,3.29-2,3.29-2L28.5,91s.39-1.5-.46-1.5a3.07,3.07,0,0,1-1.65-.63l.73-1.32s4.8-3,5.39-3.59a17,17,0,0,1,2-1.45s-.79-2.77,1.38-3.46a3.62,3.62,0,0,0,2.57-2.2l.39-2.33S30.27,69.14,34,58.38c1.6-3.21-2.57-2.71-2.57-2.71s.33-2.33,3.16-2.08,3.16.25,5.2-1.19S46.46,50.76,46.46,50.76Z"/><path class="cls-3" d="M45.83,78.06c-1.26.86-4.87,3-5.2,3.18,0,2.05-2.75,3-2.75,3L35.5,92.13a9.64,9.64,0,0,0-3.69,7c-1,.44-.3-3.16.11-4.11a11,11,0,0,1,2.66-3.45c.72-.44,2.76-8,2.76-8a3.15,3.15,0,0,0,2.54-2.77c.16-1.23,7.14-4.49,9.65-8.13,1.57-2.3,2-6.48,1.54-10.74.73.52,1.73,9.1.37,11.77C50.81,74.94,47,77.25,45.83,78.06Z"/><path class="cls-1" d="M30.13,58.36s-1.48,3.26-3.21,4.11-3.56,3.82-3.56,3.82A12.31,12.31,0,0,1,26.52,64,6.28,6.28,0,0,0,30.13,58.36Z"/><path class="cls-1" d="M23.36,67.9s-.35,5.68-2.27,7.79a8.23,8.23,0,0,1-5.38,2.5s4.3.61,6.36-1.63C24,74.5,23.36,67.9,23.36,67.9Z"/><path class="cls-1" d="M15.32,77.2a7,7,0,0,1,3.4-2.31c2.13-.52-1.08-.57-1.08-.57s-.2-1.7.2-2.08a14.67,14.67,0,0,0,2.22-2.5c.05-.38-1.38-3.12-1.24-4.06s.79-2.55,1.68-2.88,4.26-2.46,4.15-3.12-2.34-5.27-2.17-7A5.76,5.76,0,0,1,29,47.36c3.6.47.89.71.89.71s-5.53-1-6.07,4.77c-.26,2.8,2.37,5.52,1.78,6.8s-5,3.91-5,3.91a2.81,2.81,0,0,0-.74,2.22,24.73,24.73,0,0,0,1,4.3,35.68,35.68,0,0,0-2.52,2.6,2.73,2.73,0,0,0,0,1.13s1.48-.14,1.58.28a1.15,1.15,0,0,1-.74,1.37C18.53,75.64,15.32,77.2,15.32,77.2Z"/><path class="cls-3" d="M30.86,48.54s5.29,2.17,6.23,4.16C36.81,50.85,31.83,47.05,30.86,48.54Z"/><path class="cls-1" d="M55.73,15s-1,3.5.89,4.63S58.69,22,58.69,22s-.2,6.11.59,6.32,4-.53,4-.53,1.09,2.34.89,3a12.78,12.78,0,0,0,0,2.84s-2.88,0-3.48.75S56,41,56,41a1.39,1.39,0,0,0,1.08,1.75c1.48.42,8.39,5.36,8.39,5.36s-.1,2.43,1.29,2.62,3.75-1.41,3.75-1.41-.59,2.07-1.68,2.26-3.65,1.23-4.54-2.93c-2.67-1.38-10.23-5.22-10.23-5.22a2.05,2.05,0,0,1,0-2.87C55.43,39,60,33.07,60,33.07s3.11-.09,3.21-.57a11.81,11.81,0,0,0-.59-2.63s-3.36.59-4,0-1.48-6.77-1.28-7.69-2.37-2.1-2.37-2.1S53.36,17,55.73,15Z"/><path class="cls-1" d="M66.79,50.72s-4.21,4.43-4.22,6a7,7,0,0,0,.61,3c.16.42,3,3.52,6.06,3.71s4.41.82,4.47,1.07,4.94,4.27,9.74,4.34c1.25.7.86,1.64.86,1.64l-1,8.63a11.79,11.79,0,0,0,4.54.38c2-.38-2.7-.58-2.83-1.2s.46-8.12.46-8.12,0-2.11-1.18-2.25S74.17,63.54,74,63a1.34,1.34,0,0,0-1.64-1c-1.06.16-7.19-1.35-7.71-2.86a4.51,4.51,0,0,1-.26-3.32C65,54.31,66.79,50.72,66.79,50.72Z"/><path class="cls-3" d="M90.69,78.84s0-10.77-.45-11.52-7.88-6.36-9.7-6.8-.54-1.7-.54-1.7-1.65-4.09-1.94-5.18c-.84-3.22,1.15,2,1.89,3.35s.8,2.39,1.62,2.77,9.58,5.45,9.85,7S90.69,78.84,90.69,78.84Z"/><path class="cls-3" d="M58.84,13.77c.26,0,3.75-.25,4.87.82C66,14.16,70,16.88,70,16.88s2.11-.15,2,.73-.72,2.33,0,2.33,2.84,1.9,2.65,2.87c-.84-.95-3.64-2.2-3.64-2.54s.4-2.16.07-2.35-1.45-.17-1.71-.3A24,24,0,0,0,66.08,16a7.81,7.81,0,0,0-3.29.19C62.74,14.08,58.84,13.77,58.84,13.77Z"/><path class="cls-3" d="M72.33,29.78s-1.19.12-.86,1.57a4.37,4.37,0,0,0,.86,2.14c.13.07,3.16.48,3.42,2s.85,4,1,4.74-.37,1.35-.83.53-.52-4.94-.92-5.27a16.16,16.16,0,0,0-4.21-1.15c-.46.07.26-.78.33-1.24s-.77-1.84-.48-2.53S72.33,29.78,72.33,29.78Z"/><path class="cls-3" d="M47.65,50.76a21.67,21.67,0,0,1,8.23,1.85,19.45,19.45,0,0,0,6.14,2A4.18,4.18,0,0,0,61.47,56c-.06.64-6.64-2.26-6.64-2.26S50.74,51.14,47.65,50.76Z"/><path class="cls-1" d="M55,38s-3.23-3.64-4.68-4.15c-.25,1.59-6,4.15-6,4.15a15.41,15.41,0,0,1-7.66,1.15,27,27,0,0,0,7.2-1.78s4.93-1.76,6.38-4.47c1.65,1,5.37,3.81,5.66,4.47C55.35,37.76,55,38,55,38Z"/><path class="cls-3" d="M36.75,38.84s.92-3.33,10.32-6.69c.17,0,.43.23.43.23S38.19,36.61,36.75,38.84Z"/><path class="cls-1" d="M48.41,31.37a21.26,21.26,0,0,1-2.22-1.83,42.08,42.08,0,0,1-13.74,5.14c2.1.18,10.16-1.74,13.44-3.89,1.32.44,1.61,1,1.61,1Z"/><path class="cls-3" d="M32.45,34.58s.81-3.23,9-6.48a.86.86,0,0,1,.38.22S33.71,32.42,32.45,34.58Z"/><path class="cls-1" d="M40.43,28.29a20.82,20.82,0,0,0-2.28-.19c-1,.91-4,3.13-7,3.13,2.11-.55,6-2.58,6.68-3.86.63.19,3.13.73,3.13.73Z"/><path class="cls-3" d="M30.93,30.44s.92-2.31,4.54-3.07C33.83,28.41,30.93,30.44,30.93,30.44Z"/><path class="cls-1" d="M35.24,27.18a5.85,5.85,0,0,1-3.17-4.36C33.15,24.4,35.24,27.18,35.24,27.18Z"/><path class="cls-3" d="M32.61,22.4s3.42,0,5.8,4.5A29.1,29.1,0,0,0,32.61,22.4Z"/><path class="cls-1" d="M35.9,18.93s-.53,3.28,5.79,9.27a1.06,1.06,0,0,0,.44-.07S36.21,21.38,35.9,18.93Z"/><path class="cls-3" d="M36,18.71s3.82.29,9,8.19l.31-.5S42,19.72,36,18.71Z"/><path class="cls-3" d="M50.39,18.63s-2.7,2.08-2.24,10.58a.91.91,0,0,0,.37.24S48.89,20.65,50.39,18.63Z"/><path class="cls-1" d="M50.64,18.71s2.62,2.67.93,11.88l.58-.18S54.35,23.29,50.64,18.71Z"/><path class="cls-3" d="M51.43,31.1s6,3.72,6.26,3.91a2,2,0,0,0,.52-.63S52.51,31,52.14,31A1.6,1.6,0,0,0,51.43,31.1Z"/><path class="cls-1" d="M74.2,23.57a6.25,6.25,0,0,1-1.48,1.08c-.54.19,0,4,0,4a5.46,5.46,0,0,0-.93,0c-.3,0-.3-3.95,0-4.34S74.2,23.57,74.2,23.57Z"/><path class="cls-3" d="M120.11,35.88c-.28-1.33-10.79-7.8-11.6-8.44-.42-.34-4.45-5.14-6.32-6.44a17,17,0,0,0-11-2.73c5.28.48,8.24,2.13,10.34,3.86,1.81,1.47,5.11,5.09,6.64,6.49s6.88,5,7.25,5.33a4.31,4.31,0,0,1,.94,1.48,10.06,10.06,0,0,0,2.17,1.49A4.71,4.71,0,0,1,120.11,35.88Z"/><path class="cls-3" d="M137.94,72.45a10,10,0,0,0-3.47-.92l-4.34-3.63s-.35-1-2.07-.66-13.26-2.29-19,1.25c-.6-5.8-6.33-8.52-9.63-9.57-.28-.09-1.79.37-.18,1.12a15.54,15.54,0,0,1,9.47,10.89s2.82-2.72,5.16-3.14c4.25-.77,13.8.35,14.14.33a1.88,1.88,0,0,1,1.53.51c.76.68,4.64,3.85,4.64,3.85a8.46,8.46,0,0,1,3.68.81,16.58,16.58,0,0,1,3.56,3.48,2.14,2.14,0,0,0,.36-.38S139.68,73.27,137.94,72.45Z"/><path class="cls-4" d="M53.55,124.85s-.95-1.76-.56-15.76-.39-19.59.63-21.74a3.06,3.06,0,0,1,4.72-1.25C60.71,88,64.41,97.6,65.1,96.69s.45-6.81.45-6.81-.25-4.78,2.65-4.79,3.66,3.38,3.19,4.79-1.09,6.68.16,5.84,4.39-6.55,5.38-8.47c1.09-2.12,6.35-2.93,6.6.1s-.25,25.12,0,26.25a89.48,89.48,0,0,1,.08,12.06c-.29,1.46-4.09,1.91-4.76,0s-.66-14.29-.5-15.67c.21-1.76.84-11.28-.13-12-.79-.6-5.89,9-5.89,9s-3.94,4.87-7.23,0-5.71-9.13-6.23-8.68.6,9.9.6,11.93.46,14.39-.24,14.63C59.23,124.85,55.59,129.57,53.55,124.85Z"/><path class="cls-4" d="M89.43,88.69s-.53,19-.63,21.3,0,13.68,0,13.68,1,3.5,3.75,3.27,3.25-3.4,3.25-3.4-.16-13,0-14.73,0-15.09,0-20.12C95.81,85.64,90,82.82,89.43,88.69Z"/><path class="cls-4" d="M103.78,85.64s15.55,2.8,14.85,10.08-9.06,10.14-9.06,10.14,9.34,2.81,9.08,8.22-13.3,14.45-15.67,12.63-2.78-5,0-5.87,9.75-3.6,9.55-5.41-4.84-4-9.54-5.86c-3-1.21-2.69-6.13.65-7,2.72-.74,8.66-3.74,9-6.42s-6.89-4.37-9.52-4.94C100.06,90.52,99.21,85.09,103.78,85.64Z"/></g></g></svg>