<?xml version="1.0" encoding="utf-8"?>
<!-- Generator: Adobe Illustrator 23.1.1, SVG Export Plug-In . SVG Version: 6.00 Build 0)  -->
<svg version="1.1" id="Layer_1" xmlns="http://www.w3.org/2000/svg" xmlns:xlink="http://www.w3.org/1999/xlink" x="0px" y="0px"
	 viewBox="0 0 100 100" style="enable-background:new 0 0 100 100;" xml:space="preserve">
<style type="text/css">
	.st0{fill:#BE875A;}
	.st1{fill:#FFFFFF;}
</style>
<g>
	<path class="st0" d="M89.1,17.7C85.8,14.1,81.4,9,72.8,5.4c-10.5-4.3-17.8-5-27-4C28.1,3.3,17.3,13.1,11.9,21.7
		C1.2,39-4.8,57.8,7.8,77.7c12.6,19.9,33.6,23.2,50.1,20.5c16.4-2.7,30.1-16.4,36-27.4c5.3-9.9,5.9-23.8,5-30.2
		C97.9,33.1,94.2,24.8,89.1,17.7z"/>
	<path class="st1" d="M60.8,43.3c-1.1,0-1.9-0.8-1.9-1.9l-0.3-21l-4.9,8.3c-0.3,0.6-1,0.9-1.7,1c0,0,0,0,0,0c-0.7,0-1.3-0.4-1.7-0.9
		l-4.9-8l-0.2,20.1c0,1.1-0.9,1.9-1.9,1.9c0,0,0,0,0,0c-1.1,0-1.9-0.9-1.9-2L41.7,14c0-0.9,0.6-1.6,1.4-1.8c0.8-0.2,1.7,0.1,2.2,0.9
		L51.9,24l6.7-11.5c0.4-0.7,1.3-1.1,2.2-0.9c0.8,0.2,1.4,1,1.4,1.8l0.4,27.9C62.7,42.4,61.9,43.3,60.8,43.3
		C60.8,43.3,60.8,43.3,60.8,43.3z"/>
	<path class="st1" d="M68.7,44.1C68.7,44.1,68.7,44.1,68.7,44.1c-1.3,0-2.3-1-2.3-2.3l0.1-27.6c0-1.2,1-2.3,2.3-2.3c0,0,0,0,0,0
		c1.2,0,2.3,1,2.3,2.3L71,41.9C71,43.1,70,44.1,68.7,44.1z"/>
	<path class="st1" d="M76,43.9c-0.7,0-1.5-0.4-1.8-1.2c-0.4-1,0-2.1,1-2.5c2.8-1.2,5.7-3,6.5-3.9c-0.5-0.7-2-1.8-3-2.5
		c-2.5-1.9-4.6-3.4-4.4-5.4c0.1-1.4,1.3-2.3,2.9-3.5c1.5-1.1,3.8-2.8,3.7-4.1c-0.3-0.8-2.9-2.9-6.1-4.6c-0.9-0.5-1.3-1.7-0.8-2.6
		c0.5-0.9,1.7-1.3,2.6-0.8c0.1,0,1.9,1,3.7,2.3c2.9,2,4.3,3.8,4.4,5.5c0.2,3.4-3,5.8-5.3,7.5c-0.3,0.2-0.7,0.5-1,0.8
		c0.6,0.6,1.7,1.4,2.5,2c2.6,1.9,4.8,3.6,4.7,5.8c-0.1,1.7-1.6,3.3-4.9,5.2c-2,1.2-4,2-4,2.1C76.6,43.9,76.3,43.9,76,43.9z M82,36.6
		L82,36.6L82,36.6z M78.2,28.2C78.2,28.2,78.2,28.2,78.2,28.2z M81.1,20.8L81.1,20.8L81.1,20.8z"/>
	<path class="st1" d="M52.1,27.9c-1.1,0-1.9-0.9-1.9-1.9l0-12.5c0-1.1,0.9-1.9,1.9-1.9c0,0,0,0,0,0c1.1,0,1.9,0.9,1.9,1.9l0,12.5
		C54,27,53.2,27.9,52.1,27.9C52.1,27.9,52.1,27.9,52.1,27.9z"/>
	<g>
		<path class="st1" d="M15.8,46.7c1.6-3-1.3-6.1-5.6-8.8C10.2,40.3,13.3,45.9,15.8,46.7z"/>
		<path class="st1" d="M2.8,43.4c-0.2,0.1-0.5,0.2-0.7,0.4c-0.3,1.2-0.5,2.3-0.7,3.5c2.4-1,4.9-2.2,5.4-2.7c-1-1.9-2.4-3.3-3.7-4.2
			c-0.3,0.8-0.5,1.6-0.7,2.4C2.5,43,2.7,43.2,2.8,43.4z"/>
		<path class="st1" d="M73.5,90c-0.6-0.5-1.7-1.3-2.5-1.8c-0.8-0.5-1.7-2.1-1.7-2.1s0.1-0.7,0.4-1.4c0.4-0.7-0.6-2-1.4-2.6
			c-0.8-0.5-3.5-0.3-5.2-1.1c-1.7-0.7-2.9-1.6-4-1.5c-1.4,0.2-2.1,1.5-4.6,1.7c0.9-2.3,0-6.2-1.1-8c3.3-0.6,9.7-3.8,10.7-5.2
			c1.4,0.1,5-0.6,5.9-1.4c0.8-0.7,0.2-2.3,0-2.7c0,0,0.5-2.5,0.3-3c-0.2-0.4-2.4-0.7-3.9-0.8c-0.3-0.2-3.6-3.4-4.6-4.7
			c-0.8-1.1-2.8-4.6-3.7-5.7c-0.8-1-3-1.5-3.6-1.8c-0.7-0.7-3.4-4.6-3.6-5.2c-0.4,0.2-1.3,1.1-1.4,1.7c-0.1,1,0.4,3.6,1.9,4.9
			c-0.3,0.3-0.9,1.1-1.2,1.8c-1.1-0.2-3.5-0.4-5.3,0.1c-2,0.6-4.8,3.2-5.9,4.7c-1,1.6-1.6,5.5-3,6.2c0.4-0.4,1.3-2.3,0.7-3
			c1.2-0.3,1.4-2.2,0.7-2.7c0.9,0,1.7-1,1.3-2c1.2,0.1,2.2-1.2,1.8-2.1c1.2,0.2,2.2-0.6,2.4-1.7c1.1,0.5,2.1-0.3,2.5-0.9
			c1,0.8,2.9-0.6,3.2-1.1c-0.5-0.4-2.5-1.8-3.5-0.3c-0.6-0.5-2.3-0.4-2.8,1.1c-1.2-0.5-2.8,0.5-2.5,2.1c-1-0.4-2.6,0.6-2.1,2
			c-1.2-0.3-2.6,0.8-1.7,2.4c-0.9,0-1.9,1.8-0.9,2.9c-1.3,0.7-1.8,2.2-1,4c-0.9,0.5-1.6,2.3-1.8,3.3c-0.6-1.8-1-4-0.8-5.5
			c0.2-1.3,0.5-3.8,0.5-4.8c0-1.1-0.4-3.9-1.3-4.5c-0.8-0.6-3.3-0.9-4.4-1.2c0,0-1.4-3.3-1.5-3.8c0.5-0.3,2.2-1.5,2.4-1.9
			c0.2-0.4-1.1-2.8-1.1-2.8s1.5-1.3,1.9-1.5c0.4-0.2-0.7-2.1-1.1-2.8c-0.4-0.7-2-2.6-2.9-3.1c0.2-0.4,0.5-1.1,0.5-1.7
			c-0.5,0-4,0.1-5.1,0.4c-1.3,0.4-2.7,1.3-3.3,2.1c0,0-1.4-0.8-2.1-1.8c-0.5,0-0.7,2.7-1.2,3.2c0.3,0.5,1.5,0.1,2.2,0.5
			c0.2,0.8,0.4,2.8,1.1,4.2c0.8,1.8,1.5,3.2,1.6,4.5c0.5,0.1,1.1,0.3,1.6,0.2c0.6,1.2,0.9,2.2,0.9,3.6c0,0-3.2-1.9-5.4-2.2
			c-1.9,0.3-8.7,3.1-9.9,5.9c3.6,0.7,9.4-2.1,10.3-4c1.3,0,4,3.4,4.1,4.3c-0.9,0.7-4.2,5.5-4.4,6.4c-0.2,0.9,0.5,1.4,2.1,2.4
			c1.6,1,4.9,1.7,6.6,1.8c0.4,0.6,0.9,2,1.6,2.9c-1.9,0.2-6.5,0.3-10.5-0.9c-3.1-1-6.4-3.8-10.4-4.1c-0.9-0.1-2,0-2.9,0.1
			c1,5,3,10.2,6.3,15.4c2.7,4.2,5.7,7.7,9,10.5c3,1.5,7.3,3.6,9.5,4.2c3.6,1,5.5,0.7,6.2,0c0,0,0.5,1.4,0.5,3c0,0.4,0,1,0,1.6
			c1.2,0.3,2.3,0.6,3.5,0.9c0.3-1.9,0.1-6.8,0.4-7.2c0,0,7.8,5.7,9,6.2c0.3,0,10.1-3.2,12.2-3.3c1.1,0.3,2.8,2.1,4.1,3.7
			c1.8-0.5,3.6-1.2,5.3-1.9c-1.4-1.1-3.9-2.8-4.8-3.5c-1.2-1-3.9-3.5-5.2-3.6c-0.8,0.2-5.6,1.9-6.8,2.4c0,0,0.1-2.3,0.5-3
			c2-0.2,6.6-2.3,7.3-3.1c0,0,3.9-0.4,5.8,0.7c0.5,1.4,2.9,4.7,3.7,5.1c0,0,0.5,1.7-0.4,2.8c0.2,0.4,0.9,0.9,1.7,1.3
			c1.6-0.8,3.1-1.6,4.6-2.6L74,91.6C74,91.6,74.1,90.5,73.5,90z M19.5,59.7c-0.5-0.7,1.6-1.9,2.2-2.3c0.1,1.2,1,3.3,1.5,3.9
			C22.2,61.2,20.3,60.9,19.5,59.7z M50.4,60.7c0.8,1.6,3.5,1.9,4.7,1.9c1.4,0,3.6-1,4.8-0.9c0.8,0.1,2.8,1.3,3.5,2
			c-0.2,0.6-0.3,2.2-0.1,3.2c-1.2,1.7-9,4.3-11,4.4C51.5,70,49.3,62.9,50.4,60.7z"/>
		<path class="st1" d="M8.9,45c-3.7,0.8-7.2,4-7.1,4.9c0.4,0,6.9-0.5,11.1-3.6c-2.1-4.2-5.4-8.1-9.1-8.7c0,0.1-0.1,0.1-0.1,0.2
			C4.6,39.6,7.3,43.8,8.9,45z"/>
	</g>
</g>
</svg>
