<?xml version="1.0" encoding="utf-8"?>
<!-- Generator: Adobe Illustrator 23.1.1, SVG Export Plug-In . SVG Version: 6.00 Build 0)  -->
<svg version="1.1" id="Layer_1" xmlns="http://www.w3.org/2000/svg" xmlns:xlink="http://www.w3.org/1999/xlink" x="0px" y="0px"
	 viewBox="0 0 100 100" style="enable-background:new 0 0 100 100;" xml:space="preserve">
<style type="text/css">
	.st0{fill:#B7996D;}
	.st1{fill:none;stroke:#FFFFFF;stroke-width:3.8768;stroke-linecap:round;stroke-linejoin:round;stroke-miterlimit:10;}
	.st2{fill:none;stroke:#FFFFFF;stroke-width:4.523;stroke-linecap:round;stroke-linejoin:round;stroke-miterlimit:10;}
	.st3{fill:#FFFFFF;}
</style>
<path class="st0" d="M89.1,17.5c-3.3-3.6-7.7-8.7-16.4-12.3c-10.5-4.3-17.8-5-27-4C28,3,17.1,12.8,11.7,21.5C1,38.8-5,57.6,7.7,77.6
	c12.6,19.9,33.7,23.2,50.2,20.6c16.5-2.7,30.1-16.4,36-27.4c5.3-10,5.9-23.8,5-30.2C97.9,32.9,94.2,24.6,89.1,17.5z"/>
<polyline class="st1" points="43.2,40.7 43.5,13.8 51.9,27.5 60.3,13.3 60.7,41.2 "/>
<line class="st2" x1="68.7" y1="14" x2="68.7" y2="41.7"/>
<path class="st1" d="M75.8,14.2c0,0,7,3.7,7.1,6.1c0.2,3.8-6.6,6.5-6.7,8c-0.1,2,7.7,5.6,7.5,7.9c-0.1,2.2-7.8,5.6-7.8,5.6"/>
<line class="st1" x1="52" y1="13.2" x2="52" y2="25.7"/>
<g>
	<path class="st3" d="M15.6,46.5c1.6-3-1.3-6.1-5.6-8.8C10,40.1,13.1,45.7,15.6,46.5z"/>
	<path class="st3" d="M2.6,43.2c-0.2,0.1-0.5,0.2-0.8,0.4c-0.3,1.2-0.5,2.3-0.7,3.5c2.4-1,4.9-2.3,5.4-2.7c-1-1.9-2.4-3.3-3.7-4.2
		c-0.3,0.8-0.5,1.6-0.7,2.4C2.3,42.8,2.5,43,2.6,43.2z"/>
	<path class="st3" d="M73.5,89.9c-0.6-0.5-1.7-1.3-2.5-1.8c-0.8-0.5-1.7-2.1-1.7-2.1s0.1-0.7,0.4-1.4c0.4-0.7-0.6-2-1.4-2.6
		c-0.8-0.5-3.5-0.3-5.2-1.1c-1.7-0.7-2.9-1.6-4-1.5c-1.4,0.2-2.1,1.5-4.6,1.7c0.9-2.3,0-6.2-1.1-8.1C56.6,72.6,63,69.4,64,68
		c1.4,0.1,5-0.6,5.9-1.4c0.8-0.7,0.2-2.3,0-2.7c0,0,0.5-2.5,0.3-3c-0.2-0.4-2.4-0.7-3.9-0.8c-0.3-0.2-3.6-3.4-4.6-4.8
		c-0.8-1.1-2.8-4.6-3.7-5.7c-0.8-1-3-1.5-3.6-1.8c-0.7-0.7-3.4-4.6-3.6-5.2c-0.4,0.2-1.3,1.1-1.4,1.7c-0.1,1,0.4,3.6,1.9,4.9
		c-0.3,0.3-0.9,1.1-1.2,1.8c-1.1-0.2-3.5-0.4-5.3,0.1c-2,0.6-4.9,3.2-5.9,4.7c-1,1.6-1.6,5.5-3,6.2c0.4-0.4,1.3-2.3,0.7-3
		c1.2-0.3,1.4-2.2,0.7-2.7c0.9,0,1.7-1,1.3-2c1.2,0.1,2.2-1.2,1.8-2.1c1.2,0.2,2.2-0.6,2.4-1.7c1.1,0.5,2.1-0.3,2.5-0.9
		c1,0.8,2.9-0.6,3.2-1.1c-0.5-0.4-2.5-1.8-3.5-0.3c-0.6-0.5-2.3-0.4-2.8,1.1c-1.2-0.5-2.8,0.5-2.5,2.1c-1-0.4-2.6,0.6-2.1,2
		c-1.2-0.3-2.6,0.8-1.7,2.5c-0.9,0-1.9,1.8-0.9,2.9c-1.3,0.7-1.8,2.2-1,4c-0.9,0.5-1.6,2.3-1.8,3.3c-0.6-1.8-1-4-0.8-5.5
		c0.2-1.3,0.5-3.8,0.5-4.8c0-1.1-0.4-3.9-1.3-4.5c-0.8-0.6-3.3-0.9-4.4-1.2c0,0-1.4-3.3-1.5-3.8c0.5-0.3,2.2-1.5,2.4-1.9
		c0.2-0.4-1.1-2.8-1.1-2.8s1.5-1.3,1.9-1.5c0.4-0.2-0.7-2.1-1.1-2.8c-0.4-0.7-2-2.6-2.9-3.1c0.2-0.4,0.5-1.1,0.5-1.7
		c-0.5,0-4,0.1-5.1,0.4c-1.3,0.4-2.7,1.3-3.3,2.1c0,0-1.4-0.8-2.1-1.8c-0.5,0-0.7,2.7-1.2,3.2c0.3,0.5,1.5,0.1,2.2,0.5
		c0.2,0.8,0.4,2.8,1.1,4.2c0.8,1.8,1.5,3.2,1.6,4.5c0.5,0.1,1.1,0.3,1.6,0.2c0.6,1.2,0.9,2.2,0.9,3.6c0,0-3.2-1.9-5.4-2.2
		c-1.9,0.3-8.7,3.1-9.9,5.9c3.6,0.7,9.4-2.1,10.3-4c1.3,0,4,3.4,4.1,4.3c-0.9,0.7-4.2,5.5-4.4,6.4c-0.2,0.9,0.5,1.4,2.1,2.4
		c1.6,1,4.9,1.7,6.6,1.8c0.4,0.6,0.9,2,1.6,2.9c-1.9,0.2-6.5,0.3-10.5-0.9c-3.1-1-6.4-3.8-10.4-4.1c-0.9-0.1-2,0-2.9,0.1
		c1,5.1,3,10.2,6.3,15.4c2.7,4.2,5.7,7.7,9.1,10.5c3,1.5,7.3,3.6,9.5,4.2c3.6,1,5.5,0.7,6.3,0c0,0,0.5,1.4,0.5,3c0,0.4,0,1,0,1.6
		c1.2,0.3,2.3,0.6,3.5,0.9c0.3-1.9,0.1-6.8,0.4-7.2c0,0,7.8,5.7,9.1,6.2c0.3,0,10.1-3.2,12.3-3.3c1.1,0.3,2.8,2.1,4.1,3.7
		c1.8-0.5,3.6-1.2,5.3-1.9c-1.5-1.1-3.9-2.8-4.8-3.5c-1.2-1-3.9-3.5-5.2-3.6c-0.8,0.2-5.6,1.9-6.8,2.4c0,0,0.1-2.3,0.5-3
		c2-0.3,6.6-2.3,7.3-3.1c0,0,3.9-0.4,5.8,0.7c0.5,1.4,2.9,4.7,3.7,5.1c0,0,0.5,1.7-0.4,2.8c0.2,0.4,0.9,0.9,1.7,1.3
		c1.6-0.8,3.1-1.6,4.6-2.6l-0.1-0.2C73.9,91.5,74.1,90.4,73.5,89.9z M19.4,59.6c-0.5-0.7,1.6-1.9,2.2-2.3c0.1,1.2,1,3.3,1.5,3.9
		C22.1,61,20.2,60.7,19.4,59.6z M50.3,60.5c0.8,1.7,3.5,1.9,4.7,1.9c1.4,0,3.7-1,4.8-0.9c0.8,0.1,2.9,1.3,3.5,2
		c-0.2,0.6-0.3,2.2-0.1,3.2c-1.2,1.7-9,4.4-11,4.4C51.4,69.8,49.2,62.8,50.3,60.5z"/>
	<path class="st3" d="M8.8,44.8c-3.7,0.8-7.2,4-7.1,4.9c0.4,0,6.9-0.5,11.1-3.6c-2.1-4.2-5.5-8.1-9.1-8.7c0,0.1-0.1,0.1-0.1,0.2
		C4.4,39.4,7.1,43.6,8.8,44.8z"/>
</g>
</svg>
