<?xml version="1.0" encoding="utf-8"?>
<!-- Generator: Adobe Illustrator 25.2.3, SVG Export Plug-In . SVG Version: 6.00 Build 0)  -->
<svg version="1.1" id="Capa_1" xmlns="http://www.w3.org/2000/svg" xmlns:xlink="http://www.w3.org/1999/xlink" x="0px" y="0px"
	 viewBox="0 0 1736 1504" style="enable-background:new 0 0 1736 1504;" xml:space="preserve">
<style type="text/css">
	.st0{fill:#FFFFFF;}
</style>
<g transform="translate(0.000000,1504.000000) scale(0.100000,-0.100000)">
	<path class="st0" d="M1211,14990c-297-63-508-289-541-578c-41-370,207-692,574-743c279-39,555,104,682,355c188,367,6,818-379,942
		C1456,14995,1291,15007,1211,14990z"/>
	<path class="st0" d="M3889,13300c-9-5-187-73-395-150c-209-78-388-150-398-160c-28-28-23-72,17-160c65-143,114-319,144-519
		c15-93,17-297,22-1659c6-1507,7-1554,25-1567c32-24,88-26,531-23c486,3,476,2,488,75c4,21,7,693,7,1494v1455l68,55
		c257,210,460,292,685,276c186-13,305-99,368-266c55-146,52-81,58-1624c6-1385,7-1429,25-1442c32-24,88-26,538-23l437,3l23,23l23,23
		v1562c0,1451-1,1570-18,1675c-51,321-130,503-287,663c-89,90-160,138-272,183c-271,108-720,106-1035-5c-205-73-451-222-631-384
		c-35-31-53-42-56-33c-2,7-21,67-41,133c-61,199-138,346-200,385C3981,13311,3917,13316,3889,13300z"/>
	<path class="st0" d="M9275,13270c-851-51-1447-575-1666-1465c-110-450-115-1040-12-1505c144-654,516-1102,1063-1284
		c452-150,1046-121,1480,73c139,62,209,103,275,163c59,54,79,93,72,140c-3,18-56,163-120,322c-113,287-134,326-176,326
		c-10,0-60-27-112-61c-259-167-449-227-689-216c-207,10-337,59-463,177c-163,153-261,410-298,785c-15,150-14,563,0,710
		c50,494,192,789,443,920c108,57,201,77,358,77c218,1,351-47,601-215c133-90,170-105,207-84c13,7,84,124,184,302
		c145,261,162,296,166,347c4,56,4,57-44,108c-161,172-502,320-839,364C9558,13273,9420,13278,9275,13270z"/>
	<path class="st0" d="M112,13118c-38-19-44-68-40-399c3-306,3-309,26-331c22-23,23-23,377-26l355-3l2-1617c2-1279,6-1622,16-1639
		c7-12,29-27,50-33c50-14,874-14,924,0c21,6,42,19,48,30c7,12,10,683,10,2000v1981l-25,24l-24,25l-848-1
		C394,13129,128,13125,112,13118z"/>
	<path class="st0" d="M13429,10857c-24-13-57-43-74-66c-27-39-30-50-30-121s3-82,30-122c78-111,253-120,340-17c36,44,47,74,47,139
		c1,60-23,119-64,157C13618,10884,13505,10897,13429,10857z"/>
	<path class="st0" d="M14310,10301c-143-54-140-49-98-156c23-59,23-65,28-587c3-357,8-531,16-538c7-7,64-10,165-8l154,3l3,472l2,471
		l32,27c56,47,126,77,185,77c65,1,98-20,128-78c19-37,20-64,25-504l5-465h160h160v530c0,478-2,536-18,587c-25,82-71,137-142,173
		c-56,28-67,30-175,30c-140,0-190-15-302-91c-88-60-76-64-109,29c-17,49-44,77-72,76C14445,10349,14379,10327,14310,10301z"/>
	<path class="st0" d="M12455,10325c-169-38-292-138-370-300c-65-135-92-317-74-502c27-294,163-478,394-538c76-19,240-19,323,0
		c119,28,212,84,212,128c0,40-72,207-90,207c-8,0-47-16-84-36c-123-66-256-57-325,21c-66,76-99,256-81,443c16,168,58,254,143,297
		c88,43,171,33,278-36c45-30,67-39,78-32c24,15,114,181,114,210c0,32-34,62-110,98C12753,10338,12586,10354,12455,10325z"/>
	<path class="st0" d="M13148,10289c-15-8-18-25-18-109c0-54,3-105,6-114c5-13,25-16,120-16h114v-508c0-382,3-511,12-520
		c17-17,299-17,316,0c9,9,12,164,12,635c0,605-1,623-19,633C13665,10303,13171,10303,13148,10289z"/>
	<path class="st0" d="M11492,9302c2-4,37-68,78-142s111-214,156-310c551-1178,710-2492,453-3754c-170-835-547-1675-1057-2354
		C10210,1525,8886,729,7395,501c-461-71-1027-80-1505-25c-1085,125-2154,588-3015,1304c-353,293-685,644-963,1017
		c-59,78-108,140-110,138c-6-6,65-125,176-295C2919,1200,4478,229,6160,36c322-37,760-48,1065-26c591,43,1212,187,1730,400
		c83,34,168,68,190,77l40,15l159-66c524-219,1092-360,1686-418c207-20,862-17,1060,5c722,81,1346,259,1955,557
		c1015,497,1875,1306,2455,2310c105,182,277,538,358,740c577,1440,573,3035-10,4495c-127,318-351,743-551,1048
		c-97,148-127,170-54,40c314-553,560-1251,671-1903c57-339,76-544,83-915c10-574-45-1059-183-1591c-536-2074-2139-3684-4174-4194
		c-441-110-803-158-1270-167c-488-9-884,30-1340,132c-181,41-450,115-450,124c0,3,55,38,122,76c636,367,1238,903,1693,1510
		c1067,1422,1438,3224,1025,4980c-129,549-358,1122-650,1625c-92,158-262,420-273,420C11492,9310,11490,9307,11492,9302z"/>
	<path class="st0" d="M8113,8317c-23-7-47-17-53-23c-8-8-10-162-8-520c3-549,3-551,57-598c37-33,202-35,246-3c15,12,16,18,4,56
		c-7,24-18,45-23,47c-6,2-29-2-51-10s-48-11-60-6c-41,15-44,50-44,573c-1,391-4,497-13,496C8161,8328,8136,8323,8113,8317z"/>
	<path class="st0" d="M5368,8304c-35-19-48-43-48-91c0-50,22-80,69-94c68-20,131,27,131,97c0,40-27,81-61,93
		C5418,8323,5401,8322,5368,8304z"/>
	<path class="st0" d="M54,8256c-3-7-4-33-2-57l3-44l78-3l77-3v-434v-434l-77-3l-78-3v-55v-55h230h230v55v55l-82,3l-83,3v434v434
		l83,3l82,3v55v55l-228,3C99,8270,59,8268,54,8256z"/>
	<path class="st0" d="M1535,8186l-40-12l-3-116l-3-117l-67-3l-67-3v-50v-50l68-3l67-3v-278c0-270,1-279,23-321c32-60,73-80,166-80
		c83,0,182,24,205,49c13,14,13,23,4,55c-7,21-18,40-25,43c-6,3-37-5-68-16c-74-28-117-27-152,3l-28,24l-4,261l-3,260l118,3l119,3
		l13,39c21,64,18,66-123,66h-125v130C1610,8215,1613,8210,1535,8186z"/>
	<path class="st0" d="M4875,8188c-53-19-55-23-55-139v-109h-65h-65v-55v-55h64h65l3-277c3-255,5-281,23-317c11-22,33-49,48-60
		c56-41,256-30,321,17c15,11,17,21,12,48c-12,64-17,66-93,41c-83-27-123-28-154-3c-24,19-24,19-27,285l-3,266h115h115l12,39
		c20,68,15,71-121,71h-120v130c0,128,0,130-22,129C4915,8199,4892,8194,4875,8188z"/>
	<path class="st0" d="M698,7934c-51-26-55-33-35-67c9-16,13-116,17-362l5-340l63-3l62-3v294v294l55,41c36,26,74,45,109,52
		c59,12,90,5,121-30c19-21,20-38,23-337l3-314l62,3l62,3v335c0,319-1,337-21,375c-54,105-228,115-369,21l-53-35l-7,27
		c-7,31-32,72-43,72C748,7959,724,7948,698,7934z"/>
	<path class="st0" d="M2165,7943c-148-51-238-256-207-474c28-196,138-313,306-326c97-8,267,41,282,81c6,16-32,96-45,96
		c-5,0-34-11-66-25c-107-48-191-45-251,7c-45,40-71,91-82,162l-9,56h240h240l-6,98c-9,159-62,263-161,314
		C2350,7961,2233,7966,2165,7943z M2366,7807c18-19,40-59,48-88c29-95,39-89-150-89h-167l6,45c7,65,45,134,87,157c26,14,49,18,89,15
		C2326,7844,2338,7838,2366,7807z"/>
	<path class="st0" d="M2752,7930l-41-29l22-48c21-45,22-65,27-368l5-320h60h60l5,277l5,277l40,41c54,56,88,73,134,65
		c36-6,37-5,59,40c12,25,22,52,22,61c0,30-90,45-145,24c-14-5-50-33-80-61l-53-50l-6,28c-9,40-43,93-59,93
		C2799,7960,2775,7947,2752,7930z"/>
	<path class="st0" d="M3293,7934c-45-27-51-42-30-77c9-16,13-115,17-357l5-335l63-3l62-3v295v296l48,35c94,70,193,79,236,21
		c20-26,21-42,24-337l3-310l62,3l62,3v330c0,321-1,331-22,375c-28,57-69,81-147,87c-78,7-155-15-224-60l-49-34l-21,49
		c-11,26-26,48-34,48C3341,7959,3316,7948,3293,7934z"/>
	<path class="st0" d="M4203,7950c-60-11-160-47-169-61s27-99,42-99c7,0,36,9,64,20c76,30,151,36,202,16c54-20,69-44,75-118l6-58h-54
		c-129-1-263-50-318-117c-83-100-64-286,35-353c29-19,53-26,108-28c90-5,143,9,199,52l44,34l21-44c25-50,38-53,93-22
		c44,25,46,30,22,84c-14,32-18,83-23,299c-6,278-8,292-62,342C4436,7946,4312,7969,4203,7950z M4420,7444c0-92-1-97-27-118
		c-106-86-206-88-248-6c-29,56-10,131,43,168c37,27,122,50,185,51l47,1V7444z"/>
	<path class="st0" d="M5915,7951c-87-24-152-76-192-154c-50-100-66-258-39-388c25-119,75-193,160-237c44-23,63-26,141-27
		c79,0,97,3,147,28c105,51,159,143,180,303c19,140-16,306-81,384c-48,59-123,93-211,96C5979,7958,5932,7955,5915,7951z M6047,7839
		c98-37,149-185,125-364c-15-115-45-173-102-202c-55-28-92-29-144-3c-54,26-83,71-101,156c-40,187,3,361,98,405
		C5971,7852,6006,7855,6047,7839z"/>
	<path class="st0" d="M6555,7943c-61-32-65-40-47-81c15-32,17-85,20-370l3-333l62,3l62,3l3,289c3,324-2,305,80,353
		c85,50,176,50,205,0c8-16,13-111,17-332l5-310l63-3l63-3l-3,343c-3,322-4,345-23,377c-37,64-65,76-168,76c-96-1-126-11-224-76
		c-31-20-33-20-33-2c0,21-36,83-47,83C6588,7959,6572,7952,6555,7943z"/>
	<path class="st0" d="M7447,7950c-64-11-145-41-159-58c-13-15,9-91,28-99c7-3,38,5,69,16c114,43,218,35,256-19c9-14,20-50,24-81
		l6-56l-83-6c-163-12-271-66-320-161c-16-31-21-60-22-116c0-147,72-220,217-220c77,0,117,12,177,55l46,32l16-39c9-21,24-41,34-45
		c19-7,104,36,104,53c0,6-10,33-22,60c-20,45-22,69-25,289c-5,302-16,338-114,379C7634,7953,7510,7961,7447,7950z M7670,7446
		c0-93,0-94-31-121c-49-41-104-65-150-65c-33,0-47,6-75,34c-30,30-34,40-34,84c0,99,88,158,238,161l52,1V7446z"/>
	<path class="st0" d="M5220,7885v-55h70h70l2-332l3-333l59-3c41-2,62,1,67,10c10,15,12,728,3,752c-5,14-27,16-140,16h-134V7885z"/>
	<path class="st0" d="M3013,6486c-39-18-53-43-53-94s30-89,76-98c99-18,164,93,97,165C3099,6495,3056,6504,3013,6486z"/>
	<path class="st0" d="M6444,6490c-62-25-84-115-40-163c65-70,176-30,176,63c0,50-22,85-62,99C6482,6502,6473,6502,6444,6490z"/>
	<path class="st0" d="M162,6442c-10-7-12-124-10-553l3-544h60h60l3,420l2,419l181-389c100-215,187-405,195-423l15-33l67,3l67,3
		l3,544c2,429,0,546-10,553c-7,4-30,8-50,8c-73,0-68,32-69-414c0-220-3-394-6-386c-32,81-368,778-380,788
		C274,6451,182,6454,162,6442z"/>
	<path class="st0" d="M5940,6366c-60-19-60-19-60-136v-109l-62-3l-63-3l-3-52l-3-53h65h66v-244c0-325,10-374,89-420
		c61-35,261-17,310,29c16,16,6,94-15,102c-7,2-38-5-69-16c-60-23-115-27-145-11c-34,18-40,65-40,316v243l117,3l117,3l13,44
		c10,36,10,47,0,53c-6,4-65,8-129,8h-118v130C6010,6395,6013,6390,5940,6366z"/>
	<path class="st0" d="M1068,6123c-36-10-49-20-54-38c-3-13-4-158-2-322c3-281,5-300,25-338c11-22,30-48,41-58c73-66,263-59,355,13
		c34,27,39,26,62-17c11-21,27-39,36-41c8-1,34,11,57,28l42,30l-22,43c-22,41-23,51-26,380c-2,185-5,337-8,337c-17,0-101-25-111-33
		c-10-7-13-79-13-297c0-326,7-299-90-344c-72-34-139-35-175-3c-37,32-45,102-45,415c0,203-3,262-12,261
		C1121,6138,1094,6131,1068,6123z"/>
	<path class="st0" d="M1854,6119c-56-30-59-35-43-66c11-22,15-101,19-368l5-340l63-3l62-3v310v311l43,27c57,36,142,44,177,15l25-20
		l5-319l5-318l62-3l63-3l2,313l3,313l50,27c40,22,61,28,104,26c46-3,57-7,75-31c20-27,21-42,24-338l3-309h59c55,0,60,2,66,25
		c3,14,4,163,2,332c-4,290-5,311-25,356c-45,98-167,114-311,41l-73-37l-22,26c-62,75-199,74-314-3l-42-29l-11,34
		C1913,6137,1900,6143,1854,6119z"/>
	<path class="st0" d="M3494,6126c-98-32-154-108-154-209c0-112,36-154,210-242c137-71,164-110,125-184c-34-67-126-75-253-24
		c-35,14-68,21-72,17c-19-21-37-81-29-97c18-31,136-62,239-62c83,0,102,3,145,26c70,35,107,92,113,169c10,132-19,170-190,256
		c-132,66-158,91-158,149c0,80,71,117,174,90c32-8,66-20,76-25c10-6,21-10,24-10c12,0,46,65,46,87C3790,6115,3585,6156,3494,6126z"
		/>
	<path class="st0" d="M4035,6117c-35-20-40-27-36-52c2-17,6-185,10-375l6-345l63-3l62-3v310v311l53,30c43,25,61,30,106,28
		c46-3,57-7,75-31c20-27,21-41,24-338l3-309h59h60v310v310l53,30c55,31,129,40,167,20c35-19,40-64,40-372v-299l63,3l62,3v335
		c0,315-1,337-20,374c-27,54-61,76-126,83c-67,7-144-14-209-55l-45-28l-35,37c-27,29-46,39-84,44c-65,10-140-8-209-49l-56-34l-6,28
		c-3,15-14,35-23,43C4076,6138,4071,6137,4035,6117z"/>
	<path class="st0" d="M5278,6128c-76-9-158-38-172-61s10-97,32-97c9,0,42,10,72,21c70,27,172,30,216,7c36-20,54-61,54-123v-42l-77-6
		c-93-7-194-37-245-72c-78-53-117-178-89-283c15-54,71-117,119-133c85-28,207-6,279,51c33,26,40,25,47-3c3-12,15-33,26-45l21-23
		l40,23c61,34,63,41,37,90c-21,41-23,57-28,303c-6,285-8,296-69,348C5488,6127,5397,6143,5278,6128z M5480,5621v-99l-32-24
		c-54-41-97-59-140-60c-52-1-89,27-107,79c-13,36-13,45,3,86c26,70,115,114,234,116l42,1V5621z"/>
	<path class="st0" d="M6985,6131c-95-25-179-102-215-199c-32-86-44-204-31-302c28-213,145-321,331-308c70,5,176,45,206,79
		c19,21,14,72-10,105c-14,18-16,18-43,1c-75-49-134-69-183-65c-67,7-97,30-128,96c-35,76-43,238-17,328c47,165,160,198,322,93l32-20
		l26,42c37,57,25,81-59,120C7148,6133,7043,6147,6985,6131z"/>
	<path class="st0" d="M2860,6065v-55h70h70l2-332l3-333l63-3l62-3v391v390h-135h-135V6065z"/>
	<path class="st0" d="M6287,6114c-4-4-7-29-7-56v-48h75h75v-335v-336l63,3l62,3v385v385l-131,3C6353,6119,6291,6117,6287,6114z"/>
	<path class="st0" d="M4370,4667l-35-12v-510c0-554,1-563,55-609c36-30,106-40,180-26c75,14,85,26,69,80c-14,46-10,45-99,24
		c-35-7-59,14-70,61c-5,22-10,257-10,523v482l-27-1C4417,4679,4389,4674,4370,4667z"/>
	<path class="st0" d="M3929,4641c-66-66-15-171,82-171c79,0,120,116,63,174C4035,4682,3969,4681,3929,4641z"/>
	<path class="st0" d="M314,4617c-93-45-153-128-191-267c-26-94-26-446,0-540c59-220,177-319,366-308c62,4,88,11,139,38
		c56,30,102,70,102,90c0,4-15,24-34,46l-33,38l-34-25c-140-107-252-91-319,44c-47,97-63,209-57,407c7,242,42,336,139,375
		c61,24,113,13,195-41l68-45l32,38c18,21,33,44,33,51c0,20-47,59-109,89c-47,24-71,28-151,31C377,4640,359,4638,314,4617z"/>
	<path class="st0" d="M1081,4310c-156-33-251-185-251-405c0-182,64-320,175-378c58-30,175-35,252-11c149,46,237,227,218,448
		c-14,171-72,276-180,326C1246,4313,1142,4322,1081,4310z M1199,4200c73-21,116-89,133-210c21-147-17-303-85-354
		c-41-30-140-30-184,2c-64,45-99,167-90,312c7,105,28,167,71,209C1091,4205,1139,4218,1199,4200z"/>
	<path class="st0" d="M1726,4304c-27-7-53-19-57-26c-13-20-11-568,2-628c23-106,102-156,237-148c67,4,89,10,146,41
		c75,42,76,42,76,23s39-66,54-66c7,0,32,14,55,30l42,31l-23,37c-23,36-23,44-28,377l-5,340l-30-3c-16-2-45-10-62-17l-33-14v-290
		v-290l-33-25c-75-57-186-73-231-33c-39,33-46,97-46,398c0,147-3,270-7,272C1778,4315,1753,4311,1726,4304z"/>
	<path class="st0" d="M2774,4309c-23-5-70-27-105-49l-64-38l-19,44c-22,52-43,56-99,19c-42-29-41-25-24-62c8-20,13-126,17-363l5-335
		l63-3l62-3v289v290l37,32c81,72,187,92,240,46l28-24l3-316l3-316h65h65l-3,338c-3,332-3,338-26,378c-13,22-37,48-53,58
		C2934,4314,2830,4323,2774,4309z"/>
	<path class="st0" d="M3477,4310c-118-30-199-117-238-255c-20-72-18-265,4-336c25-83,73-146,137-183c51-29,62-31,150-31
		c89,0,100,2,165,35c38,19,73,42,79,51c11,19-19,109-36,109c-5,0-28-13-51-28c-122-83-232-67-287,43c-21,43-25,67-28,166
		c-3,87,0,131,12,172c45,155,180,191,315,86c13-11,27-19,32-19c4,0,20,21,35,46l27,45l-29,30C3711,4296,3564,4332,3477,4310z"/>
	<path class="st0" d="M3807,4294c-4-4-7-29-7-56v-48h75h75v-335v-335h65h65l-2,388l-3,387l-131,3C3873,4299,3811,4297,3807,4294z"/>
</g>
</svg>
