<?xml version="1.0" encoding="utf-8"?>
<!-- Generator: Adobe Illustrator 23.1.1, SVG Export Plug-In . SVG Version: 6.00 Build 0)  -->
<svg version="1.1" id="Layer_1" xmlns="http://www.w3.org/2000/svg" xmlns:xlink="http://www.w3.org/1999/xlink" x="0px" y="0px"
	 viewBox="0 0 1274.5 100" style="enable-background:new 0 0 1274.5 100;" xml:space="preserve">
<style type="text/css">
	.st0{fill:#B7996D;}
	.st1{fill:#FFFFFF;}
</style>
<g>
	<g>
		<path class="st0" d="M94.1,49.2c0,24.4-20.6,44.5-45,44.5s-45-20.1-45-44.5c0-24.4,20.5-44.5,45-44.5
			C73.5,4.7,94.1,24.8,94.1,49.2z M9.7,49.2c0,21.4,17.8,39.3,39.4,39.3c21.5,0,39.4-18.1,39.4-39.3c0-21.4-17.9-39.3-39.4-39.3
			C27.5,9.9,9.7,27.8,9.7,49.2z"/>
		<path class="st1" d="M190.4,95.4L117.6,18v74.5h-5.5V4.7l72.8,76.8V5.8h5.5V95.4z"/>
		<path class="st1" d="M219.2,87.4h22.1v5.2h-27.6V5.8h5.5V87.4z"/>
		<path class="st1" d="M261.4,92.6h-5.5V5.8h5.5V92.6z"/>
		<path class="st1" d="M362.9,95.4L290.1,18v74.5h-5.5V4.7l72.8,76.8V5.8h5.5V95.4z"/>
		<path class="st1" d="M391.7,11v31.5h35v5.2h-35v39.7h35.9v5.2h-41.4V5.8h41.4V11H391.7z"/>
		<path class="st0" d="M558.2,23.6c-6.7-8.2-18.4-13.7-29.1-13.7c-21.6,0-39.4,18.6-39.4,39.9c0,10.1,4.4,19.7,11.6,26.8
			c7.2,6.9,17.6,12,27.8,12c10,0,22.7-5.4,29.1-13.2v7.6c-8.2,6.8-18.2,10.8-28.9,10.8c-24.2,0-45.2-20.1-45.2-44.4
			c0-24.6,20.7-44.6,45.3-44.6c10.5,0,21,4.1,28.8,11.3V23.6z"/>
		<path class="st1" d="M584.4,11v31.5h35v5.2h-35v39.7h35.9v5.2h-41.4V5.8h41.4V11H584.4z"/>
		<path class="st1" d="M647.3,87.4h22.1v5.2h-27.6V5.8h5.5V87.4z"/>
		<path class="st1" d="M699.9,92.6h-5.5V11h-22.4V5.8h50.4V11h-22.4V92.6z"/>
		<path class="st1" d="M742.4,92.6h-5.5V5.8h5.5V92.6z"/>
		<path class="st1" d="M834.5,23.6c-6.7-8.2-18.4-13.7-29.1-13.7c-21.6,0-39.4,18.6-39.4,39.9c0,10.1,4.4,19.7,11.6,26.8
			c7.2,6.9,17.6,12,27.8,12c10,0,22.7-5.4,29.1-13.2v7.6c-8.2,6.8-18.2,10.8-28.9,10.8c-24.2,0-45.2-20.1-45.2-44.4
			c0-24.6,20.7-44.6,45.3-44.6c10.5,0,21,4.1,28.8,11.3V23.6z"/>
		<path class="st0" d="M964.4,23.6c-6.7-8.2-18.4-13.7-29.1-13.7c-21.6,0-39.4,18.6-39.4,39.9c0,10.1,4.4,19.7,11.6,26.8
			c7.2,6.9,17.6,12,27.8,12c10,0,22.7-5.4,29.1-13.2v7.6c-8.2,6.8-18.2,10.8-28.9,10.8c-24.2,0-45.2-20.1-45.2-44.4
			c0-24.6,20.7-44.6,45.3-44.6c10.5,0,21,4.1,28.8,11.3V23.6z"/>
		<path class="st1" d="M1069.8,49.2c0,24.4-20.6,44.5-45,44.5s-45-20.1-45-44.5c0-24.4,20.5-44.5,45-44.5
			C1049.3,4.7,1069.8,24.8,1069.8,49.2z M985.4,49.2c0,21.4,17.8,39.3,39.4,39.3c21.5,0,39.4-18.1,39.4-39.3
			c0-21.4-17.9-39.3-39.4-39.3C1003.3,9.9,985.4,27.8,985.4,49.2z"/>
		<path class="st1" d="M1093.4,92.6h-5.5V5.8h5.5V92.6z"/>
		<path class="st1" d="M1195,95.4L1122.2,18v74.5h-5.5V4.7l72.8,76.8V5.8h5.5V95.4z"/>
		<path class="st1" d="M1258.3,20.1c-3.9-6.2-9.4-10.2-17.6-10.2c-9.3,0-16.3,7.5-16.3,16.6c0,9.1,8.6,12.9,15.6,16.2l16.6,8.6
			c6.6,4.1,9.9,9.4,9.9,17.3c0,14.4-13.1,25.2-27.1,25.2c-12.1,0-21.5-7.5-25.5-18.6l4.8-2.2c3.7,9.2,10.5,15.6,20.9,15.6
			c11.4,0,21.4-9,21.4-20.5c0-9.8-10-13.9-17.5-17.6l-15.6-8.3c-5.8-3.6-9-8.6-9-15.5c0-12.9,9.2-22,22.2-22c8.7,0,17,4.7,21.2,12.2
			L1258.3,20.1z"/>
	</g>
</g>
</svg>
