<?xml version="1.0" encoding="utf-8"?>
<!-- Generator: Adobe Illustrator 23.1.1, SVG Export Plug-In . SVG Version: 6.00 Build 0)  -->
<svg version="1.1" id="Layer_1" xmlns="http://www.w3.org/2000/svg" xmlns:xlink="http://www.w3.org/1999/xlink" x="0px" y="0px"
	 viewBox="0 0 983.4 196.9" style="enable-background:new 0 0 983.4 196.9;" xml:space="preserve">
<style type="text/css">
	.st0{fill:#FFFFFF;}
	.st1{fill-rule:evenodd;clip-rule:evenodd;fill:#FFFFFF;}
	.st2{fill:#FFFFFF;stroke:#FFFFFF;stroke-width:0.5525;stroke-miterlimit:1.3278;}
	.st3{fill:#93979A;}
	.st4{fill:#93979A;stroke:#93979A;stroke-width:0.2578;stroke-miterlimit:1.3278;}
	.st5{fill:#93979A;stroke:#93979A;stroke-width:0.1228;stroke-miterlimit:1.3278;}
</style>
<g id="Guides_For_Artboard">
</g>
<g id="Greifdings">
	<path id="path88" class="st0" d="M295.1,54.7c0,0,2.2-1.6,2.8-3.6c0,0,0.6-0.1,0.6,0.6C298.4,52.5,298.7,53.3,295.1,54.7
		 M284.7,70.5c0,0,4.3-1.1,6-2.1c0,0,0.4,0.6,0.3,1.3c-0.2,0.7,0.2,2.3-6.8,4C284.1,73.8,285.5,72,284.7,70.5 M277.4,92.2
		c0,0,1.7-1.1,1.7-3.2c0,0,3.7,0.2,4.8-0.8c0,0,0.4,0,0.4,0.9c0,0.7-1,3.2-5.5,3.2C278.4,92.2,277.9,92.2,277.4,92.2 M283.1,79.6
		c0,0,4.3-0.2,5.5-1.5c0,0,0.3,0.2,0.3,0.9c0,0.8-0.7,2.6-6.8,3.7C282.2,82.7,283.6,82.4,283.1,79.6 M290.2,78.4c0,0,8.9-2.4,12-5
		c0,0,0.5,0,0.4,0.5c-0.1,0.5-2.3,5.1-14.7,8.3C287.8,82.3,290,81,290.2,78.4 M291.2,74.5c0,0,10.4-3.3,13.7-8.4
		c0,0,0.5-0.3,0.5,1.1c0,1.4-2.7,7.5-15.5,10.5C289.9,77.6,291.9,75.6,291.2,74.5 M284.5,74.7c0,0,3-0.3,5-1.6c0,0,0.5,0.4,0.4,1.3
		c-0.1,0.8-1.1,3.1-6.6,3.8C283.3,78.2,285.4,77.2,284.5,74.7 M290.5,72.5c-0.5,0,2.3-0.5,1.4-4c0,0,9.7-2.5,13.9-8.3
		c0,0,0.6,0.2,0.6,1.4c0,1.2-4.1,7.9-15.1,11.8C291.4,73.3,291.1,72.5,290.5,72.5 M306.7,55.1c0,0,1,5.7-15.2,12.3
		c0,0,1.3-2.7-0.1-4.1c0,0,10.4-2.8,14.6-9.8C306,53.5,306.7,53.9,306.7,55.1 M283.6,63.7c-0.5,0,1.6-0.2,1.9-4.2
		c0,0,14.3-3.5,19.3-11.7c0,0,0.7-0.3,0.9,0.9c0,0,0.9,2.9-2.8,6.3c-3.6,3.5-9.3,7.6-18.3,9.4C284.6,64.4,284.1,63.7,283.6,63.7
		 M297.2,46.6c-5.4,6.5-14.7,9.8-14.7,9.8c-0.3-0.7-0.9-0.1-0.9-0.1c-6.2,5.1-17,6.1-17,6.1c-4.1,0.5-3.2,4.2-3.2,4.2
		c3.1,11-2.3,16.2-4.1,17.6c-0.7-0.8-0.2-6.4-0.2-6.4c1.3-9.8-2.4-11.5-2.4-11.5c-1.7-1.2-1.3-1.7-1.3-1.7c3.2-0.8,1.7-4.1,1.7-4.1
		c-1.9-0.8-3.9,1.7-4.1,1.8c-0.2,0.1-0.2-0.1-0.2-0.1c0.6-2.1-0.5-1.2-0.5-1.2s-1.1,0.4-3.9,0.2c-2.8-0.2-2.1-0.6-3.5-0.6
		c-1.4,0-1.2,1.2-1.2,1.2s0.3-0.1,0.3,0.3c0,0.3-0.2,0.3-0.2,0.3c-6-0.3-6.1,2.1-6.4,3.2c-0.3,1.2,0.2,2.5,0.4,2
		c0.2-0.5,1-1.9,2.4-1.3c1.4,0.7,3.5,2.3,3.5,2.6c0,0.3-0.3,0.6-0.3,0.6c-4.7,2.1-4.9-0.1-4.9-0.1c-0.2,5.7,4.4,1.7,5.5,2.3
		c1.1,0.6,3.4,0.8,4.5,0.8c1.1,0.1,3.6-0.5,3.8-0.9c0.3-0.4,0.7,0.1,0.7,0.1c-2.7,3.5-7.6,0.7-6.6,1.6c1,0.9,0.4,3.7,0.4,3.7
		c-7.7,13.9-3.1,18-3.7,21.7c-0.7,3.7,1.7,8.5,1.7,8.5c-2.3,5.7-3.5,9.1-4.5,12.7c-1,3.5-3.2,7.6-3.2,7.6c-0.4,1.2-1.7,1.2-1.7,1.2
		c-3.5-0.9-4.1,1.1-4.1,1.1l0,0.1c-1.6,0-1.8,0.7-1.8,1.4c-1.4,0-1.3-0.4-1.3-0.4s0.3-1.5-0.7-1.9c-1-0.4-0.1-1.4-0.1-1.4
		s15.7-21.1,3.4-25.7c-3.1-1.2-2.9-1.3-2.9-1.3c-1.8-11.1,1-10.3,1-10.3s-2.4-0.7-3.8-0.7c-1.4,0.1-3.4,0.7-3.4,0.7s2.9-0.8,1,10.3
		c0,0,0.1,0.2-2.9,1.3c-12.3,4.6,3.4,25.7,3.4,25.7s1,1,0,1.4c-1,0.4-0.7,1.9-0.7,1.9s0.2,0.5-1.5,0.5c0,0-0.4-0.2-0.4,0.8
		c0,0.9,0.3,1,0.4,1h8.7c0,0,0.1,0,0.2-0.2c0.1,0,0.1,0.1,0.2,0.1c0.1,0-0.5-2.2,1.4-2.3c0.7,0.5,0.2-0.1-0.1,1.2c0,1.1,1,1.1,1.7,1
		c-0.7-2.1,1.3-1.8,1.3-1.8c-0.3,1.8,0,1.5,0.5,1.8c0.5,0.3,3.3-0.2,3.2-0.9c-0.1-0.7,0.8-1.2,1.3-1.2c0.6,0,1.1-0.7,1.1-0.7
		s7.3-15.6,15.7-20.2c0,0-0.7-4.3,2.1-5.3c0,0-1.5,2.6-0.5,4.8c0,0,6,1.2,10.2-1.7c0,0,16.7-11.1,22-4.8c0,0,0.5,11.8,12.5,16.1
		c0,0,11.2,3.9,5.7,10.5c0,0-3.3-0.7-2.5,1.2c0,0-2.3-0.6-2.4,1.1c-0.1,0.5-0.2,2.2,1.3,2c0,0-0.9-1.9,0.9-1.7c0,0-0.8,1.3,1.3,1.8
		c0.1,0-1.9-1.9,1.5-2.1c0,0-2.2,1.1,0.2,2c0,0,2.1-0.5,4.1,0c0,0,2.3-0.2,1.1-7.4c0,0-1-2,0-7.5c0,0,0.8-2.1-1.4-2.5
		c0,0-5.2,0.4-8.4-8c0,0,3.6-8.6-0.7-15c0,0,8.7-2.5,11.1,16.8c0,0,1.2,15.5,6.9,17.8c0,0,2.2,3.9,8.3,1.3c0,0,2.1-0.5,1.6-1.2
		c-0.7-0.9-2.1-0.9-2.1-0.9s-4.1-2.6-7.3-1.6c0,0-3.6-0.8-4.7-17.4c0,0-1.4-22.9-19.2-19.2c0,0-2.3-1.1-4.8-1.1c0,0-0.5-0.5-2.6-1
		c0,0,11.9-3.9,11.5-8.4c0,0-6.3,3.8-12.2,5c0,0,0.8,2.7-2.5,4.3c0,0,1.8,6.9-8.8,5.1c0,0-0.6,0.5-1.7,0.5c0,0,1.5,6.8-9,2.8
		c0,0,8.6,2.3,7.9-2.7c0,0-5.9,0.2-5.3-1.7c0,0,9.6,2.9,9.8-3c0,0-6.6,0.5-6.6-1.6c0,0,9.2,2.5,9.2-3.5c0,0-6.8,1.7-7.5-0.9
		c0,0,9.6,2.2,8.7-3.8c0,0-7.6,2-7.5-0.3c0,0,10.1,0.8,8.2-4.1c0,0-6.5,2.7-7.3,0.7c0,0,10.6-0.7,7.3-5c0,0-6.2,2.8-6.9,0.9
		c0,0,10.2-1.1,7-6.5c0,0-6.4,3.7-7.3,1.9c0,0,10.2-2.4,7.8-6.9c0,0-5,3.5-15.8,4.5c0,0-3.7,0.3-2.9,2.9c2.2,6.9,0.2,16-6.1,18.8
		c-6.3,2.8-5.9,5.5-5.9,5.5s0.2,2.7-0.5-0.7c-0.6-2.9,3.7-5.6,4.8-6.2c1.3-0.5,5.2-2.4,6.6-9.1c0.6-3.7-0.7-9-0.7-9
		c-0.5-2.4,1.7-2.6,1.7-2.6c16.2-2.2,19.6-6,19.6-6c0.5-0.2,1,0.9,1,0.9c4.5-1.1,8.1-3.2,8.1-3.2C300.2,47.7,297.2,46.6,297.2,46.6
		L297.2,46.6L297.2,46.6z M253.5,61.7c0.1,0,0.2,0,0.3,0c0.1,0,0.2,0,0.3,0c0,0,1,1.7-1.5,2.3l-0.2-0.3l0.1,0c0,0,0.1,0,0.1,0
		l0.2-0.1c0.1,0,0.2-0.1,0.2-0.1c0,0,0.2-0.1,0.3-0.2c0,0,0.1-0.1,0.1-0.2l0.1-0.1c0-0.1,0.1-0.1,0.1-0.2l0-0.1c0-0.1,0-0.2,0-0.3
		c0,0,0-0.1-0.1-0.2c0,0,0,0-0.1,0c0,0-0.1,0-0.1,0c-0.1,0-0.2,0.1-0.3,0.1c-0.1,0-0.2,0.1-0.3,0.2l-0.1,0.1
		c-0.1,0.1-0.1,0.1-0.2,0.2c-0.1,0.1-0.2,0.2-0.4,0.4l-0.2-0.1C251.7,63.1,252.2,61.8,253.5,61.7L253.5,61.7z M243.8,62
		c1,0,1.8,0.5,1.8,0.5s1,0.7,1.9,0.4c0,0-0.7,1-1.7,0.6l-0.1-0.1c0,0.1,0.1,0.2,0.1,0.4c0,0.5-0.4,0.9-1,0.9c-0.6,0-1-0.4-1-0.9
		c0-0.4,0.3-0.8,0.7-0.9c-0.3-0.1-0.6-0.2-0.8-0.2c-0.7,0-0.7,0.4-0.7,0.4S242.8,62,243.8,62z M244.9,63.4c-0.2,0-0.4,0.2-0.4,0.4
		c0,0.2,0.2,0.4,0.4,0.4c0.2,0,0.4-0.2,0.4-0.4C245.3,63.6,245.1,63.4,244.9,63.4z M222.3,85.1c-0.7,0.1-0.9,1-0.9,1
		c-0.4-0.6-0.8,0-0.8,0s-1.7,1.5-1,2.9c0.7,1.4,2.3,0.6,2.3,0.6s-1.1-0.6-0.7-1.9c0.4-1.3,1.4-0.5,1.4-0.5s-0.8,0-0.6,1.1
		c0.1,0.9,1.1,1,1.6,1c0.1,0.1-1.6-1.6,1-2c-0.5,0.1-0.4,0.9-0.4,0.9c0.6,2,1.5,1.4,1.5,1.4s-0.6-1.1,1.5-0.7c2.1,0.4,1.1,1.4,6.2,9
		c5,7.5,8,8.1,8,8.1c-2-6-1.2-5.8-1.2-8.1c0-2.3-0.8-3.6-0.8-3.6s-4.8-3.7-5.2-4.9c-0.4-1.1-4.1-4.6-4.9-4.4
		c-0.9,0.2-4.6,0.3-4.6,0.3S223,85,222.3,85.1z M283.7,102.3c-0.3,0-2.8,0.2-2.8,0.5c-0.1,0.3,0.6,1,0.6,1
		c-0.3,5.2,2.9,11.3,2.9,11.3c0.1,0.1,1,1,1,3.2c0,2.4-7.6,11-7.6,11c-4.5-1.2-4.1,1.2-4.1,1.2c-1.3,0.5-2.3,1-1.9,2.2
		c0.3,1.2,2,0.6,2,0.6c-0.6-1.4,1.2-2,1.2-2c0.2-0.4,2.4,0,0.9,0.2c-1.5,0.2-1.3,1.7-1.1,1.9c0.1,0.1,0.4,0.1,0.8,0.1
		c0.5,0,1.3-0.1,2.1-0.1c1.3-0.1,2.7,0,2.7,0c6.3-10.4,11.2-11.7,12.2-12.3c0.9-0.6,0.3-1.4,0.3-1.4c-1-1.9-0.6-4.9-0.6-4.9
		c-4.3-2.8-4.8-10.9-4.8-10.9C285.3,102,283.9,102.3,283.7,102.3z M279.9,88.2c0,0,2.3-0.5,2.1-4.4c0.1,0.1,0.7,0.1,4.5-0.9
		c0,0,0.4-0.2,0.4,1.1c0.1,1.2-2.5,4.2-6.3,4.2C280.4,88.2,280.1,88.2,279.9,88.2 M281.9,83.8C281.9,83.8,281.9,83.8,281.9,83.8
		C281.9,83.8,281.9,83.8,281.9,83.8 M283.9,69c0.3-0.4,1.3-1.7,0.9-3.6c0,0,4.5-1.2,5.8-1.8c0,0,0.6,0.2,0.4,1.6
		c-0.2,1.5-0.8,2.7-6.3,4C284.6,69.3,284.2,69,283.9,69 M283.8,69.1C283.9,69.1,283.9,69,283.8,69.1
		C283.9,69.1,283.8,69.1,283.8,69.1C283.8,69.1,283.8,69.1,283.8,69.1"/>
	<path id="path228" class="st0" d="M275.4,173.3c0,1.4-1.2,2.6-2.6,2.6s-2.6-1.2-2.6-2.6c0-1.5,1.2-2.6,2.6-2.6
		S275.4,171.8,275.4,173.3 M296.9,163.8l6.4,6.4l-2.3-6.2c-0.2-0.6-0.4-0.9-0.6-1c-0.2-0.1-0.5-0.1-0.9,0l-0.3,0.1l-0.1-0.2l3.2-1.2
		l0.1,0.2l-0.3,0.1c-0.4,0.1-0.6,0.4-0.7,0.7c0,0.2,0,0.5,0.2,1.1l2.2,6c0.2,0.4,0.3,0.7,0.5,0.8c0.1,0.1,0.3,0.2,0.5,0.2
		c0.2,0,0.5,0,0.9-0.2l0.1,0.2l-2.6,1l-6-6l-0.6,8.4l-2.6,1l-0.1-0.2l0.3-0.1c0.4-0.1,0.6-0.4,0.7-0.7c0-0.2,0-0.5-0.2-1.1l-2.2-6
		c-0.2-0.6-0.4-0.9-0.6-1c-0.2-0.1-0.5-0.1-0.9,0l-0.3,0.1l-0.1-0.2l3.9-1.4l0.1,0.2l-0.3,0.1c-0.4,0.1-0.6,0.4-0.7,0.7
		c0,0.2,0,0.5,0.2,1l2.3,6.2l0.7-9.1L296.9,163.8L296.9,163.8L296.9,163.8z M312.1,167.1l0.1,0.2l-2.9,1.8l-0.1-0.2l0.3-0.2
		c0.3-0.2,0.5-0.5,0.5-0.9c0-0.2-0.1-0.5-0.4-1l-2.1-3.4c-0.5-0.8-0.8-1.5-0.9-2.1c-0.1-0.6,0-1.2,0.3-1.8c0.3-0.6,0.9-1.2,1.7-1.7
		c0.9-0.6,1.7-0.8,2.4-0.8c0.7,0,1.3,0.3,1.8,0.7c0.4,0.3,0.8,0.9,1.5,1.9l2,3.3c0.3,0.5,0.6,0.8,0.8,0.9c0.2,0.1,0.5,0,0.8-0.2
		l0.3-0.2l0.1,0.2l-3.6,2.2l-0.1-0.2l0.3-0.2c0.3-0.2,0.5-0.5,0.5-0.8c0-0.2-0.1-0.6-0.4-1l-2.2-3.6c-0.2-0.3-0.5-0.7-0.8-1.1
		c-0.3-0.4-0.6-0.6-0.9-0.8c-0.3-0.1-0.6-0.2-1-0.2c-0.4,0-0.8,0.2-1.2,0.4c-0.6,0.3-1,0.8-1.3,1.3c-0.3,0.5-0.4,1-0.3,1.5
		c0.1,0.5,0.4,1.1,0.9,2l2.1,3.4c0.3,0.5,0.6,0.8,0.8,0.9c0.3,0.1,0.6,0,0.9-0.2L312.1,167.1L312.1,167.1z M322,161.1l-2.4-2.4
		l0.2-0.1c0.9,0.6,1.7,0.8,2.4,0.8c0.7,0,1.4-0.3,1.9-0.8c0.5-0.4,0.8-0.9,1-1.5c0.2-0.6,0.1-1.3-0.1-2c-0.3-0.7-0.7-1.5-1.4-2.3
		c-0.6-0.7-1.2-1.2-1.8-1.5c-0.6-0.3-1.3-0.4-2-0.3c-0.7,0.1-1.3,0.4-1.8,0.9c-0.5,0.4-0.8,0.9-1,1.4c-0.2,0.5-0.2,1.3-0.1,2.3
		l-0.3,0c-0.2-1-0.2-1.8,0-2.6c0.2-0.7,0.7-1.4,1.4-2c1.2-1.1,2.6-1.4,4-1.1c1.1,0.2,2,0.8,2.8,1.7c0.6,0.7,1.1,1.6,1.3,2.5
		c0.2,0.9,0.2,1.8-0.1,2.6c-0.3,0.8-0.8,1.6-1.5,2.2c-0.5,0.5-1.2,0.8-1.9,1c-0.2,0.1-0.4,0.1-0.4,0.2c-0.1,0.1-0.2,0.2-0.2,0.3
		c0,0.2,0,0.4,0.2,0.6L322,161.1L322,161.1L322,161.1z M323.8,146.1l-0.2-0.2l2.8-3.2l0.2,0.2l-0.2,0.3c-0.3,0.3-0.4,0.6-0.3,0.9
		c0,0.2,0.3,0.5,0.7,0.9l4.8,4.2c0.4,0.3,0.6,0.5,0.8,0.6c0.1,0,0.3,0,0.4,0c0.2-0.1,0.4-0.2,0.6-0.4l0.2-0.3l0.2,0.2l-2.8,3.2
		l-0.2-0.2l0.2-0.3c0.3-0.3,0.4-0.6,0.3-0.9c0-0.2-0.3-0.5-0.7-0.9l-4.8-4.2c-0.4-0.3-0.6-0.5-0.8-0.6c-0.1,0-0.3,0-0.4,0
		c-0.2,0.1-0.4,0.2-0.6,0.4L323.8,146.1C323.8,146.1,323.8,146.1,323.8,146.1z M216.5,141.4l0.2-0.2l2.7,3.2l-0.2,0.2l-0.2-0.3
		c-0.3-0.3-0.5-0.5-0.8-0.5c-0.2,0-0.5,0.2-1,0.6l-4.9,4c-0.4,0.3-0.6,0.6-0.7,0.7c-0.1,0.1-0.1,0.3-0.1,0.4c0,0.2,0.1,0.4,0.3,0.6
		l0.2,0.3l-0.2,0.2l-2.7-3.2l0.2-0.2l0.2,0.3c0.3,0.3,0.5,0.5,0.8,0.4c0.2,0,0.5-0.2,1-0.6l4.9-4c0.4-0.3,0.6-0.6,0.7-0.7
		c0.1-0.1,0.1-0.3,0-0.4c0-0.2-0.1-0.4-0.3-0.6C216.8,141.7,216.5,141.4,216.5,141.4z M214.5,153.7l1.5-1.7l0.2,0.2
		c-0.2,0.3-0.4,0.6-0.4,0.8c-0.1,0.3-0.1,0.6,0,0.9c0.1,0.3,0.3,0.5,0.6,0.8l1,0.9l5.1-5.5c0.4-0.4,0.6-0.8,0.6-1
		c0-0.3-0.1-0.5-0.4-0.8l-0.3-0.2l0.2-0.2l3.1,2.9l-0.2,0.2l-0.3-0.2c-0.3-0.3-0.6-0.4-0.9-0.3c-0.2,0-0.5,0.3-0.8,0.7l-5.1,5.5
		l0.9,0.8c0.3,0.3,0.6,0.5,0.8,0.6c0.2,0.1,0.5,0.1,0.8,0.1c0.3-0.1,0.6-0.3,1-0.6l0.2,0.2l-1.6,1.6L214.5,153.7
		C214.5,153.7,214.5,153.7,214.5,153.7z M224.4,162.7l1.9-2.8l0.2,0.1c-0.3,0.6-0.5,1.1-0.5,1.5c0,0.4,0.1,0.9,0.3,1.3
		c0.2,0.4,0.5,0.8,0.9,1c0.4,0.3,0.8,0.4,1.3,0.3c0.4-0.1,0.8-0.3,1-0.6c0.2-0.2,0.2-0.5,0.2-0.8c0-0.5-0.4-1.3-0.9-2.4
		c-0.5-0.9-0.8-1.6-0.9-2c-0.1-0.4-0.2-0.8-0.1-1.2c0.1-0.4,0.2-0.8,0.4-1.1c0.4-0.6,1-1,1.8-1.1c0.8-0.1,1.5,0.1,2.3,0.6
		c0.2,0.2,0.4,0.3,0.6,0.5c0.1,0.1,0.3,0.4,0.6,0.8c0.3,0.4,0.5,0.6,0.6,0.7c0.1,0.1,0.2,0.1,0.3,0.1c0.1,0,0.2-0.1,0.4-0.3l0.2,0.1
		l-1.9,2.8l-0.2-0.1c0.3-0.7,0.5-1.2,0.5-1.6c0-0.4-0.1-0.8-0.3-1.3c-0.2-0.4-0.6-0.8-1-1.1c-0.5-0.3-1-0.5-1.5-0.4
		c-0.5,0.1-0.8,0.3-1.1,0.6c-0.1,0.2-0.2,0.4-0.3,0.7c0,0.3,0,0.6,0.1,0.9c0.1,0.2,0.3,0.8,0.8,1.6c0.4,0.9,0.7,1.5,0.8,1.9
		c0.1,0.4,0.2,0.8,0.1,1.2c0,0.4-0.2,0.7-0.4,1.1c-0.4,0.6-1,0.9-1.7,1c-0.7,0.1-1.4-0.1-2.1-0.5c-0.4-0.3-0.8-0.7-1.2-1.3
		c-0.2-0.3-0.3-0.4-0.4-0.5c-0.1-0.1-0.2-0.1-0.3-0.1c-0.1,0-0.2,0.1-0.4,0.3C224.6,162.8,224.4,162.7,224.4,162.7z M242.9,172.8
		l-2.4-1.1l-2.3-9.3l-2.4,5.1c-0.3,0.5-0.4,0.9-0.3,1.1c0.1,0.3,0.3,0.5,0.6,0.6l0.3,0.1l-0.1,0.2l-3.1-1.5l0.1-0.2l0.3,0.1
		c0.4,0.2,0.7,0.2,1,0c0.2-0.1,0.4-0.4,0.6-0.9l3.5-7.5l0.2,0.1l2.5,9.9l2.6-5.5c0.3-0.5,0.4-0.9,0.3-1.1c-0.1-0.3-0.3-0.5-0.6-0.6
		l-0.3-0.1l0.1-0.2l3.1,1.5l-0.1,0.2l-0.3-0.1c-0.4-0.2-0.7-0.2-1,0c-0.2,0.1-0.4,0.4-0.6,0.9l-2.9,6.2c0.1,0.4,0.2,0.7,0.3,0.9
		c0.1,0.2,0.2,0.3,0.5,0.5c0.1,0.1,0.3,0.2,0.5,0.3L242.9,172.8L242.9,172.8L242.9,172.8z M249,164.7l0.1-0.3l4,1.3l-0.1,0.3
		l-0.3-0.1c-0.4-0.1-0.7-0.1-0.9,0.1c-0.2,0.1-0.3,0.5-0.5,1l-1.9,6c-0.2,0.5-0.2,0.8-0.2,1c0,0.1,0.1,0.3,0.2,0.4
		c0.2,0.2,0.4,0.3,0.6,0.4l0.3,0.1l-0.1,0.3l-4-1.3l0.1-0.3l0.3,0.1c0.4,0.1,0.7,0.1,0.9-0.1c0.2-0.1,0.3-0.5,0.5-1l1.9-6
		c0.2-0.5,0.2-0.8,0.2-1c0-0.1-0.1-0.3-0.2-0.4c-0.2-0.2-0.4-0.3-0.6-0.4L249,164.7L249,164.7z M322.2,35.3l-1.8,2.8l-0.2-0.1
		c0.3-1,0.4-1.8,0.2-2.5c-0.2-0.7-0.6-1.3-1.2-1.7c-0.5-0.4-1.1-0.6-1.7-0.6c-0.6,0-1.3,0.1-1.9,0.6c-0.7,0.4-1.3,1.1-1.9,1.9
		c-0.5,0.7-0.9,1.4-1,2.1c-0.1,0.7-0.1,1.4,0.2,2c0.3,0.6,0.7,1.1,1.3,1.6c0.5,0.4,1.1,0.6,1.6,0.6c0.6,0.1,1.3-0.1,2.3-0.4l0.1,0.2
		c-0.9,0.4-1.8,0.6-2.5,0.6c-0.8-0.1-1.5-0.3-2.3-0.9c-1.3-1-2-2.2-2-3.7c0-1.1,0.3-2.2,1-3.2c0.6-0.8,1.3-1.4,2.1-1.8
		s1.7-0.6,2.6-0.5c0.9,0.1,1.7,0.4,2.4,0.9c0.6,0.4,1,1,1.4,1.7c0.1,0.2,0.2,0.3,0.3,0.4c0.1,0.1,0.2,0.1,0.4,0.1
		c0.2,0,0.4-0.1,0.5-0.3C322,35.2,322.2,35.3,322.2,35.3z M307.2,37l-0.1,0.2l-3.7-2l0.1-0.2l0.3,0.2c0.4,0.2,0.7,0.2,0.9,0.1
		c0.2-0.1,0.4-0.4,0.7-0.9l3-5.6c0.2-0.4,0.4-0.7,0.4-0.9c0-0.1,0-0.3-0.1-0.4c-0.1-0.2-0.3-0.4-0.5-0.5l-0.3-0.2l0.1-0.2l3.7,2
		l-0.1,0.2l-0.3-0.2c-0.3-0.2-0.7-0.2-0.9-0.1c-0.2,0.1-0.4,0.4-0.7,0.9l-3,5.6c-0.2,0.4-0.4,0.7-0.4,0.9c0,0.1,0,0.3,0.1,0.4
		c0.1,0.2,0.3,0.4,0.5,0.5C306.9,36.8,307.2,37,307.2,37z M303.4,24.2l-0.8,3l-0.2-0.1c0-0.8-0.1-1.5-0.3-2c-0.4-0.7-1-1.3-1.8-1.6
		c-1.2-0.4-2.2-0.3-3.2,0.4c-0.8,0.6-1.4,1.4-1.8,2.5c-0.3,0.9-0.4,1.7-0.4,2.6c0.1,0.8,0.3,1.5,0.8,2.1c0.4,0.5,0.9,0.9,1.5,1.1
		c0.3,0.1,0.7,0.2,1,0.2c0.3,0,0.7,0,1.1,0l1-2.7c0.2-0.5,0.2-0.8,0.2-0.9c0-0.2-0.1-0.3-0.2-0.4c-0.1-0.1-0.4-0.3-0.7-0.4l0.1-0.2
		l3.6,1.3l-0.1,0.2l-0.2-0.1c-0.4-0.1-0.6-0.1-0.9,0.1c-0.2,0.1-0.3,0.5-0.5,0.9l-1,2.8c-0.6,0.1-1.2,0.1-1.8,0.1
		c-0.6-0.1-1.1-0.2-1.8-0.4c-1.8-0.7-2.9-1.7-3.4-3.2c-0.4-1.1-0.4-2.2,0.1-3.3c0.3-0.8,0.8-1.5,1.4-2.1c0.8-0.7,1.7-1.2,2.7-1.3
		c0.8-0.1,1.7-0.1,2.6,0.3c0.3,0.1,0.6,0.3,0.9,0.4c0.3,0.2,0.6,0.4,1,0.8c0.2,0.2,0.4,0.3,0.5,0.3c0.1,0,0.2,0,0.3,0
		c0.1-0.1,0.2-0.2,0.3-0.4L303.4,24.2C303.4,24.2,303.4,24.2,303.4,24.2z M276.8,25.3l0.2,0.1l-0.9,2.7l-7.6-0.1l0-0.3l0.4,0
		c0.4,0,0.7-0.1,0.9-0.4c0.1-0.2,0.2-0.5,0.2-1.1l0.1-6.3c0-0.6-0.1-1-0.2-1.2c-0.2-0.2-0.5-0.3-0.8-0.3l-0.4,0l0-0.3l4.4,0l0,0.3
		c-0.5,0-0.9,0-1.1,0.1c-0.2,0.1-0.4,0.2-0.4,0.4c-0.1,0.2-0.1,0.5-0.1,1.1l-0.1,6.2c0,0.4,0,0.7,0.1,0.8c0.1,0.1,0.1,0.2,0.3,0.2
		c0.1,0,0.5,0.1,1.1,0.1l0.7,0c0.8,0,1.3,0,1.6-0.2c0.3-0.1,0.6-0.3,0.8-0.6C276.3,26.3,276.5,25.9,276.8,25.3 M245.6,23.3l1.2,3.7
		l2.1-0.7c0.5-0.2,0.9-0.4,1-0.6c0.2-0.3,0.2-0.7,0-1.2l0.2-0.1l1.1,3.2l-0.2,0.1c-0.2-0.4-0.4-0.7-0.5-0.8
		c-0.1-0.1-0.3-0.2-0.5-0.2c-0.2,0-0.5,0-0.9,0.2l-2.1,0.7l1,3.1c0.1,0.4,0.2,0.7,0.3,0.7c0.1,0.1,0.2,0.1,0.3,0.1
		c0.1,0,0.3,0,0.5-0.1l1.6-0.5c0.5-0.2,0.9-0.3,1.1-0.5c0.2-0.2,0.4-0.4,0.5-0.7c0.2-0.4,0.3-0.9,0.4-1.6l0.3-0.1l0,2.6l-7.2,2.4
		l-0.1-0.2l0.3-0.1c0.2-0.1,0.4-0.2,0.6-0.4c0.1-0.1,0.2-0.3,0.2-0.4c0-0.2-0.1-0.5-0.2-0.9l-2-6c-0.2-0.6-0.4-0.9-0.5-1
		c-0.2-0.1-0.5-0.1-0.9,0l-0.3,0.1l-0.1-0.2l7.2-2.4l0.8,2l-0.3,0.1c-0.3-0.5-0.5-0.8-0.7-0.9c-0.2-0.1-0.4-0.2-0.7-0.3
		c-0.2,0-0.5,0.1-1,0.2L245.6,23.3C245.6,23.3,245.6,23.3,245.6,23.3z M223.7,40.3l3.6-2.8l-1.7-2.2c-0.3-0.4-0.5-0.6-0.7-0.7
		c-0.1-0.1-0.3-0.1-0.4-0.1c-0.2,0-0.4,0.1-0.6,0.3l-0.3,0.2l-0.2-0.2l3.3-2.6l0.2,0.2l-0.3,0.2c-0.2,0.1-0.3,0.3-0.4,0.5
		c-0.1,0.2-0.1,0.3,0,0.5c0.1,0.2,0.2,0.4,0.5,0.8l3.9,5c0.3,0.4,0.5,0.6,0.7,0.7c0.1,0.1,0.3,0.1,0.4,0.1c0.2,0,0.4-0.1,0.6-0.3
		l0.3-0.2l0.2,0.2l-3.3,2.6l-0.2-0.2l0.3-0.2c0.3-0.2,0.5-0.5,0.5-0.8c0-0.2-0.2-0.5-0.6-1l-1.9-2.4l-3.6,2.8l1.9,2.4
		c0.3,0.4,0.5,0.6,0.7,0.7c0.1,0.1,0.3,0.1,0.4,0.1c0.2,0,0.4-0.1,0.6-0.3l0.3-0.2l0.2,0.2l-3.3,2.6l-0.2-0.2l0.3-0.2
		c0.3-0.2,0.5-0.5,0.5-0.8c0-0.2-0.2-0.5-0.6-1l-3.9-5c-0.3-0.4-0.5-0.6-0.7-0.7c-0.1-0.1-0.3-0.1-0.4-0.1c-0.2,0-0.4,0.1-0.6,0.3
		l-0.3,0.2l-0.2-0.2l3.3-2.6l0.2,0.2l-0.3,0.2c-0.2,0.1-0.3,0.3-0.4,0.5c-0.1,0.2-0.1,0.3,0,0.5c0.1,0.2,0.2,0.4,0.5,0.8L223.7,40.3
		C223.7,40.3,223.7,40.3,223.7,40.3z M286.2,19.2c1.3,0.2,2.3,0.9,3,2s1,2.4,0.7,3.8c-0.3,1.5-0.9,2.6-2,3.4
		c-1.1,0.8-2.3,1.1-3.6,0.9c-1.3-0.2-2.4-0.9-3.1-2c-0.7-1.1-1-2.4-0.7-3.9c0.3-1.5,1-2.7,2.2-3.5C283.8,19.2,285,18.9,286.2,19.2
		 M286,19.6c-0.9-0.2-1.6,0-2.2,0.6c-0.8,0.7-1.3,1.8-1.6,3.3c-0.3,1.6-0.2,2.9,0.4,3.8c0.4,0.7,1,1.2,1.9,1.3
		c0.9,0.2,1.7-0.1,2.4-0.7c0.7-0.6,1.2-1.7,1.5-3.2c0.3-1.7,0.2-3-0.3-3.9C287.6,20.3,286.9,19.8,286,19.6 M259.7,18.9
		c1.3-0.2,2.4,0.1,3.5,0.9c1.1,0.8,1.7,1.9,1.9,3.4c0.2,1.5,0,2.8-0.8,3.9c-0.8,1.1-1.8,1.8-3.1,2c-1.3,0.2-2.5-0.1-3.6-0.9
		c-1.1-0.8-1.7-2-1.9-3.5c-0.2-1.5,0.1-2.9,1-4C257.4,19.7,258.4,19.1,259.7,18.9 M259.6,19.4c-0.9,0.1-1.5,0.6-1.9,1.3
		c-0.5,0.9-0.7,2.1-0.4,3.7c0.3,1.6,0.8,2.8,1.6,3.5c0.6,0.6,1.4,0.8,2.2,0.6c0.9-0.1,1.6-0.6,2.1-1.4c0.5-0.8,0.6-2,0.4-3.5
		c-0.3-1.7-0.8-2.9-1.6-3.6C261.3,19.5,260.6,19.3,259.6,19.4 M238.9,32.6l-3.4,1.8l0.1,1.7c0,0.4,0.1,0.7,0.2,0.9
		c0.1,0.1,0.2,0.2,0.4,0.2c0.2,0,0.5,0,0.9-0.2l0.1,0.2l-2.7,1.4l-0.1-0.2c0.3-0.3,0.5-0.5,0.6-0.6c0.1-0.3,0.1-0.9,0.1-1.6
		l-0.7-8.8l0.2-0.1l6.8,5.6c0.6,0.5,1,0.7,1.3,0.8c0.3,0.1,0.6,0,1-0.1l0.1,0.2l-3.4,1.8l-0.1-0.2c0.3-0.2,0.5-0.4,0.6-0.5
		c0.1-0.2,0.1-0.3,0-0.5c-0.1-0.2-0.3-0.4-0.7-0.8L238.9,32.6L238.9,32.6L238.9,32.6z M238.5,32.3l-3.3-2.7l0.3,4.3L238.5,32.3z
		 M215.2,41.5l2.6,2.1l-0.1,0.2c-0.9-0.5-1.8-0.6-2.5-0.5c-0.7,0.1-1.3,0.5-1.8,1c-0.4,0.5-0.7,1-0.8,1.6c-0.1,0.6,0,1.3,0.3,2
		c0.3,0.7,0.9,1.4,1.7,2.1c0.7,0.6,1.3,1,2,1.2c0.7,0.2,1.3,0.2,2,0c0.6-0.2,1.2-0.6,1.7-1.1c0.4-0.5,0.7-1,0.8-1.5
		c0.1-0.5,0.1-1.3-0.1-2.3l0.3-0.1c0.3,1,0.4,1.8,0.3,2.6c-0.1,0.8-0.5,1.5-1.1,2.1c-1.1,1.2-2.4,1.7-3.9,1.6
		c-1.1-0.1-2.1-0.6-3-1.4c-0.7-0.7-1.3-1.4-1.6-2.3c-0.3-0.9-0.4-1.8-0.2-2.6c0.2-0.9,0.6-1.7,1.2-2.3c0.5-0.5,1.1-0.9,1.8-1.2
		c0.2-0.1,0.4-0.2,0.4-0.2c0.1-0.1,0.1-0.2,0.1-0.3c0-0.2-0.1-0.4-0.2-0.6C215,41.7,215.2,41.5,215.2,41.5z M202.5,89.7l-8.7,2.7
		l6.5,0.8c0.6,0.1,1,0.1,1.1,0c0.2-0.2,0.4-0.4,0.4-0.8l0-0.3l0.3,0l-0.4,3.4l-0.3,0l0-0.3c0.1-0.4,0-0.7-0.3-0.9
		c-0.1-0.1-0.5-0.2-1-0.3l-6.4-0.8c-0.4-0.1-0.8,0-1,0c-0.1,0.1-0.3,0.2-0.4,0.3c-0.1,0.2-0.2,0.5-0.3,0.9l-0.3,0l0.4-2.8l8.1-2.5
		l-7.2-4.5l0.4-2.7l0.3,0l0,0.3c-0.1,0.4,0,0.7,0.3,0.9c0.1,0.1,0.5,0.2,1,0.3l6.4,0.8c0.6,0.1,1,0.1,1.2-0.1
		c0.2-0.2,0.4-0.4,0.4-0.8l0-0.3l0.3,0l-0.5,4.2l-0.3,0l0-0.3c0.1-0.4,0-0.7-0.3-0.9c-0.1-0.1-0.5-0.2-1-0.3l-6.5-0.8l7.7,4.8
		L202.5,89.7C202.5,89.7,202.5,89.7,202.5,89.7z M192.5,101.6l-0.3,0l-0.2-3.4l0.3,0l0,0.4c0,0.4,0.2,0.7,0.5,0.8
		c0.2,0.1,0.5,0.1,1.1,0.1l4-0.3c1-0.1,1.7,0,2.3,0.1c0.6,0.2,1,0.5,1.5,1.1c0.4,0.5,0.7,1.3,0.7,2.3c0.1,1.1-0.1,1.9-0.4,2.5
		c-0.3,0.6-0.8,1-1.4,1.3c-0.4,0.2-1.2,0.3-2.4,0.4l-3.8,0.3c-0.6,0-1,0.1-1.2,0.3c-0.2,0.2-0.3,0.4-0.2,0.8l0,0.4l-0.3,0l-0.3-4.2
		l0.3,0l0,0.4c0,0.4,0.2,0.7,0.4,0.8c0.2,0.1,0.6,0.1,1.1,0.1l4.3-0.3c0.4,0,0.8-0.1,1.3-0.2c0.5-0.1,0.9-0.3,1.1-0.5
		c0.3-0.2,0.5-0.5,0.6-0.8c0.2-0.4,0.2-0.8,0.2-1.3c0-0.6-0.2-1.2-0.5-1.7c-0.3-0.5-0.7-0.8-1.1-1c-0.4-0.2-1.2-0.2-2.2-0.1l-4,0.3
		c-0.6,0-1,0.1-1.1,0.3c-0.2,0.2-0.3,0.5-0.3,0.9L192.5,101.6L192.5,101.6L192.5,101.6z M193.4,112.6l2.2-0.6l0.1,0.3
		c-0.4,0.1-0.6,0.3-0.8,0.4c-0.2,0.2-0.4,0.5-0.5,0.7c-0.1,0.3-0.1,0.6,0,1l0.3,1.3l7.3-1.7c0.6-0.1,0.9-0.3,1.1-0.5
		c0.2-0.2,0.2-0.5,0.1-0.9l-0.1-0.3l0.3-0.1l1,4.1l-0.3,0.1L204,116c-0.1-0.4-0.3-0.7-0.6-0.8c-0.2-0.1-0.5,0-1.1,0.1l-7.3,1.7
		l0.3,1.2c0.1,0.4,0.2,0.8,0.3,0.9c0.1,0.2,0.4,0.4,0.7,0.5c0.3,0.1,0.7,0.1,1.1,0.1l0.1,0.3l-2.3,0.4L193.4,112.6
		C193.4,112.6,193.4,112.6,193.4,112.6z M198,127.4l-0.2,0.1l-1.3-3.2l0.2-0.1l0.1,0.3c0.1,0.4,0.4,0.6,0.8,0.6c0.2,0,0.5-0.1,1-0.3
		l3.7-1.5c0.9-0.4,1.6-0.6,2.2-0.6c0.6,0,1.2,0.1,1.7,0.5c0.6,0.4,1.1,1,1.4,1.9c0.4,1,0.6,1.8,0.4,2.5c-0.1,0.7-0.4,1.2-0.9,1.7
		c-0.3,0.3-1,0.7-2.1,1.2l-3.5,1.5c-0.6,0.2-0.9,0.5-1,0.7c-0.1,0.2-0.1,0.5,0,0.8l0.1,0.3l-0.2,0.1l-1.6-3.9l0.2-0.1l0.1,0.3
		c0.2,0.4,0.4,0.6,0.7,0.6c0.2,0,0.6,0,1.1-0.3l3.9-1.7c0.4-0.1,0.7-0.3,1.2-0.6c0.4-0.3,0.7-0.5,0.9-0.8c0.2-0.3,0.3-0.6,0.3-1
		c0-0.4-0.1-0.8-0.2-1.3c-0.2-0.6-0.6-1.1-1.1-1.4c-0.5-0.4-0.9-0.5-1.4-0.5c-0.5,0-1.2,0.2-2.1,0.6l-3.7,1.5
		c-0.6,0.2-0.9,0.5-1,0.6c-0.1,0.3-0.1,0.6,0,0.9C197.9,127.1,198,127.4,198,127.4z M202.4,137.5l1.9-1.3l0.1,0.2
		c-0.3,0.3-0.5,0.5-0.6,0.6c-0.2,0.3-0.2,0.6-0.2,0.8c0,0.3,0.1,0.6,0.4,0.9l0.7,1.2l6.4-4c0.5-0.3,0.8-0.6,0.9-0.8
		c0.1-0.3,0-0.6-0.2-0.9l-0.2-0.3l0.2-0.1l2.2,3.5l-0.2,0.1l-0.2-0.3c-0.2-0.4-0.5-0.5-0.8-0.6c-0.2,0-0.5,0.1-1,0.4l-6.4,4l0.6,1
		c0.2,0.4,0.4,0.6,0.6,0.8c0.2,0.2,0.5,0.3,0.8,0.3c0.3,0,0.7-0.1,1.1-0.3l0.1,0.2l-2,1.1C206.7,144.3,202.4,137.5,202.4,137.5z
		 M215.7,56.2l-1.4,2.2l-5.7,0.4c-0.1,0.2-0.2,0.4-0.3,0.5c0,0.1-0.1,0.1-0.1,0.2c0,0.1-0.1,0.1-0.1,0.2l2.4,1.5
		c0.5,0.3,0.9,0.5,1.1,0.5c0.3,0,0.5-0.2,0.7-0.5l0.2-0.3l0.2,0.1l-2.2,3.5l-0.2-0.1l0.2-0.3c0.2-0.3,0.3-0.7,0.1-1
		c-0.1-0.2-0.3-0.4-0.8-0.7l-5.4-3.4c-0.5-0.3-0.9-0.5-1.1-0.5c-0.3,0-0.5,0.2-0.7,0.5l-0.2,0.3l-0.2-0.1l1.9-3
		c0.6-0.9,1-1.5,1.4-1.8c0.4-0.3,0.9-0.5,1.4-0.6c0.5-0.1,1,0,1.5,0.3c0.5,0.3,0.8,0.8,1,1.3c0.2,0.6,0.1,1.3-0.2,2l3.5-0.2
		c0.8,0,1.4-0.1,1.7-0.3c0.4-0.2,0.7-0.5,1-0.9C215.5,56.1,215.7,56.2,215.7,56.2z M207.7,59.4c0-0.1,0.1-0.1,0.1-0.2
		c0-0.1,0.1-0.1,0.1-0.1c0.5-0.8,0.7-1.5,0.6-2.1c-0.1-0.6-0.4-1.1-0.9-1.4c-0.5-0.3-1-0.4-1.6-0.3c-0.5,0.1-1,0.4-1.3,1
		c-0.1,0.2-0.3,0.6-0.5,1C204.2,57.2,207.7,59.4,207.7,59.4z M204.9,68.6l-1.5,3.5l1.2,1.2c0.3,0.3,0.5,0.5,0.7,0.6
		c0.1,0.1,0.3,0,0.4,0c0.2-0.1,0.3-0.3,0.6-0.8l0.2,0.1l-1.2,2.9l-0.2-0.1c0.1-0.4,0.1-0.7,0-0.8c-0.1-0.3-0.5-0.8-1-1.3l-6.1-6.3
		l0.1-0.2l8.9,0c0.7,0,1.2-0.1,1.5-0.2c0.3-0.1,0.5-0.4,0.7-0.7l0.2,0.1l-1.5,3.6l-0.2-0.1c0.1-0.4,0.2-0.6,0.1-0.8
		c-0.1-0.2-0.1-0.3-0.3-0.3c-0.2-0.1-0.5-0.1-1-0.1L204.9,68.6C204.9,68.6,204.9,68.6,204.9,68.6z M204.4,68.6l-4.3,0l3,3.1
		L204.4,68.6C204.4,68.6,204.4,68.6,204.4,68.6z M342.1,137.4l-1.4,2.2l-9.5,1l4.8,3.1c0.5,0.3,0.9,0.5,1.1,0.5
		c0.3,0,0.5-0.2,0.7-0.5l0.2-0.3l0.2,0.1l-1.9,2.9l-0.2-0.1l0.2-0.3c0.2-0.3,0.3-0.7,0.2-0.9c-0.1-0.2-0.3-0.4-0.8-0.7l-6.9-4.5
		l0.1-0.2l10.2-1.1l-5.1-3.3c-0.5-0.3-0.9-0.5-1.1-0.5c-0.3,0-0.5,0.2-0.7,0.5l-0.2,0.3l-0.2-0.1l1.9-2.9l0.2,0.1l-0.2,0.3
		c-0.2,0.4-0.3,0.7-0.2,1c0.1,0.2,0.3,0.4,0.8,0.7l5.7,3.7c0.4-0.1,0.7-0.1,0.9-0.2c0.2-0.1,0.4-0.2,0.6-0.4
		c0.1-0.1,0.2-0.3,0.4-0.5L342.1,137.4L342.1,137.4z M340.9,112.2l8.9-2l-6.4-1.4c-0.6-0.1-1-0.1-1.1,0c-0.2,0.1-0.4,0.4-0.5,0.8
		l-0.1,0.3l-0.3-0.1l0.7-3.3l0.3,0.1l-0.1,0.3c-0.1,0.4,0,0.7,0.2,0.9c0.1,0.1,0.5,0.3,1,0.4l6.3,1.3c0.4,0.1,0.7,0.1,1,0.1
		c0.2,0,0.3-0.1,0.4-0.3c0.1-0.2,0.2-0.4,0.3-0.8l0.3,0.1l-0.6,2.7l-8.3,1.9l6.8,5.1l-0.6,2.7l-0.3-0.1l0.1-0.3c0.1-0.4,0-0.7-0.2-1
		c-0.1-0.1-0.5-0.3-1-0.4l-6.3-1.3c-0.6-0.1-1-0.1-1.2,0c-0.2,0.1-0.4,0.4-0.5,0.8l-0.1,0.3l-0.3-0.1l0.9-4.1l0.3,0.1l-0.1,0.3
		c-0.1,0.4,0,0.7,0.2,0.9c0.1,0.1,0.5,0.3,1,0.4l6.4,1.4l-7.3-5.4L340.9,112.2L340.9,112.2z M350.7,85.7l-3.9,0.5l0.3,2.1
		c0.1,0.6,0.2,0.9,0.4,1.1c0.3,0.2,0.6,0.3,1.2,0.3l0,0.3l-3.3,0.5l0-0.3c0.5-0.1,0.8-0.2,0.9-0.3c0.2-0.1,0.3-0.3,0.3-0.5
		c0.1-0.2,0.1-0.5,0-0.9l-0.3-2.1l-3.2,0.5c-0.4,0.1-0.7,0.1-0.8,0.2c-0.1,0.1-0.2,0.1-0.2,0.2c0,0.1,0,0.3,0,0.6l0.2,1.6
		c0.1,0.5,0.2,0.9,0.3,1.2c0.1,0.2,0.3,0.5,0.6,0.7c0.3,0.3,0.8,0.5,1.5,0.7l0,0.3l-2.6-0.5l-1.1-7.5l0.3,0l0,0.3
		c0,0.2,0.1,0.4,0.3,0.6c0.1,0.1,0.2,0.2,0.4,0.3c0.2,0,0.5,0,1-0.1l6.3-0.9c0.6-0.1,1-0.2,1.1-0.3c0.2-0.2,0.2-0.5,0.2-0.9l0-0.3
		l0.3,0l1.1,7.5l-2.1,0.4l0-0.3c0.5-0.2,0.8-0.3,1-0.5c0.2-0.1,0.3-0.4,0.4-0.6c0-0.2,0-0.5,0-1L350.7,85.7
		C350.7,85.7,350.7,85.7,350.7,85.7z M349.8,77.6l-2.9,1.2l-0.1-0.3c0.7-0.5,1.1-1,1.4-1.5c0.4-0.7,0.4-1.5,0.1-2.4
		c-0.4-1.2-1.1-1.9-2.3-2.3c-1-0.3-2-0.2-3.1,0.1c-0.9,0.3-1.7,0.7-2.3,1.3c-0.6,0.6-1,1.2-1.2,1.9c-0.2,0.7-0.2,1.3,0,1.9
		c0.1,0.3,0.3,0.7,0.4,1c0.2,0.3,0.4,0.6,0.7,0.8l2.7-0.9c0.5-0.1,0.8-0.3,0.9-0.4c0.1-0.1,0.2-0.3,0.2-0.4c0-0.2,0-0.5-0.1-0.8
		l0.3-0.1l1.1,3.6l-0.3,0.1l-0.1-0.2c-0.1-0.4-0.3-0.6-0.6-0.6c-0.2,0-0.6,0-1.1,0.2l-2.9,0.9c-0.5-0.4-0.8-0.9-1.1-1.4
		c-0.3-0.5-0.5-1-0.7-1.7c-0.6-1.8-0.4-3.4,0.4-4.7c0.6-1,1.5-1.6,2.7-2c0.8-0.3,1.7-0.3,2.6-0.2c1,0.2,1.9,0.6,2.7,1.3
		c0.6,0.6,1.1,1.3,1.4,2.2c0.1,0.3,0.2,0.7,0.2,1s0,0.7,0,1.3c0,0.3,0,0.5,0,0.6c0,0.1,0.1,0.1,0.2,0.2c0.1,0,0.3,0,0.5,0
		L349.8,77.6L349.8,77.6L349.8,77.6z M339.1,128.4l1.5-3.5l-1.2-1.2c-0.3-0.3-0.5-0.5-0.7-0.6c-0.1-0.1-0.3,0-0.4,0
		c-0.2,0.1-0.3,0.3-0.6,0.8l-0.2-0.1l1.2-2.8l0.2,0.1c-0.1,0.4-0.1,0.7-0.1,0.8c0.1,0.3,0.4,0.8,1,1.3l6.1,6.4l-0.1,0.2l-8.8-0.1
		c-0.7,0-1.2,0.1-1.5,0.2c-0.3,0.1-0.5,0.4-0.7,0.7l-0.2-0.1l1.5-3.6l0.2,0.1c-0.1,0.4-0.2,0.6-0.1,0.8c0.1,0.2,0.1,0.3,0.3,0.3
		c0.2,0.1,0.5,0.1,1,0.1L339.1,128.4C339.1,128.4,339.1,128.4,339.1,128.4z M339.7,128.4l4.3,0l-3-3.1L339.7,128.4
		C339.7,128.4,339.7,128.4,339.7,128.4z M342.2,104.7l0.1-2.6l4.7-3.2c0-0.2,0-0.4,0-0.6c0-0.1,0-0.1,0-0.2c0-0.1,0-0.1,0-0.2
		l-2.9-0.1c-0.6,0-1,0-1.2,0.2c-0.2,0.2-0.3,0.4-0.3,0.8l0,0.4l-0.3,0l0.1-4.2l0.3,0l0,0.4c0,0.4,0.1,0.7,0.4,0.9
		c0.1,0.1,0.5,0.2,1.1,0.2l6.3,0.1c0.6,0,1,0,1.2-0.2c0.2-0.2,0.3-0.5,0.3-0.8l0-0.4l0.3,0l-0.1,3.6c0,1-0.1,1.8-0.3,2.3
		c-0.2,0.5-0.4,0.9-0.9,1.2c-0.4,0.3-0.9,0.5-1.5,0.5c-0.6,0-1.1-0.2-1.6-0.6c-0.4-0.4-0.7-1-0.9-1.8l-2.9,2
		c-0.7,0.5-1.1,0.8-1.3,1.2c-0.2,0.3-0.4,0.8-0.4,1.3L342.2,104.7L342.2,104.7z M347.4,97.8c0,0.1,0,0.2,0,0.2c0,0.1,0,0.1,0,0.2
		c0,0.9,0.2,1.6,0.6,2.1c0.4,0.5,0.9,0.7,1.5,0.7c0.6,0,1.1-0.2,1.5-0.5c0.4-0.4,0.6-0.9,0.6-1.5c0-0.3,0-0.7-0.1-1.1L347.4,97.8
		L347.4,97.8z M330.5,59.2l4.8-7.7l-5.5,3.6c-0.5,0.3-0.8,0.6-0.8,0.8c-0.1,0.3,0,0.6,0.2,0.9l0.2,0.3l-0.2,0.1l-1.9-2.9l0.2-0.1
		l0.2,0.3c0.2,0.3,0.5,0.5,0.8,0.5c0.2,0,0.5-0.1,1-0.4l5.4-3.5c0.4-0.2,0.6-0.5,0.7-0.6c0.1-0.1,0.1-0.3,0.1-0.5
		c0-0.2-0.1-0.5-0.4-0.8l0.2-0.1l1.5,2.3l-4.5,7.2l8.4-1.3l1.5,2.3l-0.2,0.1l-0.2-0.3c-0.2-0.4-0.5-0.5-0.8-0.5
		c-0.2,0-0.5,0.1-1,0.4l-5.4,3.5c-0.5,0.3-0.8,0.6-0.8,0.8c-0.1,0.3,0,0.6,0.2,0.9l0.2,0.3l-0.2,0.1l-2.3-3.5l0.2-0.1l0.2,0.3
		c0.2,0.4,0.5,0.5,0.8,0.5c0.2,0,0.5-0.1,1-0.4l5.5-3.6l-9,1.4L330.5,59.2z M330.3,43.6l0.2-0.2l2.4,2.4l-0.2,0.2l-0.3-0.3
		c-0.3-0.3-0.6-0.4-1-0.3c-0.2,0-0.5,0.2-0.9,0.6l-2.8,2.8c-0.7,0.7-1.3,1.2-1.8,1.4c-0.5,0.2-1.1,0.3-1.8,0.2
		c-0.7-0.1-1.4-0.6-2.1-1.3c-0.8-0.8-1.2-1.5-1.3-2.1c-0.1-0.7,0-1.3,0.2-1.9c0.2-0.4,0.7-1,1.6-1.9l2.7-2.7c0.4-0.4,0.7-0.8,0.7-1
		c0-0.2-0.1-0.5-0.3-0.8l-0.3-0.3l0.2-0.2l2.9,3l-0.2,0.2l-0.3-0.3c-0.3-0.3-0.6-0.4-0.9-0.3c-0.2,0-0.5,0.3-0.9,0.6l-3.1,3
		c-0.3,0.3-0.6,0.6-0.9,1c-0.3,0.4-0.5,0.8-0.6,1.1c-0.1,0.3,0,0.7,0.1,1c0.1,0.4,0.3,0.7,0.7,1.1c0.5,0.5,1,0.8,1.5,0.9
		c0.6,0.2,1.1,0.2,1.5,0c0.4-0.2,1-0.6,1.8-1.3l2.8-2.8c0.4-0.4,0.7-0.7,0.7-1c0-0.3-0.1-0.6-0.4-0.8L330.3,43.6L330.3,43.6
		L330.3,43.6z"/>
</g>
<g id="Schrift">
	<rect x="380.5" y="16.9" class="st1" width="2.5" height="162.3"/>
	<path class="st2" d="M425.4,60.9c0,3.3-0.9,5.8-2.7,7.5c-1.8,1.7-4.4,2.6-7.8,2.6h-5.6V51.2h6.2c3.1,0,5.6,0.9,7.3,2.6
		C424.5,55.5,425.4,57.8,425.4,60.9L425.4,60.9z M422.9,61c0-2.6-0.7-4.5-2-5.9c-1.3-1.3-3.3-2-5.9-2h-3.4V69h2.8
		c2.8,0,4.9-0.7,6.3-2C422.2,65.7,422.9,63.7,422.9,61z"/>
	<path class="st2" d="M441.1,71h-11.2V51.2h11.2v2.1h-8.9v6.4h8.3v2h-8.3V69h8.9V71z"/>
	<path class="st2" d="M460.7,51.2V64c0,2.3-0.7,4-2.1,5.3c-1.4,1.3-3.3,1.9-5.7,1.9c-2.4,0-4.3-0.7-5.6-2c-1.3-1.3-2-3.1-2-5.4V51.2
		h2.3v13c0,1.7,0.5,2.9,1.4,3.8c0.9,0.9,2.3,1.3,4,1.3c1.7,0,3-0.4,3.9-1.3c0.9-0.9,1.4-2.2,1.4-3.8V51.2L460.7,51.2L460.7,51.2z"/>
	<path class="st2" d="M472.2,71h-2.3V53.2h-6.4v-2.1h15.1v2.1h-6.4V71z"/>
	<path class="st2" d="M492.9,65.8c0,1.7-0.6,3.1-1.9,4.1c-1.3,1-3,1.5-5.2,1.5c-2.4,0-4.2-0.3-5.5-0.9v-2.2c0.8,0.3,1.7,0.6,2.7,0.8
		c1,0.2,1.9,0.3,2.9,0.3c1.6,0,2.7-0.3,3.5-0.9c0.8-0.6,1.2-1.4,1.2-2.4c0-0.7-0.1-1.3-0.4-1.7c-0.3-0.4-0.7-0.8-1.4-1.2
		c-0.7-0.4-1.7-0.8-3-1.3c-1.9-0.7-3.2-1.4-4-2.4c-0.8-0.9-1.2-2.1-1.2-3.5c0-1.5,0.6-2.8,1.7-3.7c1.2-0.9,2.7-1.4,4.6-1.4
		c2,0,3.8,0.4,5.5,1.1l-0.7,2c-1.7-0.7-3.3-1-4.8-1c-1.2,0-2.2,0.3-2.9,0.8c-0.7,0.5-1,1.3-1,2.2c0,0.7,0.1,1.3,0.4,1.7
		c0.3,0.4,0.7,0.8,1.3,1.2c0.6,0.4,1.5,0.8,2.8,1.2c2.1,0.7,3.6,1.5,4.3,2.4C492.5,63.3,492.9,64.4,492.9,65.8z"/>
	<path class="st2" d="M505.6,53c-2.2,0-3.9,0.7-5.2,2.2c-1.3,1.5-1.9,3.4-1.9,6c0,2.6,0.6,4.6,1.8,6c1.2,1.4,3,2.1,5.3,2.1
		c1.4,0,3-0.2,4.8-0.7v2c-1.4,0.5-3.1,0.8-5.2,0.8c-3,0-5.2-0.9-6.8-2.7c-1.6-1.8-2.4-4.3-2.4-7.6c0-2,0.4-3.8,1.2-5.4
		c0.8-1.5,1.9-2.7,3.4-3.6c1.5-0.8,3.2-1.3,5.2-1.3c2.1,0,3.9,0.4,5.5,1.1l-1,2C508.7,53.3,507.1,53,505.6,53z"/>
	<path class="st2" d="M530,71h-2.3v-9.4h-10.6V71h-2.3V51.2h2.3v8.5h10.6v-8.5h2.3V71z"/>
	<path class="st2" d="M546.7,71h-11.2V51.2h11.2v2.1h-8.9v6.4h8.3v2h-8.3V69h8.9V71z"/>
	<path class="st2" d="M562.5,65.8c0,1.7-0.6,3.1-1.9,4.1c-1.3,1-3,1.5-5.2,1.5c-2.4,0-4.2-0.3-5.5-0.9v-2.2c0.8,0.3,1.7,0.6,2.7,0.8
		c1,0.2,1.9,0.3,2.9,0.3c1.6,0,2.7-0.3,3.5-0.9c0.8-0.6,1.2-1.4,1.2-2.4c0-0.7-0.1-1.3-0.4-1.7c-0.3-0.4-0.7-0.8-1.4-1.2
		c-0.7-0.4-1.7-0.8-3-1.3c-1.9-0.7-3.2-1.4-4-2.4c-0.8-0.9-1.2-2.1-1.2-3.5c0-1.5,0.6-2.8,1.7-3.7c1.2-0.9,2.7-1.4,4.6-1.4
		c2,0,3.8,0.4,5.5,1.1l-0.7,2c-1.7-0.7-3.3-1-4.8-1c-1.2,0-2.2,0.3-2.9,0.8c-0.7,0.5-1,1.3-1,2.2c0,0.7,0.1,1.3,0.4,1.7
		s0.7,0.8,1.3,1.2c0.6,0.4,1.5,0.8,2.8,1.2c2.1,0.7,3.6,1.5,4.3,2.4C562.1,63.3,562.5,64.4,562.5,65.8L562.5,65.8z"/>
	<path class="st2" d="M422.1,108.5l-2.5-6.3h-8.1l-2.5,6.3h-2.4l8-20h2l8,20H422.1z M418.9,100.1l-2.4-6.2c-0.3-0.8-0.6-1.7-0.9-2.9
		c-0.2,0.9-0.5,1.8-0.9,2.9l-2.4,6.2H418.9z"/>
	<path class="st2" d="M429.7,100.2v8.3h-2.4V88.6h5.6c2.5,0,4.3,0.5,5.5,1.4c1.2,0.9,1.8,2.3,1.8,4.2c0,2.6-1.4,4.4-4.1,5.3l5.5,8.9
		h-2.8l-4.9-8.3H429.7L429.7,100.2z M429.7,98.2h3.2c1.7,0,2.9-0.3,3.7-1c0.8-0.6,1.2-1.6,1.2-2.9c0-1.3-0.4-2.3-1.2-2.8
		c-0.8-0.6-2.1-0.9-3.8-0.9h-3.1V98.2z"/>
	<path class="st2" d="M453.6,90.4c-2.2,0-4,0.7-5.3,2.2c-1.3,1.5-1.9,3.4-1.9,6c0,2.6,0.6,4.6,1.9,6c1.2,1.4,3,2.1,5.3,2.1
		c1.4,0,3-0.2,4.8-0.7v2c-1.4,0.5-3.1,0.8-5.2,0.8c-3,0-5.3-0.9-6.9-2.7c-1.6-1.8-2.4-4.3-2.4-7.6c0-2,0.4-3.8,1.2-5.4
		c0.8-1.5,1.9-2.7,3.4-3.6c1.5-0.8,3.2-1.3,5.2-1.3c2.1,0,4,0.4,5.6,1.1l-1,2C456.6,90.7,455.1,90.4,453.6,90.4z"/>
	<path class="st2" d="M478.2,108.5h-2.4v-9.4h-10.7v9.4h-2.4V88.6h2.4V97h10.7v-8.5h2.4V108.5z"/>
	<path class="st2" d="M496.4,108.5l-2.5-6.3h-8.1l-2.5,6.3h-2.4l8-20h2l8,20H496.4z M493.2,100.1l-2.4-6.2c-0.3-0.8-0.6-1.7-0.9-2.9
		c-0.2,0.9-0.5,1.8-0.9,2.9l-2.4,6.2H493.2z M486,84.9c0-0.5,0.1-0.8,0.4-1c0.2-0.2,0.5-0.3,0.9-0.3c0.3,0,0.7,0.1,0.9,0.3
		c0.3,0.2,0.4,0.5,0.4,1c0,0.5-0.1,0.8-0.4,1c-0.3,0.2-0.6,0.3-0.9,0.3c-0.3,0-0.6-0.1-0.9-0.3C486.1,85.7,486,85.4,486,84.9z
		 M491.2,84.9c0-0.5,0.1-0.8,0.4-1c0.2-0.2,0.5-0.3,0.9-0.3s0.6,0.1,0.9,0.3s0.4,0.5,0.4,1c0,0.5-0.1,0.8-0.4,1
		c-0.3,0.2-0.6,0.3-0.9,0.3s-0.6-0.1-0.9-0.3C491.4,85.7,491.2,85.4,491.2,84.9z"/>
	<path class="st2" d="M518.7,98.5c0,3.2-0.8,5.7-2.5,7.5s-3.9,2.7-6.8,2.7c-3,0-5.3-0.9-6.9-2.7c-1.6-1.8-2.4-4.3-2.4-7.6
		c0-3.2,0.8-5.7,2.4-7.5c1.6-1.8,3.9-2.7,6.9-2.7c2.9,0,5.2,0.9,6.8,2.7C517.9,92.8,518.7,95.3,518.7,98.5L518.7,98.5z M502.5,98.5
		c0,2.7,0.6,4.7,1.8,6.1c1.2,1.4,2.9,2.1,5.1,2.1c2.2,0,3.9-0.7,5.1-2.1c1.1-1.4,1.7-3.4,1.7-6.1c0-2.7-0.6-4.7-1.7-6.1
		c-1.1-1.4-2.8-2.1-5.1-2.1c-2.2,0-3.9,0.7-5.1,2.1C503.1,93.8,502.5,95.8,502.5,98.5z"/>
	<path class="st2" d="M523.2,108.5V88.6h2.4v17.8h8.9v2.1H523.2z"/>
	<path class="st2" d="M554.9,98.5c0,3.2-0.8,5.7-2.5,7.5s-3.9,2.7-6.8,2.7c-3,0-5.3-0.9-6.9-2.7c-1.6-1.8-2.4-4.3-2.4-7.6
		c0-3.2,0.8-5.7,2.4-7.5c1.6-1.8,3.9-2.7,6.9-2.7c2.9,0,5.2,0.9,6.8,2.7C554.1,92.8,554.9,95.3,554.9,98.5z M538.8,98.5
		c0,2.7,0.6,4.7,1.8,6.1c1.2,1.4,2.9,2.1,5.1,2.1c2.2,0,3.9-0.7,5.1-2.1c1.1-1.4,1.7-3.4,1.7-6.1c0-2.7-0.6-4.7-1.7-6.1
		c-1.1-1.4-2.8-2.1-5.1-2.1c-2.2,0-3.9,0.7-5.1,2.1C539.4,93.8,538.8,95.8,538.8,98.5z"/>
	<path class="st2" d="M568.3,98.1h6.9v9.7c-1.1,0.3-2.2,0.6-3.3,0.8c-1.1,0.2-2.4,0.3-3.9,0.3c-3.1,0-5.5-0.9-7.2-2.7
		c-1.7-1.8-2.6-4.3-2.6-7.5c0-2.1,0.4-3.9,1.3-5.4c0.8-1.6,2.1-2.7,3.6-3.6c1.6-0.8,3.5-1.2,5.6-1.2c2.2,0,4.2,0.4,6,1.2l-0.9,2
		c-1.8-0.8-3.6-1.1-5.3-1.1c-2.5,0-4.4,0.7-5.8,2.2c-1.4,1.4-2.1,3.4-2.1,6c0,2.7,0.7,4.7,2,6.1c1.3,1.4,3.3,2.1,5.9,2.1
		c1.4,0,2.8-0.2,4.1-0.5v-6.1h-4.5L568.3,98.1L568.3,98.1z"/>
	<rect x="580.1" y="88.6" class="st2" width="2.4" height="19.9"/>
	<path class="st2" d="M599.4,103.2c0,1.7-0.6,3.1-1.9,4.1c-1.3,1-3,1.5-5.3,1.5c-2.4,0-4.2-0.3-5.5-0.9v-2.2
		c0.8,0.3,1.7,0.6,2.7,0.8c1,0.2,1.9,0.3,2.9,0.3c1.6,0,2.8-0.3,3.5-0.9c0.8-0.6,1.2-1.4,1.2-2.4c0-0.7-0.1-1.3-0.4-1.7
		c-0.3-0.4-0.8-0.8-1.4-1.2c-0.7-0.4-1.7-0.8-3-1.3c-1.9-0.7-3.2-1.4-4-2.4c-0.8-0.9-1.2-2.1-1.2-3.5c0-1.5,0.6-2.8,1.8-3.7
		c1.2-0.9,2.7-1.4,4.7-1.4c2,0,3.9,0.4,5.6,1.1l-0.7,2c-1.7-0.7-3.3-1-4.9-1c-1.2,0-2.2,0.3-2.9,0.8c-0.7,0.5-1.1,1.3-1.1,2.2
		c0,0.7,0.1,1.3,0.4,1.7c0.3,0.4,0.7,0.8,1.3,1.2c0.6,0.4,1.6,0.8,2.8,1.2c2.1,0.7,3.6,1.5,4.4,2.4
		C599,100.7,599.4,101.8,599.4,103.2L599.4,103.2z"/>
	<path class="st2" d="M612.2,90.4c-2.2,0-4,0.7-5.3,2.2c-1.3,1.5-1.9,3.4-1.9,6c0,2.6,0.6,4.6,1.9,6c1.2,1.4,3,2.1,5.3,2.1
		c1.4,0,3-0.2,4.8-0.7v2c-1.4,0.5-3.1,0.8-5.2,0.8c-3,0-5.3-0.9-6.9-2.7c-1.6-1.8-2.4-4.3-2.4-7.6c0-2,0.4-3.8,1.2-5.4
		c0.8-1.5,1.9-2.7,3.4-3.6c1.5-0.8,3.2-1.3,5.2-1.3c2.1,0,4,0.4,5.6,1.1l-1,2C615.3,90.7,613.8,90.4,612.2,90.4z"/>
	<path class="st2" d="M636.8,108.5h-2.4v-9.4h-10.7v9.4h-2.4V88.6h2.4V97h10.7v-8.5h2.4V108.5z"/>
	<path class="st2" d="M653.7,108.5h-11.3V88.6h11.3v2.1h-8.9V97h8.4v2h-8.4v7.3h8.9V108.5z"/>
	<path class="st2" d="M669.6,103.2c0,1.7-0.6,3.1-1.9,4.1c-1.3,1-3,1.5-5.3,1.5c-2.4,0-4.2-0.3-5.5-0.9v-2.2
		c0.8,0.3,1.7,0.6,2.7,0.8c1,0.2,1.9,0.3,2.9,0.3c1.6,0,2.8-0.3,3.5-0.9c0.8-0.6,1.2-1.4,1.2-2.4c0-0.7-0.1-1.3-0.4-1.7
		c-0.3-0.4-0.8-0.8-1.4-1.2c-0.7-0.4-1.7-0.8-3-1.3c-1.9-0.7-3.2-1.4-4-2.4c-0.8-0.9-1.2-2.1-1.2-3.5c0-1.5,0.6-2.8,1.8-3.7
		c1.2-0.9,2.7-1.4,4.7-1.4c2,0,3.9,0.4,5.6,1.1l-0.7,2c-1.7-0.7-3.3-1-4.9-1c-1.2,0-2.2,0.3-2.9,0.8c-0.7,0.5-1.1,1.3-1.1,2.2
		c0,0.7,0.1,1.3,0.4,1.7c0.3,0.4,0.7,0.8,1.3,1.2c0.6,0.4,1.6,0.8,2.8,1.2c2.1,0.7,3.6,1.5,4.4,2.4
		C669.2,100.7,669.6,101.8,669.6,103.2L669.6,103.2z"/>
	<rect x="681.1" y="88.6" class="st2" width="2.4" height="19.9"/>
	<path class="st2" d="M704.8,108.5h-2.7l-11.1-16.7H691c0.1,2,0.2,3.8,0.2,5.4v11.3H689V88.6h2.7l11,16.6h0.1c0-0.2-0.1-1-0.1-2.4
		s-0.1-2.3-0.1-2.8V88.6h2.2V108.5z"/>
	<path class="st2" d="M721.8,103.2c0,1.7-0.6,3.1-1.9,4.1c-1.3,1-3,1.5-5.3,1.5c-2.4,0-4.2-0.3-5.5-0.9v-2.2
		c0.8,0.3,1.7,0.6,2.7,0.8c1,0.2,1.9,0.3,2.9,0.3c1.6,0,2.8-0.3,3.5-0.9c0.8-0.6,1.2-1.4,1.2-2.4c0-0.7-0.1-1.3-0.4-1.7
		c-0.3-0.4-0.8-0.8-1.4-1.2c-0.7-0.4-1.7-0.8-3-1.3c-1.9-0.7-3.2-1.4-4-2.4c-0.8-0.9-1.2-2.1-1.2-3.5c0-1.5,0.6-2.8,1.8-3.7
		c1.2-0.9,2.7-1.4,4.7-1.4c2,0,3.9,0.4,5.6,1.1l-0.7,2c-1.7-0.7-3.3-1-4.9-1c-1.2,0-2.2,0.3-2.9,0.8c-0.7,0.5-1.1,1.3-1.1,2.2
		c0,0.7,0.1,1.3,0.4,1.7c0.3,0.4,0.7,0.8,1.3,1.2c0.6,0.4,1.6,0.8,2.8,1.2c2.1,0.7,3.6,1.5,4.4,2.4
		C721.4,100.7,721.8,101.8,721.8,103.2L721.8,103.2z"/>
	<path class="st2" d="M732.2,108.5h-2.4V90.6h-6.4v-2.1h15.2v2.1h-6.4V108.5z"/>
	<rect x="741.7" y="88.6" class="st2" width="2.4" height="19.9"/>
	<path class="st2" d="M755.8,108.5h-2.4V90.6H747v-2.1h15.2v2.1h-6.4V108.5z"/>
	<path class="st2" d="M780.6,88.6v12.9c0,2.3-0.7,4-2.1,5.3c-1.4,1.3-3.3,1.9-5.7,1.9c-2.4,0-4.3-0.7-5.7-2c-1.3-1.3-2-3.1-2-5.4
		V88.6h2.4v13c0,1.7,0.5,2.9,1.4,3.8c0.9,0.9,2.3,1.3,4.1,1.3c1.7,0,3-0.4,3.9-1.3c0.9-0.9,1.4-2.2,1.4-3.8V88.6L780.6,88.6
		L780.6,88.6z"/>
	<path class="st2" d="M792.2,108.5h-2.4V90.6h-6.4v-2.1h15.2v2.1h-6.4V108.5z"/>
	<g id="Römisch-germanische-Kommission">
		<path class="st3" d="M409.4,145.5v-20.4h5.7c1.1,0,2,0.2,2.6,0.6c0.6,0.4,1.1,1,1.4,1.9c0.4,0.9,0.5,2,0.5,3.1
			c0,1.4-0.3,2.7-0.9,3.7c-0.6,1-1.5,1.6-2.7,1.9c0.4,0.3,0.8,0.7,1,1c0.5,0.7,1,1.6,1.4,2.7l2.2,5.6h-2.1l-1.7-4.3
			c-0.5-1.2-0.9-2.2-1.2-2.8c-0.3-0.7-0.6-1.1-0.9-1.4c-0.3-0.3-0.5-0.4-0.8-0.5c-0.2-0.1-0.5-0.1-0.9-0.1h-2v9.1H409.4z
			 M411.1,134.1h3.7c0.8,0,1.4-0.1,1.8-0.4c0.4-0.3,0.8-0.7,1-1.2c0.2-0.6,0.3-1.2,0.3-1.8c0-1-0.2-1.8-0.7-2.4
			c-0.4-0.6-1.1-0.9-2.1-0.9h-4.1V134.1L411.1,134.1z"/>
		<path class="st3" d="M597.4,145.5v-20.4h5.7c1.1,0,2,0.2,2.6,0.6c0.6,0.4,1.1,1,1.4,1.9c0.4,0.9,0.5,2,0.5,3.1
			c0,1.4-0.3,2.7-0.9,3.7c-0.6,1-1.5,1.6-2.7,1.9c0.4,0.3,0.8,0.7,1,1c0.5,0.7,1,1.6,1.4,2.7l2.2,5.6h-2.1l-1.7-4.3
			c-0.5-1.2-0.9-2.2-1.2-2.8c-0.3-0.7-0.6-1.1-0.9-1.4c-0.3-0.3-0.5-0.4-0.8-0.5c-0.2-0.1-0.5-0.1-0.9-0.1h-2v9.1H597.4z
			 M599.1,134.1h3.7c0.8,0,1.4-0.1,1.8-0.4c0.4-0.3,0.8-0.7,1-1.2c0.2-0.6,0.3-1.2,0.3-1.8c0-1-0.2-1.8-0.7-2.4
			c-0.4-0.6-1.1-0.9-2.1-0.9h-4.1V134.1L599.1,134.1z"/>
		<path class="st3" d="M782.4,145.5v-20.4h1.7v10.1l6.4-10.1h2.3l-5.4,8.3l5.6,12.2h-2.2l-4.6-10.3l-2.1,3.3v7.1H782.4L782.4,145.5z
			"/>
		<path class="st3" d="M642.2,145.5l4.9-20.4h1.8l5.3,20.4h-1.9l-1.5-6.2h-5.4l-1.4,6.2H642.2z M645.9,137.1h4.3l-1.3-5.7
			c-0.4-1.7-0.7-3.1-0.9-4.2c-0.2,1.3-0.4,2.6-0.7,3.9L645.9,137.1z"/>
		<path class="st3" d="M663.2,145.5v-20.4h1.9l7.5,16v-16h1.8v20.4h-1.9l-7.5-16.1v16.1H663.2z"/>
		<path class="st3" d="M952.5,145.5v-20.4h1.9l7.5,16v-16h1.8v20.4h-1.9l-7.5-16.1v16.1H952.5L952.5,145.5z"/>
		<path class="st3" d="M434.3,145.7c-1.3,0-2.4-0.3-3.3-0.9c-0.9-0.6-1.6-1.4-2.1-2.6c-0.5-1.1-0.7-2.5-0.7-4v-5.7
			c0-1.6,0.2-2.9,0.7-4c0.5-1.1,1.2-2,2.1-2.6c0.9-0.6,2-0.9,3.3-0.9c1.3,0,2.4,0.3,3.3,0.9c0.9,0.6,1.6,1.4,2.1,2.6
			c0.5,1.1,0.7,2.5,0.7,4v5.7c0,1.6-0.2,2.9-0.7,4c-0.5,1.1-1.2,2-2.1,2.6C436.7,145.4,435.6,145.7,434.3,145.7z M434.3,143.9
			c0.9,0,1.7-0.2,2.4-0.6c0.7-0.4,1.1-1.1,1.5-1.9c0.3-0.8,0.5-1.8,0.5-3v-5.9c0-1.2-0.2-2.2-0.5-3c-0.3-0.8-0.8-1.4-1.5-1.9
			s-1.4-0.6-2.4-0.6c-0.9,0-1.7,0.2-2.4,0.6c-0.7,0.4-1.1,1.1-1.5,1.9c-0.3,0.8-0.5,1.8-0.5,3v5.9c0,1.2,0.2,2.2,0.5,3
			c0.3,0.8,0.8,1.4,1.5,1.9C432.6,143.6,433.4,143.9,434.3,143.9z M435.6,121h2.1v2.4h-2.1V121z M430.9,121h2.1v2.4h-2.1V121z"/>
		<path class="st4" d="M806.5,145.7c-1.3,0-2.4-0.3-3.3-0.9c-0.9-0.6-1.6-1.4-2.1-2.6c-0.5-1.1-0.7-2.5-0.7-4v-5.7
			c0-1.6,0.2-2.9,0.7-4c0.5-1.1,1.2-2,2.1-2.6c0.9-0.6,2-0.9,3.3-0.9c1.3,0,2.4,0.3,3.3,0.9c0.9,0.6,1.6,1.4,2.1,2.6
			c0.5,1.1,0.7,2.5,0.7,4v5.7c0,1.6-0.2,2.9-0.7,4c-0.5,1.1-1.2,2-2.1,2.6C808.9,145.4,807.8,145.7,806.5,145.7z M806.5,143.9
			c0.9,0,1.7-0.2,2.4-0.6c0.7-0.4,1.1-1.1,1.5-1.9c0.3-0.8,0.5-1.8,0.5-3v-5.9c0-1.2-0.2-2.2-0.5-3c-0.3-0.8-0.8-1.4-1.5-1.9
			c-0.7-0.4-1.4-0.6-2.4-0.6c-0.9,0-1.7,0.2-2.4,0.6c-0.7,0.4-1.1,1.1-1.5,1.9c-0.3,0.8-0.5,1.8-0.5,3v5.9c0,1.2,0.2,2.2,0.5,3
			s0.8,1.4,1.5,1.9C804.8,143.6,805.6,143.9,806.5,143.9z"/>
		<path class="st5" d="M937,145.7c-1.3,0-2.4-0.3-3.3-0.9c-0.9-0.6-1.6-1.4-2.1-2.6c-0.5-1.1-0.7-2.5-0.7-4v-5.7
			c0-1.6,0.2-2.9,0.7-4c0.5-1.1,1.2-2,2.1-2.6c0.9-0.6,2-0.9,3.3-0.9c1.3,0,2.4,0.3,3.3,0.9c0.9,0.6,1.6,1.4,2.1,2.6
			c0.5,1.1,0.7,2.5,0.7,4v5.7c0,1.6-0.2,2.9-0.7,4c-0.5,1.1-1.2,2-2.1,2.6C939.4,145.4,938.3,145.7,937,145.7z M937,143.9
			c0.9,0,1.7-0.2,2.4-0.6c0.7-0.4,1.1-1.1,1.5-1.9c0.3-0.8,0.5-1.8,0.5-3v-5.9c0-1.2-0.2-2.2-0.5-3c-0.3-0.8-0.8-1.4-1.5-1.9
			c-0.7-0.4-1.4-0.6-2.4-0.6c-0.9,0-1.7,0.2-2.4,0.6c-0.7,0.4-1.1,1.1-1.5,1.9c-0.3,0.8-0.5,1.8-0.5,3v5.9c0,1.2,0.2,2.2,0.5,3
			c0.3,0.8,0.8,1.4,1.5,1.9C935.3,143.6,936.1,143.9,937,143.9z"/>
		<path class="st3" d="M466.4,145.5h-2v-13.4c0-1.1,0.1-2.4,0.2-3.9h0c-0.2,0.9-0.4,1.5-0.5,1.9l-5.8,15.4h-1l-5.8-15.3
			c-0.2-0.4-0.3-1.1-0.5-2h0c0.1,0.8,0.1,2.1,0.1,3.9v13.4h-1.9v-20h2.6l5.2,13.9c0.4,1.1,0.7,1.9,0.8,2.4h0.1
			c0.3-1.1,0.6-1.9,0.8-2.5l5.3-13.9h2.5L466.4,145.5L466.4,145.5z"/>
		<path class="st3" d="M633.4,145.5h-2v-13.4c0-1.1,0.1-2.4,0.2-3.9h0c-0.2,0.9-0.4,1.5-0.5,1.9l-5.8,15.4h-1l-5.8-15.3
			c-0.2-0.4-0.3-1.1-0.5-2h0c0.1,0.8,0.1,2.1,0.1,3.9v13.4h-1.9v-20h2.6l5.2,13.9c0.4,1.1,0.7,1.9,0.8,2.4h0.1
			c0.3-1.1,0.6-1.9,0.8-2.5l5.3-13.9h2.5L633.4,145.5L633.4,145.5z"/>
		<path class="st3" d="M838.1,145.5h-2v-13.4c0-1.1,0.1-2.4,0.2-3.9h0c-0.2,0.9-0.4,1.5-0.5,1.9l-5.8,15.4h-1l-5.8-15.3
			c-0.2-0.4-0.3-1.1-0.5-2h0c0.1,0.8,0.1,2.1,0.1,3.9v13.4h-1.9v-20h2.6l5.2,13.9c0.4,1.1,0.7,1.9,0.8,2.4h0.1
			c0.3-1.1,0.6-1.9,0.8-2.5l5.3-13.9h2.5L838.1,145.5L838.1,145.5z"/>
		<path class="st3" d="M863.6,145.5h-2v-13.4c0-1.1,0.1-2.4,0.2-3.9h0c-0.2,0.9-0.4,1.5-0.5,1.9l-5.8,15.4h-1l-5.8-15.3
			c-0.2-0.4-0.3-1.1-0.5-2h0c0.1,0.8,0.1,2.1,0.1,3.9v13.4h-1.9v-20h2.6l5.2,13.9c0.4,1.1,0.7,1.9,0.8,2.4h0.1
			c0.3-1.1,0.6-1.9,0.8-2.5l5.3-13.9h2.5C863.6,125.5,863.6,145.5,863.6,145.5z"/>
		<rect x="475.1" y="125.5" class="st3" width="2" height="20"/>
		<rect x="685" y="125.5" class="st3" width="2" height="20"/>
		<rect x="873" y="125.5" class="st3" width="2" height="20"/>
		<rect x="919.6" y="125.5" class="st3" width="2" height="20"/>
		<path class="st3" d="M496.6,140.1c0,1.8-0.6,3.2-1.7,4.2c-1.1,1-2.6,1.5-4.5,1.5c-2.1,0-3.6-0.3-4.7-0.9v-2.3
			c0.7,0.4,1.5,0.6,2.3,0.8c0.8,0.2,1.7,0.3,2.5,0.3c1.3,0,2.4-0.3,3-0.9c0.7-0.6,1-1.4,1-2.5c0-0.7-0.1-1.3-0.4-1.7
			c-0.2-0.5-0.6-0.9-1.2-1.2c-0.6-0.4-1.4-0.8-2.6-1.3c-1.6-0.7-2.8-1.5-3.5-2.4c-0.7-0.9-1-2.1-1-3.6c0-1.6,0.5-2.8,1.5-3.7
			c1-0.9,2.3-1.4,4-1.4c1.7,0,3.3,0.4,4.8,1.1l-0.6,2.1c-1.4-0.7-2.8-1.1-4.2-1.1c-1.1,0-1.9,0.3-2.5,0.8c-0.6,0.5-0.9,1.3-0.9,2.2
			c0,0.7,0.1,1.3,0.3,1.7c0.2,0.5,0.6,0.9,1.1,1.2c0.5,0.4,1.3,0.8,2.4,1.2c1.8,0.8,3.1,1.6,3.8,2.5
			C496.2,137.6,496.6,138.7,496.6,140.1L496.6,140.1z"/>
		<path class="st3" d="M705.7,140.1c0,1.8-0.6,3.2-1.7,4.2c-1.1,1-2.6,1.5-4.5,1.5c-2.1,0-3.6-0.3-4.7-0.9v-2.3
			c0.7,0.4,1.5,0.6,2.3,0.8c0.8,0.2,1.7,0.3,2.5,0.3c1.3,0,2.4-0.3,3-0.9s1-1.4,1-2.5c0-0.7-0.1-1.3-0.4-1.7
			c-0.2-0.5-0.6-0.9-1.2-1.2c-0.6-0.4-1.4-0.8-2.6-1.3c-1.6-0.7-2.8-1.5-3.5-2.4c-0.7-0.9-1-2.1-1-3.6c0-1.6,0.5-2.8,1.5-3.7
			c1-0.9,2.3-1.4,4-1.4c1.7,0,3.3,0.4,4.8,1.1l-0.6,2.1c-1.4-0.7-2.8-1.1-4.2-1.1c-1.1,0-1.9,0.3-2.5,0.8c-0.6,0.5-0.9,1.3-0.9,2.2
			c0,0.7,0.1,1.3,0.3,1.7c0.2,0.5,0.6,0.9,1.1,1.2c0.5,0.4,1.3,0.8,2.4,1.2c1.8,0.8,3.1,1.6,3.8,2.5
			C705.4,137.6,705.7,138.7,705.7,140.1L705.7,140.1z"/>
		<path class="st3" d="M894.4,140.1c0,1.8-0.6,3.2-1.7,4.2c-1.1,1-2.6,1.5-4.5,1.5c-2.1,0-3.6-0.3-4.7-0.9v-2.3
			c0.7,0.4,1.5,0.6,2.3,0.8c0.8,0.2,1.7,0.3,2.5,0.3c1.3,0,2.4-0.3,3-0.9s1-1.4,1-2.5c0-0.7-0.1-1.3-0.4-1.7
			c-0.2-0.5-0.6-0.9-1.2-1.2c-0.6-0.4-1.4-0.8-2.6-1.3c-1.6-0.7-2.8-1.5-3.5-2.4c-0.7-0.9-1-2.1-1-3.6c0-1.6,0.5-2.8,1.5-3.7
			c1-0.9,2.3-1.4,4-1.4c1.7,0,3.3,0.4,4.8,1.1l-0.6,2.1c-1.4-0.7-2.8-1.1-4.2-1.1c-1.1,0-1.9,0.3-2.5,0.8c-0.6,0.5-0.9,1.3-0.9,2.2
			c0,0.7,0.1,1.3,0.3,1.7c0.2,0.5,0.6,0.9,1.1,1.2c0.5,0.4,1.3,0.8,2.4,1.2c1.8,0.8,3.1,1.6,3.8,2.5
			C894.1,137.6,894.4,138.7,894.4,140.1z"/>
		<path class="st3" d="M911,140.1c0,1.8-0.6,3.2-1.7,4.2c-1.1,1-2.6,1.5-4.5,1.5c-2.1,0-3.6-0.3-4.7-0.9v-2.3
			c0.7,0.4,1.5,0.6,2.3,0.8c0.8,0.2,1.7,0.3,2.5,0.3c1.3,0,2.4-0.3,3-0.9c0.7-0.6,1-1.4,1-2.5c0-0.7-0.1-1.3-0.4-1.7
			c-0.2-0.5-0.6-0.9-1.2-1.2c-0.6-0.4-1.4-0.8-2.6-1.3c-1.6-0.7-2.8-1.5-3.5-2.4c-0.7-0.9-1-2.1-1-3.6c0-1.6,0.5-2.8,1.5-3.7
			c1-0.9,2.3-1.4,4-1.4c1.7,0,3.3,0.4,4.8,1.1l-0.6,2.1c-1.4-0.7-2.8-1.1-4.2-1.1c-1.1,0-1.9,0.3-2.5,0.8c-0.6,0.5-0.9,1.3-0.9,2.2
			c0,0.7,0.1,1.3,0.3,1.7c0.2,0.5,0.6,0.9,1.1,1.2c0.5,0.4,1.3,0.8,2.4,1.2c1.8,0.8,3.1,1.6,3.8,2.5
			C910.7,137.6,911,138.7,911,140.1L911,140.1z"/>
		<path class="st3" d="M514.3,144.7c-1,0.8-2.3,1.2-3.8,1.2c-1.9,0-3.5-0.9-4.7-2.7c-1.2-1.8-1.8-4.2-1.8-7.2c0-3.2,0.7-5.8,2-7.8
			c1.3-2,3-3,5-3c1.3,0,2.4,0.3,3.2,0.8v2.5c-1-0.8-2.1-1.2-3.2-1.2c-1.6,0-2.8,0.8-3.8,2.3c-1,1.5-1.5,3.6-1.5,6.1
			c0,2.4,0.5,4.4,1.4,5.8c0.9,1.4,2.1,2.2,3.6,2.2c1.4,0,2.6-0.4,3.6-1.3L514.3,144.7L514.3,144.7z"/>
		<path class="st3" d="M723.5,144.7c-1,0.8-2.3,1.2-3.8,1.2c-1.9,0-3.5-0.9-4.7-2.7c-1.2-1.8-1.8-4.2-1.8-7.2c0-3.2,0.7-5.8,2-7.8
			c1.3-2,3-3,5-3c1.3,0,2.4,0.3,3.2,0.8v2.5c-1-0.8-2.1-1.2-3.2-1.2c-1.6,0-2.8,0.8-3.8,2.3c-1,1.5-1.5,3.6-1.5,6.1
			c0,2.4,0.5,4.4,1.4,5.8c0.9,1.4,2.1,2.2,3.6,2.2c1.4,0,2.6-0.4,3.6-1.3L723.5,144.7L723.5,144.7z"/>
		<path class="st3" d="M534.4,145.5h-1.8v-9.1h-8v9.1h-1.8v-20h1.8v8.8h8v-8.8h1.8V145.5z"/>
		<path class="st3" d="M743.6,145.5h-1.8v-9.1h-8v9.1H732v-20h1.8v8.8h8v-8.8h1.8V145.5z"/>
		<path class="st3" d="M569.4,137.7h-3.3v-2.1h5v9.3c-0.2,0.1-0.4,0.2-0.7,0.3c-0.3,0.1-0.6,0.2-1,0.3c-0.4,0.1-0.8,0.2-1.2,0.2
			c-0.4,0.1-0.8,0.1-1.3,0.1c-1.2,0-2.3-0.2-3.3-0.7c-0.9-0.5-1.7-1.1-2.4-1.9c-0.6-0.8-1.1-1.8-1.5-3c-0.3-1.2-0.5-2.5-0.5-3.9
			c0-1.6,0.2-3,0.5-4.3c0.4-1.3,0.9-2.4,1.6-3.3c0.7-0.9,1.5-1.6,2.5-2.1c1-0.5,2-0.7,3.2-0.7c0.3,0,0.6,0,0.9,0.1
			c0.3,0,0.6,0.1,0.9,0.1c0.3,0.1,0.6,0.1,0.8,0.2c0.2,0.1,0.4,0.2,0.6,0.3v2.1c-0.4-0.2-0.9-0.4-1.5-0.5c-0.6-0.1-1.1-0.2-1.7-0.2
			c-0.8,0-1.6,0.2-2.3,0.5c-0.7,0.3-1.4,0.8-2,1.5c-0.6,0.7-1,1.5-1.4,2.5c-0.3,1-0.5,2.2-0.5,3.6c0,1.3,0.1,2.5,0.4,3.5
			c0.3,1,0.7,1.8,1.2,2.4c0.5,0.6,1.1,1.1,1.9,1.4c0.7,0.3,1.5,0.5,2.4,0.5c0.4,0,0.8,0,1.2-0.1c0.4-0.1,0.8-0.1,1.1-0.2
			L569.4,137.7L569.4,137.7z"/>
		<path class="st3" d="M579.9,125.5h1.6v20h-1.6V125.5z M581,143.7h9v1.8h-9V143.7z M581,134.7h7.8v1.8H581V134.7z M581,125.5h9v1.8
			h-9V125.5z"/>
		<path class="st3" d="M753.8,125.5h1.6v20h-1.6V125.5z M754.8,143.7h9v1.8h-9V143.7z M754.8,134.7h7.8v1.8h-7.8V134.7z
			 M754.8,125.5h9v1.8h-9V125.5z"/>
		<rect x="543.5" y="137.3" class="st3" width="7.1" height="1.8"/>
	</g>
</g>
</svg>
