<?xml version="1.0" standalone="no"?>
<!DOCTYPE svg PUBLIC "-//W3C//DTD SVG 20010904//EN"
 "http://www.w3.org/TR/2001/REC-SVG-20010904/DTD/svg10.dtd">
<svg version="1.0" xmlns="http://www.w3.org/2000/svg"
 width="700.000000pt" height="700.000000pt" viewBox="0 0 700.000000 700.000000"
 preserveAspectRatio="xMidYMid meet">
<metadata>
Created by potrace 1.11, written by Peter Selinger 2001-2013
</metadata>
<g transform="translate(0.000000,700.000000) scale(0.100000,-0.100000)"
fill="#000000" stroke="none">
<path d="M3459 6926 c-2 -2 -44 -6 -94 -10 -128 -9 -401 -43 -415 -51 -3 -2
-23 -6 -45 -9 -22 -4 -87 -18 -145 -31 -58 -14 -116 -27 -130 -30 -53 -12
-329 -108 -405 -142 -129 -56 -286 -135 -342 -170 -29 -18 -55 -33 -58 -33
-12 0 -242 -160 -325 -227 -144 -116 -327 -291 -409 -393 -20 -25 -39 -47 -42
-50 -5 -4 -96 -125 -152 -201 -21 -27 -196 -316 -228 -374 -87 -159 -124 -229
-183 -349 -37 -77 -84 -176 -103 -220 -19 -45 -38 -90 -43 -101 -5 -11 -21
-51 -35 -89 -15 -38 -31 -77 -35 -85 -13 -26 -97 -309 -124 -416 -22 -88 -38
-170 -52 -255 -2 -14 -6 -38 -9 -55 -3 -16 -7 -52 -10 -80 -4 -27 -8 -61 -11
-75 -3 -14 -7 -124 -9 -245 -3 -241 7 -364 49 -606 25 -140 109 -414 171 -554
51 -116 121 -258 165 -337 53 -93 203 -327 247 -383 13 -16 27 -35 31 -40 87
-120 248 -296 393 -430 427 -395 1020 -673 1644 -770 206 -32 320 -40 605 -40
235 0 369 6 465 20 17 2 53 7 80 11 28 3 66 8 85 10 49 6 188 33 230 44 239
64 313 88 488 162 106 44 301 144 380 194 29 19 55 34 57 34 5 0 138 86 160
103 5 4 46 34 91 66 91 66 92 67 189 147 150 125 145 121 285 259 108 106 189
193 256 275 16 19 37 44 47 55 32 34 181 236 234 315 167 251 289 507 368 775
33 112 35 119 39 142 2 10 11 45 19 78 15 58 42 194 53 265 3 19 7 46 10 60 4
28 23 175 29 230 25 236 25 664 -1 830 -5 33 -20 123 -31 180 -2 14 -15 68
-29 120 -14 52 -27 105 -29 116 -9 42 -88 261 -133 369 -69 168 -185 391 -285
553 -29 45 -57 90 -62 100 -99 169 -340 430 -579 627 -27 22 -54 45 -60 50
-13 11 -38 29 -153 108 -46 32 -85 57 -87 57 -2 0 -37 19 -78 43 -285 168
-787 344 -1173 410 -82 15 -114 19 -240 34 -48 6 -521 14 -526 9z"/>
</g>
</svg>
